<?xml version="1.0" encoding="iso-8859-1"?>
<!-- Generator: Adobe Illustrator 17.1.0, SVG Export Plug-In . SVG Version: 6.00 Build 0)  -->
<!DOCTYPE svg PUBLIC "-//W3C//DTD SVG 1.1//EN" "http://www.w3.org/Graphics/SVG/1.1/DTD/svg11.dtd">
<svg version="1.1" id="Capa_1" xmlns="http://www.w3.org/2000/svg" xmlns:xlink="http://www.w3.org/1999/xlink" x="0px" y="0px"
	 viewBox="0 0 221.223 221.223" style="enable-background:new 0 0 221.223 221.223;" xml:space="preserve">
<path d="M62.923,152.209l13.688,9.181l-10.068,6.966L62.923,152.209z M126.556,175.822l-64.331,44.512
	c-0.868,0.601-1.859,0.889-2.841,0.889c-1.586,0-3.146-0.752-4.116-2.155l-44.512-64.331c-1.571-2.271-1.004-5.386,1.267-6.957
	l64.331-44.512c2.271-1.571,5.386-1.005,6.957,1.267l44.512,64.331C129.394,171.136,128.827,174.251,126.556,175.822z
	 M102.709,166.853l-44.621-29.928c-1.698-1.14-3.921-1.129-5.609,0.026c-1.688,1.156-2.502,3.224-2.055,5.22l11.801,52.636
	c0.521,2.326,2.586,3.907,4.874,3.907c0.362,0,0.73-0.04,1.099-0.122c2.695-0.604,4.389-3.278,3.785-5.973l-3.08-13.737
	l16.631-11.507l11.604,7.783c2.291,1.537,5.399,0.927,6.937-1.367C105.614,171.497,105.003,168.391,102.709,166.853z
	 M215.795,62.711l-16.925,76.376c-0.517,2.331-2.584,3.919-4.877,3.919c-0.358,0-0.722-0.039-1.086-0.12l-76.377-16.925
	c-2.696-0.597-4.397-3.267-3.8-5.963l16.925-76.377c0.597-2.696,3.267-4.4,5.963-3.8l76.376,16.925
	C214.692,57.345,216.393,60.015,215.795,62.711z M183.935,68.68c-3.028-3.948-7.539-6.752-12.703-7.896l-0.37-0.083
	c-10.983-2.434-21.668,3.442-23.809,13.1l-5.804,26.193c-1.073,4.842,0.113,9.826,3.341,14.035c3.028,3.948,7.54,6.752,12.703,7.896
	l0.37,0.083c1.68,0.372,3.351,0.55,4.987,0.55c9.066-0.001,17.009-5.468,18.822-13.65l0.341-1.541
	c0.597-2.696-1.104-5.366-3.801-5.963c-2.69-0.598-5.366,1.104-5.963,3.801l-0.341,1.54c-0.932,4.203-6.376,6.717-11.881,5.501
	l-0.37-0.082c-2.872-0.637-5.334-2.135-6.933-4.219c-1.398-1.824-1.936-3.878-1.513-5.786l5.804-26.193
	c0.931-4.203,6.372-6.718,11.881-5.501l0.37,0.082c2.872,0.637,5.335,2.135,6.933,4.219c1.399,1.824,1.936,3.878,1.513,5.786
	c-0.598,2.696,1.104,5.366,3.799,5.963c2.694,0.598,5.366-1.103,5.963-3.799C188.349,77.873,187.163,72.889,183.935,68.68z
	 M68.013,57.401c-0.458-1.901-2.138-3.229-4.087-3.229c-0.331,0-0.665,0.04-0.993,0.119l-13.425,3.23l4.213,17.508l13.186-3.173
	c2.39-0.575,3.867-2.987,3.292-5.377L68.013,57.401z M47.15,47.725l10.644-2.562c0.944-0.227,1.744-0.808,2.25-1.636
	s0.661-1.804,0.434-2.748l-1.927-8.007c-0.344-1.432-1.803-2.357-3.271-2.002l-11.542,2.777L47.15,47.725z M108.934,83.668
	c-0.692,1.131-1.806,1.94-3.095,2.251l-76.058,18.302c-0.393,0.095-0.787,0.14-1.174,0.14c-2.258,0-4.306-1.54-4.857-3.831
	L5.448,24.472c-0.646-2.685,1.007-5.385,3.691-6.031L85.197,0.139c1.288-0.309,2.648-0.097,3.78,0.597
	c1.131,0.692,1.94,1.806,2.251,3.095l18.302,76.058C109.84,81.178,109.626,82.538,108.934,83.668z M79.92,64.139l-2.185-9.078
	c-1.037-4.308-3.946-7.736-7.738-9.526c0.687-2.284,0.776-4.715,0.203-7.096l-1.927-8.007c-1.38-5.734-6.46-9.74-12.353-9.74
	c-1,0-2.002,0.119-2.98,0.355l-16.403,3.947c-2.685,0.646-4.337,3.346-3.691,6.031l5.751,23.901c0,0,0,0.001,0,0.001l0.017,0.071
	c0,0,0,0.001,0,0.001l6.552,27.23c0.552,2.292,2.6,3.831,4.857,3.831c0.387,0,0.781-0.045,1.174-0.14l0.001,0l18.047-4.342
	C76.997,79.713,81.785,71.89,79.92,64.139z"/>
<g>
</g>
<g>
</g>
<g>
</g>
<g>
</g>
<g>
</g>
<g>
</g>
<g>
</g>
<g>
</g>
<g>
</g>
<g>
</g>
<g>
</g>
<g>
</g>
<g>
</g>
<g>
</g>
<g>
</g>
</svg>
