<?xml version="1.0" encoding="iso-8859-1"?>
<!-- Generator: Adobe Illustrator 16.0.0, SVG Export Plug-In . SVG Version: 6.00 Build 0)  -->
<!DOCTYPE svg PUBLIC "-//W3C//DTD SVG 1.1//EN" "http://www.w3.org/Graphics/SVG/1.1/DTD/svg11.dtd">
<svg version="1.1" id="Capa_1" xmlns="http://www.w3.org/2000/svg" xmlns:xlink="http://www.w3.org/1999/xlink" x="0px" y="0px"
	 width="450.001px" height="450.001px" viewBox="0 0 450.001 450.001" style="enable-background:new 0 0 450.001 450.001;"
	 xml:space="preserve">
<g>
	<g>
		<path d="M262.241,326.441c3.84,0,7.678-1.465,10.607-4.393c5.856-5.859,5.856-15.355,0-21.215l-6.959-6.957l6.959-6.959
			c5.856-5.857,5.856-15.355,0-21.213c-5.857-5.857-15.355-5.859-21.214,0l-6.959,6.957l-6.958-6.957
			c-5.855-5.859-15.354-5.857-21.212,0c-5.859,5.857-5.859,15.355,0,21.213l6.957,6.959l-6.957,6.957
			c-5.859,5.859-5.859,15.355,0,21.215c2.928,2.928,6.768,4.393,10.605,4.393c3.84,0,7.678-1.465,10.605-4.395l6.958-6.957
			l6.959,6.957C254.563,324.977,258.402,326.441,262.241,326.441z"/>
		<circle cx="368.811" cy="375.27" r="35"/>
		<path d="M435.988,259.016c-0.646-2.701-2.386-5.015-4.804-6.383l-51.793-29.309c-4.802-2.718-10.901-1.03-13.624,3.771
			l-3.259,5.75c-1.309,2.31-1.646,5.044-0.938,7.601c0.708,2.558,2.402,4.729,4.713,6.035l18.691,10.571
			c-19.458,7.367-37.626,18.209-54.195,32.363c-19.645,16.78-37.139,38.244-51.998,63.795
			c-21.919,37.689-31.427,72.475-33.819,82.236c-0.641,2.614-0.199,5.379,1.223,7.664c1.424,2.287,3.708,3.901,6.338,4.481
			l7.818,1.726c0.726,0.157,1.448,0.235,2.162,0.235c4.494,0,8.566-3.051,9.695-7.588c2.218-8.914,10.994-40.643,30.788-74.68
			c23.542-40.482,52.953-68.116,87.644-82.414l-11.186,16.779c-1.472,2.209-2.005,4.912-1.482,7.515
			c0.523,2.603,2.059,4.89,4.27,6.36l5.504,3.658c4.595,3.055,10.799,1.811,13.857-2.783l32.988-49.522
			C436.124,264.568,436.632,261.719,435.988,259.016z"/>
		<path d="M242.813,181.527c0-8.563-6.941-15.506-15.505-15.506c-20.162,0-30.706-11.269-44.056-25.535
			c-9.412-10.058-19.145-20.46-32.983-27.099l-20.288-9.529l-7.896-6.725c-0.541-0.462-1.341-0.429-1.845,0.078l-12.508,12.568
			c-0.507,0.523-0.369,1.275-0.369,1.275l12.141,81.42c0.076,0.545-0.079,1.095-0.427,1.521l-11.484,14.031
			c-0.376,0.459-0.935,0.723-1.525,0.723c-0.59,0-1.15-0.264-1.525-0.723l-11.482-14.031c-0.349-0.426-0.503-0.976-0.428-1.521
			l12.114-81.42c0,0,0.138-0.752-0.368-1.275L91.871,97.211c-0.503-0.507-1.303-0.54-1.844-0.078l-7.896,6.725l-21.266,10.111
			c-31.131,15.814-36.663,59.643-43.036,110.325c-1.213,9.647-2.469,19.624-3.923,29.546c-1.242,8.475,4.619,16.35,13.092,17.592
			c0.763,0.111,1.521,0.166,2.27,0.166c7.567,0,14.191-5.547,15.322-13.258c1.501-10.24,2.775-20.373,4.008-30.174
			c2.334-18.558,4.71-37.406,8.397-52.899l0.016,65.858c0,8.436,2.963,15.949,7.741,22.227l0.011,167.972
			c0,10.315,8.363,18.678,18.68,18.678c10.317,0,18.679-8.363,18.678-18.68l-0.008-148.078c1.327,0.11,2.648,0.176,3.957,0.176
			c1.308,0,2.629-0.063,3.957-0.176l-0.002,148.078c-0.001,10.315,8.361,18.68,18.679,18.68c10.315,0,18.679-8.363,18.679-18.68
			l0.002-167.97c4.778-6.276,7.742-13.791,7.742-22.227l0.022-85.218c1.812,1.868,3.624,3.804,5.461,5.768
			c14.741,15.752,33.086,35.357,66.7,35.357C235.872,197.033,242.813,190.091,242.813,181.527z"/>
		<path d="M106.069,95.888c22.682,0,39.611-21.136,39.995-56.577C146.308,14.717,134.597,0,106.069,0
			c-28.53,0-40.243,14.717-39.996,39.311C66.456,74.752,83.384,95.888,106.069,95.888z"/>
	</g>
</g>
<g>
</g>
<g>
</g>
<g>
</g>
<g>
</g>
<g>
</g>
<g>
</g>
<g>
</g>
<g>
</g>
<g>
</g>
<g>
</g>
<g>
</g>
<g>
</g>
<g>
</g>
<g>
</g>
<g>
</g>
</svg>
