<?xml version="1.0" encoding="iso-8859-1"?>
<!-- Generator: Adobe Illustrator 18.1.1, SVG Export Plug-In . SVG Version: 6.00 Build 0)  -->
<svg version="1.1" id="Capa_1" xmlns="http://www.w3.org/2000/svg" xmlns:xlink="http://www.w3.org/1999/xlink" x="0px" y="0px"
	 viewBox="0 0 487 487" style="enable-background:new 0 0 487 487;" xml:space="preserve">
<g>
	<g>
		<path style="fill:#010002;" d="M171.984,255.096c26.698,11.924,68.619,14.04,68.619,14.04c0.937,0.021,1.854,0.025,2.774,0.03
			v0.003c0.041,0,0.082-0.001,0.123-0.001s0.084,0.001,0.125,0.001v-0.003c0.92-0.005,1.842-0.012,2.774-0.03
			c0,0,41.92-2.116,68.617-14.041c0,0,3.815-0.896,3.938-9.646c0,0-1.373-38.339-12.982-55.576c0,0-2.909-4.467-11.15-7.54
			c0,0-26.882-8.191-28.693-15.15c0,0-8.905,23.057-22.627,22.798c-13.721,0.259-22.628-22.797-22.628-22.797
			c-1.812,6.959-28.692,15.15-28.692,15.15c-8.181,2.947-11.152,7.54-11.152,7.54c-11.609,17.236-12.982,55.575-12.982,55.575
			C168.17,254.199,171.984,255.096,171.984,255.096z"/>
		<path style="fill:#010002;" d="M213.896,139.823c1.975,16.585,16.229,33.761,29.152,33.761c14.865,0,28.969-18.091,31.187-33.76
			c0.813-0.58,2.22-2.025,2.688-5.291c0,0,3.154-11.335-1.06-10.124c1.507-4.355,6.351-21.408-3.032-31.99
			c0,0-4.375-6.044-15.119-9.249c-0.428-0.295-0.771-0.61-1.221-0.926c0,0,0.243,0.295,0.527,0.753
			c-0.568-0.143-1.2-0.285-1.832-0.438c-0.59-0.641-1.28-1.272-1.993-1.933c0,0,0.673,0.661,1.425,1.811
			c-0.324-0.082-0.55-0.193-0.834-0.214c-0.471-0.763-1.078-1.496-1.854-2.249c0,0,0.326,0.57,0.773,1.485
			c-2.035-1.445-5.976-4.792-5.976-8.526c0,0-2.515,1.15-3.918,3.256c-0.603-0.939-0.082-2.045-0.082-2.045
			c-1.14,0.641-4.104,3.032-5.041,6.278l-0.85-1.15c-1.729-1.984-4.772-0.458-4.772-0.458s-15.688,6.787-20.236,20.859
			c0,0-2.625,6.329,0.875,24.959c-4.996-2.351-1.588,9.9-1.588,9.9C211.646,137.819,213.001,139.264,213.896,139.823z"/>
		<path style="fill:#010002;" d="M351.355,19.76V0h-31.581v19.76H167.23V0h-31.563v19.76H69.732V487h347.535V19.76H351.355z
			 M87.867,468.93V37.841h47.802v25.274h31.563V37.841h152.584v25.274h31.541V37.841h47.82l0.002,431.089H87.867z"/>
		<rect x="129.797" y="407.922" style="fill:#010002;" width="184.038" height="18.314"/>
		<rect x="129.768" y="300.658" style="fill:#010002;" width="238.194" height="18.231"/>
		<rect x="129.769" y="337.309" style="fill:#010002;" width="220.165" height="18.334"/>
		<rect x="129.769" y="372.92" style="fill:#010002;" width="202.096" height="18.213"/>
	</g>
</g>
<g>
</g>
<g>
</g>
<g>
</g>
<g>
</g>
<g>
</g>
<g>
</g>
<g>
</g>
<g>
</g>
<g>
</g>
<g>
</g>
<g>
</g>
<g>
</g>
<g>
</g>
<g>
</g>
<g>
</g>
</svg>
