<?xml version="1.0" encoding="iso-8859-1"?>
<!-- Generator: Adobe Illustrator 17.1.0, SVG Export Plug-In . SVG Version: 6.00 Build 0)  -->
<!DOCTYPE svg PUBLIC "-//W3C//DTD SVG 1.1//EN" "http://www.w3.org/Graphics/SVG/1.1/DTD/svg11.dtd">
<svg version="1.1" id="Capa_1" xmlns="http://www.w3.org/2000/svg" xmlns:xlink="http://www.w3.org/1999/xlink" x="0px" y="0px"
	 viewBox="0 0 490 490" style="enable-background:new 0 0 490 490;" xml:space="preserve">
<g>
	<path d="M444.494,189.129h-8.281c-0.995,0-1.801,0.807-1.801,1.801v7.521h-16.91c0.223-3.613,0.335-7.246,0.335-10.896
		c0-3.572-2.896-6.469-6.47-6.469H78.633c-3.573,0-6.47,2.896-6.47,6.469c0,3.65,0.112,7.283,0.336,10.896H55.588v-7.521
		c0-0.994-0.806-1.801-1.801-1.801h-8.281c-0.994,0-1.8,0.807-1.8,1.801v28.445c0,0.994,0.806,1.8,1.8,1.8h8.281
		c0.995,0,1.801-0.806,1.801-1.8v-7.519h18.265c2.073,14.767,6.048,29.15,11.896,42.976c8.705,20.582,21.166,39.066,37.037,54.936
		c11.975,11.975,25.438,22.008,40.166,29.952l-57.487,106.485c-0.433-0.026-0.868-0.043-1.308-0.043
		c-12.105,0-21.919,9.814-21.919,21.919c0,12.105,9.813,21.919,21.919,21.919s21.918-9.814,21.918-21.919
		c0-4.911-1.615-9.445-4.344-13.1l16.613-30.772h213.312l16.612,30.772c-2.729,3.654-4.344,8.189-4.344,13.1
		c0,12.105,9.814,21.919,21.918,21.919c12.107,0,21.919-9.814,21.919-21.919c0-12.105-9.813-21.919-21.919-21.919
		c-0.438,0-0.875,0.017-1.308,0.043L327.048,339.72c14.728-7.944,28.191-17.977,40.166-29.952
		c15.871-15.87,28.333-34.354,37.038-54.936c5.848-13.826,9.823-28.209,11.896-42.976h18.264v7.519c0,0.994,0.806,1.8,1.801,1.8
		h8.281c0.994,0,1.8-0.806,1.8-1.8V190.93C446.294,189.936,445.488,189.129,444.494,189.129z M341.677,405.726H148.323
		l31.367-58.103c20.735,8.474,42.696,12.768,65.31,12.768c22.614,0,44.574-4.294,65.31-12.768L341.677,405.726z M373.656,221.842
		c-3.954,18.489-12.277,36.129-24.069,51.011c-11.642,14.692-26.69,26.751-43.521,34.87c-0.906,0.438-1.865,0.645-2.807,0.645
		c-2.406,0-4.717-1.348-5.832-3.659c-1.552-3.218-0.202-7.085,3.016-8.638c30.797-14.857,53.436-43.617,60.561-76.934
		c0.748-3.494,4.185-5.721,7.68-4.974C372.177,214.91,374.404,218.349,373.656,221.842z"/>
	<g>
		<path d="M317.117,102.055c0-9.555-4.359-14.65-7.542-18.372c-2.437-2.849-3.548-4.148-3.548-7.56c0-3.41,1.111-4.71,3.548-7.559
			c3.183-3.721,7.542-8.816,7.542-18.371c0-9.555-4.359-14.65-7.542-18.371c-2.437-2.848-3.548-4.149-3.548-7.559
			c0-3.756,1.227-5.135,3.914-8.156c0.646-0.726,1.314-1.476,2-2.31c2.916-3.549,2.403-8.79-1.145-11.707
			c-3.105-2.552-7.168-2.996-10.513-0.044c-1.622,1.433-4.711,5.05-5.953,6.833c-2.496,3.587-4.939,8.249-4.939,15.385
			c0,9.555,4.359,14.65,7.542,18.371c2.436,2.849,3.548,4.148,3.548,7.559c0,3.41-1.112,4.711-3.548,7.558
			c-3.183,3.721-7.542,8.816-7.542,18.371c0,9.555,4.359,14.651,7.542,18.372c2.436,2.849,3.548,4.148,3.548,7.56
			c0,3.411-1.112,4.711-3.548,7.56c-3.184,3.721-7.542,8.816-7.542,18.372c0,9.555,7.915,19.315,10.166,21.471
			c1.605,1.537,3.646,2.295,5.738,2.294c1.744,0,3.505-0.547,5.004-1.679c3.667-2.767,4.396-7.982,1.629-11.649
			c-0.803-1.064-1.627-2.027-2.354-2.877c-2.437-2.849-3.548-4.148-3.548-7.56c0-3.411,1.111-4.712,3.548-7.561
			C312.758,116.705,317.117,111.61,317.117,102.055z"/>
		<path d="M258.862,102.055c0-9.555-4.358-14.65-7.542-18.372c-2.436-2.849-3.548-4.148-3.548-7.56c0-3.41,1.112-4.71,3.548-7.559
			c3.183-3.721,7.542-8.816,7.542-18.371c0-9.555-4.359-14.65-7.542-18.371c-2.436-2.848-3.548-4.149-3.548-7.559
			c0-3.756,1.227-5.135,3.914-8.156c0.645-0.726,1.314-1.476,1.999-2.31c2.917-3.549,2.405-8.79-1.143-11.707
			c-3.105-2.552-7.168-2.996-10.512-0.044c-1.623,1.433-4.712,5.05-5.953,6.833c-2.497,3.587-4.939,8.249-4.939,15.385
			c0,9.555,4.358,14.65,7.542,18.371c2.436,2.849,3.548,4.148,3.548,7.559c0,3.41-1.112,4.711-3.548,7.558
			c-3.184,3.721-7.542,8.816-7.542,18.371c0,9.555,4.358,14.651,7.542,18.372c2.436,2.849,3.548,4.148,3.548,7.56
			c0,3.411-1.112,4.711-3.548,7.56c-3.184,3.721-7.542,8.816-7.542,18.372c0,9.555,7.915,19.315,10.167,21.471
			c1.605,1.537,3.646,2.295,5.737,2.294c1.745,0,3.505-0.547,5.004-1.679c3.667-2.767,4.396-7.982,1.629-11.649
			c-0.803-1.064-1.627-2.027-2.354-2.877c-2.436-2.849-3.548-4.148-3.548-7.56c0-3.411,1.112-4.712,3.548-7.561
			C254.504,116.705,258.862,111.61,258.862,102.055z"/>
		<path d="M200.609,102.055c0-9.555-4.359-14.65-7.542-18.372c-2.436-2.849-3.548-4.148-3.548-7.56c0-3.41,1.111-4.71,3.548-7.559
			c3.183-3.721,7.542-8.816,7.542-18.371c0-9.555-4.359-14.65-7.542-18.371c-2.436-2.848-3.548-4.149-3.548-7.559
			c0-3.756,1.227-5.135,3.914-8.156c0.645-0.726,1.313-1.476,1.999-2.31c2.917-3.549,2.404-8.79-1.143-11.707
			c-3.105-2.552-7.169-2.996-10.513-0.044c-1.623,1.433-4.712,5.05-5.953,6.833c-2.496,3.587-4.939,8.249-4.939,15.385
			c0,9.555,4.359,14.65,7.542,18.371c2.437,2.849,3.548,4.148,3.548,7.559c0,3.41-1.111,4.711-3.548,7.558
			c-3.183,3.721-7.542,8.816-7.542,18.371c0,9.555,4.359,14.651,7.542,18.372c2.437,2.849,3.548,4.148,3.548,7.56
			c0,3.411-1.111,4.711-3.548,7.56c-3.183,3.721-7.542,8.816-7.542,18.372c0,9.555,7.915,19.315,10.167,21.471
			c1.605,1.537,3.646,2.295,5.738,2.294c1.744,0,3.504-0.547,5.004-1.679c3.667-2.767,4.396-7.982,1.629-11.649
			c-0.804-1.064-1.628-2.027-2.355-2.877c-2.436-2.849-3.548-4.148-3.548-7.56c0-3.411,1.111-4.712,3.548-7.561
			C196.249,116.705,200.609,111.61,200.609,102.055z"/>
	</g>
</g>
<g>
</g>
<g>
</g>
<g>
</g>
<g>
</g>
<g>
</g>
<g>
</g>
<g>
</g>
<g>
</g>
<g>
</g>
<g>
</g>
<g>
</g>
<g>
</g>
<g>
</g>
<g>
</g>
<g>
</g>
</svg>
