<?xml version="1.0" encoding="iso-8859-1"?>
<!-- Generator: Adobe Illustrator 17.1.0, SVG Export Plug-In . SVG Version: 6.00 Build 0)  -->
<!DOCTYPE svg PUBLIC "-//W3C//DTD SVG 1.1//EN" "http://www.w3.org/Graphics/SVG/1.1/DTD/svg11.dtd">
<svg version="1.1" id="Capa_1" xmlns="http://www.w3.org/2000/svg" xmlns:xlink="http://www.w3.org/1999/xlink" x="0px" y="0px"
	 viewBox="0 0 352.663 352.663" style="enable-background:new 0 0 352.663 352.663;" xml:space="preserve">
<g>
	<path style="fill:#000002;" d="M197.316,174.298c-5.962,0-11.235-3.465-13.429-8.816c-2.245-5.498-0.787-11.913,3.618-15.954
		c4.989-4.56,5.617-12.291,1.433-17.598c-4.964-6.304-10.613-12.007-16.784-16.949c-2.288-1.835-5.167-2.845-8.106-2.845
		c-3.667,0-7.177,1.557-9.632,4.274c-2.545,2.819-6.768,4.571-11.021,4.572c-1.81,0-3.56-0.331-5.039-0.948
		c-5.553-2.337-9.053-7.971-8.709-14.002c0.406-6.853-4.623-12.847-11.452-13.642c-7.897-0.915-15.952-0.938-23.823-0.063
		c-6.7,0.741-11.768,6.601-11.539,13.346c0.209,6.001-3.335,11.542-8.813,13.786c-1.459,0.596-3.163,0.911-4.929,0.911
		c-4.253,0-8.483-1.747-11.047-4.567c-2.452-2.69-5.947-4.232-9.589-4.232c-2.879,0-5.716,0.976-8.007,2.762
		c-6.36,4.99-12.125,10.692-17.13,16.938c-4.286,5.331-3.678,13.115,1.398,17.733c4.493,4.068,5.947,10.534,3.62,16.085
		c-2.21,5.262-7.856,8.67-14.402,8.7c-6.85-0.153-12.403,4.706-13.22,11.46c-0.93,7.939-0.946,16.04-0.047,24.076
		c0.795,7.108,7.838,11.508,13.906,11.508l0.511-0.007c5.479,0,10.621,3.553,12.793,8.832c2.25,5.487,0.791,11.899-3.636,15.959
		c-4.977,4.571-5.594,12.298-1.425,17.563c4.899,6.245,10.537,11.951,16.758,16.96c2.296,1.849,5.183,2.867,8.128,2.867
		c3.654,0,7.159-1.554,9.625-4.271c2.56-2.83,6.785-4.588,11.027-4.588c1.804,0,3.544,0.331,5.042,0.96
		c5.558,2.325,9.062,7.955,8.72,13.988c-0.409,6.869,4.626,12.862,11.438,13.641c4.01,0.471,8.118,0.709,12.209,0.709
		c3.869,0,7.78-0.216,11.624-0.641c6.699-0.741,11.768-6.603,11.539-13.36c-0.216-5.989,3.324-11.523,8.802-13.767
		c1.473-0.602,3.187-0.92,4.956-0.92c4.237,0,8.463,1.751,11.05,4.591c2.456,2.674,5.944,4.208,9.569,4.208
		c2.863,0,5.692-0.968,8.007-2.757c6.329-4.964,12.093-10.663,17.129-16.936c4.298-5.341,3.687-13.131-1.396-17.741
		c-4.498-4.07-5.956-10.531-3.626-16.081c2.177-5.198,7.441-8.698,13.118-8.735l0.946,0.025c0.257,0.016,0.513,0.023,0.767,0.023
		c0,0,0.001,0,0.001,0c6.526,0,12.027-4.928,12.797-11.468c0.933-7.948,0.949-16.051,0.047-24.083
		C210.293,178.698,203.318,174.298,197.316,174.298z M196.343,206.309c-11.574,0.114-22.305,7.295-26.762,17.934
		c-4.537,10.808-2.105,23.285,5.996,31.65c-3.659,4.371-7.729,8.394-12.11,11.972c-5.375-5.105-13.004-8.106-20.786-8.106
		c-3.748,0-7.323,0.685-10.633,2.036c-10.692,4.379-17.792,14.791-18.122,26.283c-5.593,0.503-11.249,0.488-16.792-0.044
		c-0.106-11.643-7.134-22.238-17.943-26.76c-3.359-1.41-7.006-2.126-10.84-2.126c-7.799,0-15.433,3.016-20.799,8.137
		c-4.301-3.61-8.258-7.615-11.808-11.952c7.957-8.315,10.389-20.68,6.003-31.374c-4.422-10.75-14.99-18.004-26.364-18.131
		c-0.524-5.714-0.511-11.447,0.036-17.075c11.981-0.558,22.371-7.442,26.745-17.861c4.535-10.816,2.105-23.299-5.986-31.655
		c3.634-4.347,7.699-8.363,12.109-11.968c5.368,5.103,13.001,8.103,20.801,8.103c3.746,0,7.312-0.682,10.608-2.026
		c10.684-4.378,17.786-14.789,18.13-26.289c5.576-0.505,11.211-0.491,16.797,0.041c0.104,11.626,7.118,22.221,17.934,26.772
		c3.361,1.402,7.007,2.113,10.836,2.113c7.81-0.001,15.443-3.011,20.803-8.131c4.272,3.571,8.236,7.578,11.818,11.944
		c-7.946,8.304-10.381,20.664-6.012,31.365c4.398,10.73,14.68,17.762,26.366,18.122C196.895,194.97,196.885,200.681,196.343,206.309
		z"/>
	<path style="fill:#000002;" d="M106.033,157.46c-22.229,0-40.313,18.086-40.313,40.316c0,22.23,18.084,40.314,40.313,40.314
		c22.23,0,40.315-18.085,40.315-40.314C146.348,175.546,128.263,157.46,106.033,157.46z M106.033,223.091
		c-13.958,0-25.313-11.356-25.313-25.314c0-13.96,11.355-25.316,25.313-25.316c13.958,0,25.315,11.357,25.315,25.316
		C131.348,211.735,119.991,223.091,106.033,223.091z"/>
	<path style="fill:#000002;" d="M274.957,95.992c-4.099,0-8.107,0.8-11.914,2.379c-15.881,6.586-23.443,24.865-16.858,40.749
		c4.847,11.686,16.166,19.238,28.836,19.238c4.098,0,8.105-0.8,11.911-2.378c15.883-6.586,23.446-24.866,16.86-40.748
		C298.946,103.543,287.628,95.992,274.957,95.992z M281.953,143.972c-2.219,0.92-4.551,1.386-6.931,1.386
		c-7.396,0-14.001-4.403-16.827-11.218c-3.84-9.262,0.569-19.92,9.829-23.762c2.22-0.92,4.553-1.387,6.934-1.387
		c7.396,0,14.001,4.403,16.827,11.22C295.624,129.472,291.214,140.131,281.953,143.972z"/>
	<path style="fill:#000002;" d="M345.492,136.62c-3.956-1.411-6.602-5.153-6.583-9.316c0.014-3.834,2.501-7.545,6.059-9.055
		l0.64-0.245c5.196-1.803,8.178-7.541,6.66-12.901c-1.659-5.852-4.007-11.547-6.981-16.929c-1.797-3.249-5.45-5.268-9.535-5.268
		c-1.54,0-3.073,0.299-4.432,0.863c-1.283,0.531-2.621,0.801-3.98,0.802c-2.645,0-5.115-1.021-6.952-2.87
		c-2.892-2.919-3.66-7.407-1.914-11.159c2.342-5.013,0.392-11.055-4.433-13.751c-5.324-2.982-10.953-5.344-16.725-7.017
		c-0.961-0.28-1.956-0.422-2.955-0.422c-4.484,0-8.505,2.838-10.006,7.063c-1.288,3.624-5.462,6.573-9.3,6.573
		c-4.17-0.022-7.901-2.697-9.28-6.643c-1.48-4.266-5.507-7.131-10.02-7.131c-0.983,0-1.962,0.137-2.915,0.408
		c-5.831,1.663-11.466,3.983-16.746,6.893c-4.833,2.659-6.829,8.678-4.541,13.707c1.726,3.784,0.93,8.268-1.975,11.152
		c-1.695,1.68-4.457,2.724-7.209,2.724c-1.448,0-2.819-0.285-3.977-0.83c-1.422-0.666-2.936-1.004-4.503-1.004
		c-3.821,0-7.366,2.066-9.259,5.409c-3.013,5.357-5.402,11.041-7.099,16.885c-1.568,5.378,1.334,11.071,6.616,12.965
		c3.952,1.411,6.597,5.159,6.58,9.322c-0.018,3.944-2.748,7.627-6.961,9.401c-5.216,2.037-7.904,7.39-6.389,12.803
		c1.659,5.847,4.006,11.539,6.977,16.921c1.787,3.236,5.443,5.248,9.542,5.248c1.571,0,3.133-0.306,4.519-0.881l0.149-0.063
		c1.139-0.507,2.372-0.763,3.666-0.763c2.607,0,5.172,1.072,7.03,2.939c2.893,2.91,3.658,7.396,1.903,11.168
		c-2.33,5.018-0.374,11.051,4.429,13.725c5.258,2.959,10.879,5.323,16.711,7.031c0.97,0.284,1.974,0.428,2.981,0.428
		c4.47,0,8.487-2.831,9.998-7.055c1.293-3.628,5.45-6.58,9.309-6.58c4.168,0.013,7.899,2.684,9.28,6.63
		c1.48,4.266,5.507,7.132,10.02,7.132c0.987,0,1.97-0.138,2.906-0.406c2.964-0.842,5.918-1.871,8.777-3.057
		c2.716-1.125,5.402-2.416,7.977-3.836c4.835-2.659,6.831-8.679,4.538-13.716c-1.727-3.774-0.932-8.251,1.973-11.135
		c1.727-1.711,4.42-2.732,7.204-2.732c1.451,0,2.829,0.287,4.011,0.841c1.417,0.658,2.923,0.991,4.478,0.991
		c0.001,0,0.001,0,0.001,0c3.804,0,7.343-2.056,9.26-5.405c2.998-5.329,5.387-11.011,7.098-16.881
		C353.683,144.209,350.779,138.513,345.492,136.62z M334.678,158.265c-2.331-0.799-4.857-1.216-7.417-1.216
		c-6.225,0-12.185,2.368-16.358,6.502c-6.225,6.181-8.299,15.456-5.478,23.676c-1.582,0.809-3.2,1.556-4.832,2.233
		c-1.737,0.72-3.515,1.371-5.311,1.944c-3.718-7.974-11.76-13.207-20.736-13.234c-8.563,0-16.892,5.396-20.626,13.101
		c-3.487-1.142-6.873-2.567-10.121-4.261c2.874-8.211,0.862-17.499-5.325-23.725c-4.285-4.304-10.207-6.771-16.247-6.771
		c-2.593,0-5.107,0.436-7.494,1.299c-1.713-3.346-3.143-6.816-4.265-10.351c8.077-4.083,13.218-11.963,13.256-20.561
		c0.035-8.902-5.143-16.974-13.088-20.74c1.149-3.527,2.599-6.971,4.325-10.274c2.326,0.798,4.847,1.214,7.405,1.214
		c6.235-0.001,12.198-2.366,16.364-6.495c6.22-6.176,8.295-15.452,5.481-23.682c3.254-1.662,6.654-3.063,10.146-4.18
		c3.71,7.962,11.738,13.198,20.688,13.246c8.593,0,16.939-5.397,20.671-13.106c3.461,1.127,6.852,2.551,10.125,4.255
		c-2.869,8.2-0.86,17.486,5.317,23.72c4.301,4.329,10.047,6.714,16.181,6.714c2.577-0.001,5.111-0.424,7.553-1.262
		c1.707,3.326,3.132,6.775,4.255,10.303c-7.927,3.711-13.207,11.883-13.239,20.639c-0.038,8.899,5.142,16.969,13.093,20.735
		C337.844,151.535,336.393,154.983,334.678,158.265z"/>
</g>
<g>
</g>
<g>
</g>
<g>
</g>
<g>
</g>
<g>
</g>
<g>
</g>
<g>
</g>
<g>
</g>
<g>
</g>
<g>
</g>
<g>
</g>
<g>
</g>
<g>
</g>
<g>
</g>
<g>
</g>
</svg>
