<?xml version="1.0" encoding="iso-8859-1"?>
<!-- Generator: Adobe Illustrator 18.0.0, SVG Export Plug-In . SVG Version: 6.00 Build 0)  -->
<!DOCTYPE svg PUBLIC "-//W3C//DTD SVG 1.1//EN" "http://www.w3.org/Graphics/SVG/1.1/DTD/svg11.dtd">
<svg version="1.1" id="Capa_1" xmlns="http://www.w3.org/2000/svg" xmlns:xlink="http://www.w3.org/1999/xlink" x="0px" y="0px"
	 viewBox="0 0 395 395" style="enable-background:new 0 0 395 395;" xml:space="preserve">
<g>
	<path d="M313.001,0H81.999C36.785,0,0,36.784,0,81.998v230.993C0,358.211,36.785,395,81.999,395h231.002
		C358.216,395,395,358.211,395,312.991V81.998C395,36.784,358.216,0,313.001,0z M380,312.991C380,349.94,349.945,380,313.001,380
		H81.999C45.056,380,15,349.94,15,312.991V81.998C15,45.056,45.056,15,81.999,15h231.002C349.945,15,380,45.056,380,81.998V312.991z
		"/>
	<path d="M71.52,315.394c0,7.723,6.26,13.982,13.983,13.982h89.859c7.723,0,13.983-6.26,13.983-13.982v-83.257H71.52V315.394z
		 M158.39,268.934c0-4.183,3.391-7.573,7.573-7.573c4.183,0,7.573,3.391,7.573,7.573v10.643c0,4.182-3.39,7.572-7.573,7.572
		c-4.182,0-7.573-3.391-7.573-7.572V268.934z"/>
	<path d="M171.847,75.891c-1.672-6.065-7.188-10.267-13.48-10.267h-44.983c-5.258,0-10.098,2.911-12.485,7.596
		c-2.387,4.685-1.972,10.274,1.118,14.528c0.083,0.118,8.316,11.959,9.286,28.262c1.262,21.224-10.176,40.725-33.996,57.962
		c-3.634,2.63-5.786,6.843-5.786,11.328v23.528h117.825v-67.574c0-1.256-0.169-2.506-0.503-3.716L171.847,75.891z"/>
	<path d="M317.694,173.972c-23.821-17.237-35.259-36.738-33.997-57.962c0.97-16.303,9.203-28.144,9.231-28.186
		c3.09-4.255,3.532-9.882,1.145-14.566s-7.201-7.634-12.458-7.634h-44.982c-6.292,0-11.808,4.201-13.48,10.267l-16.995,61.647
		c-0.333,1.21-0.503,2.46-0.503,3.716v67.574H323.48V185.3C323.48,180.814,321.328,176.602,317.694,173.972z"/>
	<path d="M205.655,315.394c0,7.723,6.26,13.982,13.983,13.982h89.859c7.723,0,13.983-6.26,13.983-13.982v-83.257H205.655V315.394z
		 M221.464,268.934c0-4.183,3.39-7.573,7.573-7.573c4.182,0,7.572,3.391,7.572,7.573v10.643c0,4.182-3.391,7.572-7.572,7.572
		c-4.183,0-7.573-3.391-7.573-7.572V268.934z"/>
</g>
<g>
</g>
<g>
</g>
<g>
</g>
<g>
</g>
<g>
</g>
<g>
</g>
<g>
</g>
<g>
</g>
<g>
</g>
<g>
</g>
<g>
</g>
<g>
</g>
<g>
</g>
<g>
</g>
<g>
</g>
</svg>
