<?xml version="1.0" encoding="iso-8859-1"?>
<!-- Generator: Adobe Illustrator 16.0.0, SVG Export Plug-In . SVG Version: 6.00 Build 0)  -->
<!DOCTYPE svg PUBLIC "-//W3C//DTD SVG 1.1//EN" "http://www.w3.org/Graphics/SVG/1.1/DTD/svg11.dtd">
<svg version="1.1" id="Capa_1" xmlns="http://www.w3.org/2000/svg" xmlns:xlink="http://www.w3.org/1999/xlink" x="0px" y="0px"
	 width="314.014px" height="314.014px" viewBox="0 0 314.014 314.014" style="enable-background:new 0 0 314.014 314.014;"
	 xml:space="preserve">
<g>
	<g id="_x37_5._Messages">
		<g>
			<path d="M248.713,127.252c-2.425,10.277-6.624,20.005-12.251,29.04c26.922,6.646,46.149,23.874,46.149,44.136
				c0,26.021-31.631,47.104-70.65,47.104c-31.979,0-58.955-14.17-67.672-33.594c-8.58,1.422-17.448,2.191-26.533,2.191
				c-1.909,0-3.761-0.168-5.654-0.24c5.542,21.199,22.021,39.337,44.905,50.622v28.12c0,8.664,3.903,9.857,8.724,2.652l14.82-22.169
				c9.914,2.452,20.445,3.815,31.41,3.815c56.36,0,102.053-35.142,102.053-78.502C314.014,167.054,286.892,138.613,248.713,127.252z
				 M235.513,106.231c0-52.032-52.722-94.213-117.757-94.213C52.713,12.019,0,54.199,0,106.231c0,36.143,25.467,67.487,62.802,83.28
				v42.318c0,8.66,4.224,10.079,9.429,3.142l26.956-35.834c6.063,0.77,12.239,1.29,18.568,1.29
				C182.791,200.428,235.513,158.254,235.513,106.231z M31.402,106.231c0-34.69,38.66-62.805,86.354-62.805
				c47.69,0,86.354,28.114,86.354,62.805c0,34.682-38.664,62.794-86.354,62.794C70.062,169.025,31.402,140.914,31.402,106.231z"/>
		</g>
	</g>
</g>
<g>
</g>
<g>
</g>
<g>
</g>
<g>
</g>
<g>
</g>
<g>
</g>
<g>
</g>
<g>
</g>
<g>
</g>
<g>
</g>
<g>
</g>
<g>
</g>
<g>
</g>
<g>
</g>
<g>
</g>
</svg>
