<?xml version="1.0" encoding="iso-8859-1"?>
<!-- Generator: Adobe Illustrator 16.0.0, SVG Export Plug-In . SVG Version: 6.00 Build 0)  -->
<!DOCTYPE svg PUBLIC "-//W3C//DTD SVG 1.1//EN" "http://www.w3.org/Graphics/SVG/1.1/DTD/svg11.dtd">
<svg version="1.1" id="Capa_1" xmlns="http://www.w3.org/2000/svg" xmlns:xlink="http://www.w3.org/1999/xlink" x="0px" y="0px"
	 width="894.438px" height="894.437px" viewBox="0 0 894.438 894.437" style="enable-background:new 0 0 894.438 894.437;"
	 xml:space="preserve">
<g>
	<g>
		<g>
			<path d="M387.426,632.607H55c-7.866,0-15.477-1.098-22.711-3.104v159.463c0,30.375,24.625,55,55,55h719.859
				c30.375,0,55-24.625,55-55V629.501c-7.234,2.008-14.846,3.104-22.711,3.104H507.01c0.019,0.437,0.033,0.873,0.033,1.313v35.926
				c0,16.568-13.433,30-30,30h-59.65c-16.567,0-30-13.432-30-30v-35.926C387.393,633.478,387.408,633.042,387.426,632.607z"/>
			<path d="M0,220.765v326.842c0,22.273,13.249,41.441,32.289,50.09c6.925,3.146,14.61,4.91,22.711,4.91h784.438
				c8.103,0,15.785-1.766,22.711-4.91c19.039-8.647,32.289-27.815,32.289-50.09V220.765c0-30.376-24.625-55-55-55h-195.22v-15v-15
				v-25.293c0-33.084-26.916-60-60-60h-274c-33.084,0-60,26.916-60,60v25.293v15v15H55C24.624,165.765,0,190.389,0,220.765z
				 M310.218,150.765v-15v-25.293h274l0.006,25.293l0.005,15l0.004,15H310.218V150.765z"/>
		</g>
	</g>
</g>
<g>
</g>
<g>
</g>
<g>
</g>
<g>
</g>
<g>
</g>
<g>
</g>
<g>
</g>
<g>
</g>
<g>
</g>
<g>
</g>
<g>
</g>
<g>
</g>
<g>
</g>
<g>
</g>
<g>
</g>
</svg>
