<?xml version="1.0" encoding="iso-8859-1"?>
<!-- Generator: Adobe Illustrator 16.0.0, SVG Export Plug-In . SVG Version: 6.00 Build 0)  -->
<!DOCTYPE svg PUBLIC "-//W3C//DTD SVG 1.1//EN" "http://www.w3.org/Graphics/SVG/1.1/DTD/svg11.dtd">
<svg version="1.1" id="Capa_1" xmlns="http://www.w3.org/2000/svg" xmlns:xlink="http://www.w3.org/1999/xlink" x="0px" y="0px"
	 width="970.6px" height="970.6px" viewBox="0 0 970.6 970.6" style="enable-background:new 0 0 970.6 970.6;" xml:space="preserve"
	>
<g>
	<g>
		<path d="M804.601,285.8l25.4-33.4c13.398-17.6,10-42.7-7.602-56.1l-65.398-49.8c-17.602-13.4-42.701-10-56.102,7.6l-25.398,33.3
			c41.6,20.6,79.299,47.7,112.398,80.8C793.8,274,799.3,279.8,804.601,285.8z"/>
		<path d="M485.3,142.8c17.701,0,35.201,1.1,52.5,3.2v-46h31.6c22.102,0,40-17.9,40-40V40c0-22.1-17.898-40-40-40H401.201
			c-22.101,0-40,17.9-40,40v20c0,22.1,17.899,40,40,40h31.6v46C450.1,143.9,467.6,142.8,485.3,142.8z"/>
		<path d="M485.3,970.6c220.701,0,399.599-178.899,399.599-399.6c0-100.3-36.898-191.9-97.898-262c-35.602-41-79.5-74.6-129-98.4
			C620.8,192.7,580.3,180.5,537.8,174.9c-17.199-2.3-34.699-3.4-52.5-3.4c-17.8,0-35.3,1.2-52.5,3.4
			C236.9,200.6,85.7,368.2,85.7,571C85.7,791.7,264.6,970.6,485.3,970.6z M595.399,292.8c51.602,20.4,96.102,54.7,129,98.4
			c29.4,39,49.5,85.5,56.9,136.1c2.1,14.3,3.201,29,3.201,43.9H587.3h-102h-1.9v-1.5v-130V271.8c0.601,0,1.301,0,1.9,0
			c14.3,0,28.4,1,42.099,3C551.101,278.1,573.8,284.2,595.399,292.8z"/>
	</g>
</g>
<g>
</g>
<g>
</g>
<g>
</g>
<g>
</g>
<g>
</g>
<g>
</g>
<g>
</g>
<g>
</g>
<g>
</g>
<g>
</g>
<g>
</g>
<g>
</g>
<g>
</g>
<g>
</g>
<g>
</g>
</svg>
