<svg xmlns="http://www.w3.org/2000/svg" viewBox="0 0 24 24"><g fill-rule="evenodd" clip-rule="evenodd"><path d="M20.39 8.086c-1.08-1.345-2.595-2.124-4.025-2.124-1.89 0-2.69.898-4.003.898-1.353 0-2.38-.897-4.017-.897-1.607 0-3.315.976-4.4 2.644-1.523 2.346-1.265 6.76 1.207 10.522.884 1.343 2.064 2.856 3.608 2.87 1.372.013 1.76-.875 3.622-.886 1.86-.01 2.214.895 3.585.883 1.543-.015 2.79-1.69 3.672-3.035.632-.963.868-1.45 1.36-2.54-3.573-1.35-4.148-6.4-.61-8.336zM14.93 4.46c.687-.883 1.21-2.128 1.02-3.4-1.123.077-2.436.79-3.202 1.72-.696.846-1.27 2.1-1.047 3.317 1.226.038 2.494-.694 3.23-1.638z"/></g></svg>