<svg xmlns="http://www.w3.org/2000/svg" viewBox="0 0 23.382 23.382"><path d="M14.58 15.18c.438-.73 1.082-1.106 1.936-1.116.854-.01 1.285-.445 1.3-1.3.01-.853.382-1.497 1.114-1.933.734-.437.893-1.026.475-1.772-.416-.744-.416-1.488 0-2.234.418-.744.26-1.332-.475-1.77-.732-.44-1.104-1.082-1.115-1.938-.014-.852-.445-1.287-1.3-1.297-.853-.013-1.497-.386-1.935-1.118-.438-.734-1.027-.893-1.77-.475-.745.416-1.49.416-2.235 0C9.83-.19 9.24-.033 8.803.702c-.437.733-1.082 1.106-1.935 1.117-.852.01-1.285.444-1.297 1.296-.013.856-.384 1.498-1.116 1.938-.734.438-.895 1.025-.475 1.77.417.746.417 1.49 0 2.234-.42.746-.26 1.336.474 1.773.732.437 1.104 1.08 1.117 1.933.013.855.446 1.29 1.298 1.3.854.01 1.498.386 1.936 1.118.438.735 1.027.894 1.77.474.745-.412 1.49-.412 2.235 0 .743.42 1.333.26 1.77-.473zm-2.886-2.566c-2.582 0-4.674-2.092-4.674-4.674 0-2.58 2.092-4.672 4.674-4.672 2.58 0 4.672 2.092 4.672 4.672 0 2.582-2.092 4.674-4.672 4.674zM6.793 14.75c-.898 0-1.018-.42-1.018-.42l-3.507 6.894 2.812-.316 1.555 2.34s3.24-6.76 3.24-6.715c-1.68-.042-1.01-1.74-3.082-1.784zM17.563 14.6c-2.562.27-2.04.905-2.627 1.4-.674.718-1.516.577-1.516.577l3.955 6.805.973-2.52 2.766.36-3.55-6.62z"/><path d="M12.67 6.91l-.978-1.98-.98 1.98-2.188.32 1.582 1.542-.373 2.182 1.96-1.03 1.958 1.03-.372-2.182L14.86 7.23"/></svg>