<svg xmlns="http://www.w3.org/2000/svg" viewBox="0 0 24 24"><path d="M12.954 9.928V9.73c0-.654-.563-1.184-1.217-1.184H8.743v2.566h2.993c.655 0 1.218-.53 1.218-1.184zM11.766 12.658H8.743v2.796h2.96c.922 0 1.445-.59 1.445-1.316v-.1c0-.758-.622-1.38-1.382-1.38z"/><path d="M3 3v18h18V3H3zm8.956 14H7V7h4.967c1.83 0 2.796 1.217 2.796 2.467 0 1.546-1.01 2.237-1.71 2.368h.062c.75.14 1.827.878 1.827 2.53 0 1.462-.913 2.635-2.986 2.635zm4.962-6.117l-.68-.583c.56-.4.96-.917 1.036-1.392 0 0-.14.032-.26.032-.56 0-.84-.54-.84-.906S16.444 7 17.177 7c.734 0 1.133.67 1.133 1.36 0 .69-.28 1.747-1.392 2.523z"/></svg>