<svg xmlns="http://www.w3.org/2000/svg" width="307.788" height="307.788" viewBox="0 0 307.788 307.788"><path d="M232.876 72.65c-1.512-.573-3.014-.747-4.49-.547-1.475.223-2.8.753-3.997 1.603-1.182.854-2.196 1.94-3.024 3.26-.84 1.315-1.362 2.77-1.564 4.32-.155 2.443.472 4.675 1.88 6.704 1.398 2.015 3.07 3.39 5.013 4.117 2.61.99 5.105.846 7.508-.41 2.397-1.252 4.02-3.122 4.862-5.604.404-1.087.564-2.043.492-2.843l-.1.262c.327-2.382-.107-4.562-1.277-6.556-1.177-1.985-2.942-3.416-5.304-4.307zM256.406 55.04c1.16-.28 2.393-.615 3.697-.996 8.812-2.465 15.094-6.41 19.076-11.713.822-.89 1.682-2.083 2.608-4.07 5.225-11.173-.18-20.59-.18-20.59s-2.886-5.048-5.102-7.306c-3.242-3.288-7.13-5.792-11.677-7.503-.762-.292-1.467-.535-2.108-.727-.652-.202-1.27-.414-1.86-.632-2.4-.512-4.612-.916-6.616-1.203-2.02-.285-3.967-.354-5.825-.254-1.88.117-3.738.477-5.603 1.077-1.863.583-3.8 1.522-5.814 2.783-.75.482-1.445 1.23-2.076 2.242-.616 1.013-1.165 2.16-1.646 3.426-.667 1.772-1.2 3.5-1.6 5.17-.39 1.687-.59 2.8-.61 3.375-.296 1.532-.11 2.98.533 4.32.642 1.353 1.61 2.365 2.895 3.033l-.125-.036c1.088.704 1.983 1.066 2.693 1.093.72.03 1.31-.16 1.796-.552.487-.394.892-.96 1.218-1.704.326-.747.626-1.6.89-2.556.17-.704.384-1.393.643-2.07.28-.76.688-1.332 1.222-1.71 2.01-2.024 4.417-3.016 7.183-2.98 2.786.037 5.427.668 7.938 1.908 3.247 1.603 5.567 3.92 6.985 6.952 1.404 3.04 1.55 6.03.437 8.97-.544 1.427-1.403 2.62-2.574 3.586-1.18.95-2.568 1.766-4.184 2.46-1.6.702-3.34 1.29-5.21 1.78-1.875.506-3.75.972-5.654 1.417-2.444.616-4.785 1.248-6.996 1.91-2.222.65-4.19 1.57-5.877 2.756-1.13.435-2.045 1.025-2.76 1.766-.715.747-1.295 1.558-1.725 2.448-.435.914-.803 1.83-1.113 2.77-.306.942-.575 1.843-.812 2.718-.078.456-.15.803-.244 1.057-.073.174-.146.38-.244.632-.632 1.686-.86 3.042-.68 4.075.198 1.04.58 1.867 1.182 2.467.58.603 1.306 1.064 2.145 1.382.927.35 1.812.686 2.65 1.006l1.264.48c1.854.698 3.34 1.02 4.474.975 1.13-.06 2.02-.393 2.69-1.01.673-.618 1.2-1.472 1.62-2.575.44-1.173.85-2.51 1.223-3.998l.082.168.477-1.266c.668-.987 1.55-1.73 2.63-2.176 1.078-.466 3.024-1.08 5.815-1.85l-.17.08c.84-.257 1.86-.53 3.02-.803zM139.787 34.276c-22.96 0-42.54 11.936-50.49 28.775-1.998-.916-4.21-1.462-6.557-1.462-8.702 0-13.103 11.936-15.76 21.983-2.438 9.234-3.652 20.91 5.79 23.704 0 0 17.132-3.92 27.275-12.948 3.46-3.09 7.892-3.734 11.692-1.072 10.563 7.423 35.134 19.576 80.766 17.178 0 0 2.532-15.25 1.585-30.722-1.58-25.656-24.312-45.434-54.3-45.434zM39.572 296.768c1.103.19 2.19.29 3.265.29 9.116 0 17.18-6.55 18.78-15.84 1.6-9.258 4.265-17.543 7.527-25.005-.023 4.013.01 8.14.18 12.52-.128.72-.128 1.105.025 1.11v28.4c0 5.267 4.27 9.544 9.545 9.544H183.08c5.27 0 9.537-4.277 9.537-9.544v-28.438c1.077-24.312-1.55-43.015-5.84-57.38 23.927-7.487 59.796-32.187 58.698-85.327-.218-10.53-8.73-18.973-19.47-18.68-10.538.223-18.906 8.935-18.684 19.47.82 39.835-31.103 48.095-34.878 48.923-1.497.312-2.88.835-4.205 1.45-7.46-7.97-13.722-10.46-13.722-10.46 20.847-8.315 35.9-28.008 37.536-51.418-3.815.187-7.616.303-11.293.303-39.768 0-61.974-11.433-71.678-18.245-2.054-1.432-4.37-1.108-6.487.77-10.822 9.633-28.384 13.742-29.13 13.918l-.885.197c.482 25.025 16.304 46.248 38.448 54.725 0 0-1.326.1-3.47.715-3.217-.17-6.52.383-9.602 1.937-2.5 1.264-61.48 31.794-73.957 104.028-1.774 10.377 5.193 20.247 15.575 22.038z"/></svg>