<svg xmlns="http://www.w3.org/2000/svg" viewBox="0 0 221.223 221.223"><path d="M62.923 152.21l13.688 9.18-10.067 6.966-3.62-16.147zm63.633 23.612l-64.33 44.512c-.87.6-1.86.89-2.842.89-1.586 0-3.146-.753-4.116-2.156l-44.512-64.33c-1.57-2.272-1.004-5.387 1.267-6.958l64.33-44.512c2.272-1.57 5.387-1.005 6.958 1.267l44.513 64.33c1.57 2.27 1.004 5.386-1.267 6.957zm-23.847-8.97l-44.622-29.927c-1.698-1.14-3.92-1.13-5.61.026-1.687 1.157-2.5 3.225-2.054 5.22l11.8 52.637c.522 2.326 2.587 3.907 4.875 3.907.36 0 .73-.04 1.098-.122 2.695-.604 4.39-3.278 3.785-5.973l-3.08-13.738 16.63-11.507 11.605 7.783c2.29 1.537 5.4.927 6.937-1.367 1.54-2.293.928-5.4-1.366-6.937zm113.085-104.14l-16.925 76.375c-.517 2.33-2.584 3.92-4.877 3.92-.358 0-.722-.04-1.086-.12L116.53 125.96c-2.696-.596-4.397-3.266-3.8-5.962l16.925-76.377c.597-2.695 3.267-4.4 5.963-3.8l76.376 16.926c2.698.6 4.4 3.27 3.8 5.965zm-31.86 5.968c-3.028-3.948-7.54-6.752-12.703-7.896l-.37-.083c-10.983-2.433-21.668 3.443-23.81 13.1l-5.803 26.194c-1.074 4.842.112 9.826 3.34 14.035 3.028 3.947 7.54 6.75 12.703 7.895l.37.083c1.68.372 3.35.55 4.987.55 9.066 0 17.01-5.468 18.822-13.65l.34-1.54c.598-2.697-1.103-5.367-3.8-5.964-2.69-.598-5.366 1.104-5.963 3.8l-.342 1.54c-.932 4.204-6.376 6.718-11.88 5.502l-.37-.082c-2.873-.637-5.335-2.135-6.934-4.22-1.398-1.823-1.936-3.877-1.513-5.785l5.805-26.194c.93-4.203 6.372-6.718 11.88-5.5l.37.08c2.873.638 5.336 2.136 6.934 4.22 1.398 1.824 1.935 3.878 1.512 5.786-.598 2.696 1.104 5.366 3.8 5.963 2.693.598 5.365-1.103 5.962-3.8 1.075-4.842-.11-9.826-3.34-14.035zM68.013 57.4c-.458-1.9-2.138-3.228-4.087-3.228-.33 0-.665.04-.993.12l-13.425 3.23 4.213 17.507 13.187-3.174c2.39-.575 3.867-2.987 3.292-5.377l-2.187-9.08zM47.15 47.726l10.644-2.562c.944-.227 1.744-.808 2.25-1.636s.66-1.804.434-2.748L58.55 32.77c-.343-1.432-1.802-2.357-3.27-2.002l-11.542 2.777 3.412 14.178zm61.784 35.943c-.692 1.13-1.806 1.94-3.095 2.25l-76.06 18.303c-.392.096-.786.14-1.173.14-2.258 0-4.306-1.54-4.857-3.83L5.448 24.472c-.646-2.685 1.007-5.385 3.69-6.03L85.2.138c1.287-.31 2.647-.098 3.78.596 1.13.692 1.94 1.806 2.25 3.095l18.302 76.06c.31 1.288.096 2.648-.596 3.778zM79.92 64.138l-2.185-9.077c-1.037-4.307-3.946-7.735-7.738-9.525.687-2.284.776-4.715.203-7.096l-1.927-8.008c-1.38-5.734-6.46-9.74-12.353-9.74-1 0-2.002.12-2.98.355l-16.403 3.947c-2.685.646-4.337 3.346-3.69 6.03l5.75 23.902.017.072 6.552 27.23c.552 2.293 2.6 3.832 4.857 3.832.387 0 .78-.045 1.174-.14l18.048-4.342c7.752-1.865 12.54-9.688 10.675-17.44z"/></svg>