<svg xmlns="http://www.w3.org/2000/svg" width="450.001" height="450.001" viewBox="0 0 450.001 450.001"><path d="M262.24 326.44c3.84 0 7.68-1.464 10.608-4.392 5.856-5.86 5.856-15.355 0-21.215l-6.96-6.957 6.96-6.96c5.856-5.856 5.856-15.354 0-21.212-5.857-5.857-15.355-5.86-21.214 0l-6.96 6.957-6.957-6.956c-5.855-5.86-15.354-5.857-21.212 0-5.86 5.857-5.86 15.355 0 21.213l6.957 6.96-6.957 6.956c-5.86 5.86-5.86 15.355 0 21.215 2.928 2.928 6.768 4.393 10.605 4.393 3.84 0 7.678-1.464 10.605-4.394l6.958-6.957 6.96 6.956c2.93 2.93 6.77 4.395 10.608 4.395z"/><circle cx="368.811" cy="375.27" r="35"/><path d="M435.988 259.016c-.646-2.7-2.386-5.015-4.804-6.383l-51.793-29.31c-4.8-2.717-10.9-1.03-13.623 3.772l-3.26 5.75c-1.308 2.31-1.645 5.044-.937 7.6.708 2.56 2.402 4.73 4.713 6.036l18.69 10.572c-19.457 7.367-37.625 18.21-54.194 32.363-19.646 16.78-37.14 38.244-52 63.795-21.918 37.69-31.426 72.475-33.818 82.236-.64 2.614-.2 5.38 1.223 7.664 1.424 2.287 3.708 3.9 6.338 4.48l7.818 1.727c.727.157 1.45.235 2.163.235 4.494 0 8.566-3.05 9.695-7.588 2.218-8.914 10.994-40.643 30.788-74.68 23.542-40.482 52.953-68.116 87.644-82.414l-11.186 16.78c-1.472 2.208-2.005 4.91-1.482 7.514.523 2.603 2.06 4.89 4.27 6.36l5.504 3.658c4.595 3.055 10.8 1.81 13.857-2.783l32.988-49.523c1.544-2.31 2.052-5.158 1.408-7.86zM242.813 181.527c0-8.563-6.94-15.506-15.505-15.506-20.162 0-30.706-11.268-44.056-25.534-9.412-10.058-19.145-20.46-32.983-27.1l-20.29-9.528-7.895-6.725c-.54-.462-1.34-.43-1.845.078l-12.508 12.57c-.507.522-.37 1.274-.37 1.274l12.142 81.42c.076.545-.08 1.095-.427 1.52l-11.484 14.032c-.376.46-.935.723-1.525.723-.59 0-1.15-.265-1.525-.724l-11.482-14.03c-.348-.427-.502-.977-.427-1.522l12.114-81.42s.138-.752-.368-1.275L91.87 97.21c-.502-.506-1.302-.54-1.843-.077l-7.896 6.725-21.265 10.11c-31.13 15.815-36.663 59.644-43.036 110.326-1.214 9.647-2.47 19.624-3.924 29.546-1.242 8.475 4.62 16.35 13.092 17.592.763.11 1.52.166 2.27.166 7.567 0 14.19-5.547 15.322-13.258 1.5-10.24 2.775-20.373 4.008-30.174 2.334-18.558 4.71-37.406 8.397-52.9l.016 65.86c0 8.435 2.964 15.948 7.742 22.226l.01 167.972c0 10.315 8.364 18.678 18.68 18.678 10.318 0 18.68-8.363 18.68-18.68l-.01-148.078c1.328.11 2.65.176 3.958.176 1.308 0 2.63-.063 3.957-.176l-.002 148.078c0 10.315 8.36 18.68 18.68 18.68 10.314 0 18.678-8.363 18.678-18.68l.002-167.97c4.778-6.276 7.742-13.79 7.742-22.227l.022-85.218c1.81 1.868 3.623 3.804 5.46 5.768 14.74 15.752 33.086 35.357 66.7 35.357 8.562 0 15.503-6.94 15.503-15.505zM106.07 95.888c22.68 0 39.61-21.136 39.994-56.577C146.308 14.718 134.597 0 106.07 0 77.54 0 65.825 14.717 66.072 39.31c.383 35.442 17.31 56.578 39.996 56.578z"/></svg>