<svg xmlns="http://www.w3.org/2000/svg" width="31.093" height="31.093" viewBox="0 0 31.093 31.093"><path d="M25.257 25.234H22.26V20.96H24.22l.844.98.818-.98h1.788v.06c-1.54.037-2.78 1.29-2.78 2.842 0 .5.14.966.367 1.372zm.13-1.373c0 1.3 1.052 2.353 2.352 2.353 1.297 0 2.35-1.053 2.35-2.352s-1.053-2.352-2.35-2.352c-1.3 0-2.354 1.054-2.354 2.353zm5.372 2.702h-1.893L28 27.602l-.895-1.04H25.027v4.53h5.863l-.13-4.53zM22.6 18.41c0 1.227.993 2.22 2.22 2.22 1.224 0 2.218-.993 2.218-2.22 0-1.225-.994-2.22-2.22-2.22-1.225 0-2.22.996-2.22 2.22zm-.413-.075c0-1.448 1.16-2.623 2.602-2.655l-.002-.056H23.116l-.768.918-.79-.918h-1.831v4h2.805c-.212-.386-.345-.817-.345-1.29zm-2.14-5.094c0 1.146.93 2.075 2.073 2.075s2.074-.93 2.074-2.074c0-1.145-.93-2.073-2.074-2.073s-2.074.93-2.074 2.074zM7.742 20.79h-.87l-.843.98-.82-.98H3.425v.06c1.54.036 2.78 1.29 2.78 2.842 0 .502-.142.967-.368 1.375h3v-4.275H7.742zm-6.74 2.9c0 1.3 1.054 2.353 2.352 2.353 1.3 0 2.352-1.053 2.352-2.352S4.654 21.34 3.355 21.34c-1.297 0-2.35 1.055-2.35 2.353zm3.907 2.703h-.92l-.895 1.04-.868-1.04H.335l-.132 4.53h5.864v-4.53H4.91zm-.853-8.153c0 1.225.994 2.22 2.22 2.22 1.225 0 2.22-.995 2.22-2.22 0-1.227-.995-2.22-2.22-2.22-1.226 0-2.22.994-2.22 2.22zm6.287-2.787h-.812l-.79.92-.766-.918H6.308v.055c1.44.033 2.6 1.207 2.6 2.656 0 .47-.133.902-.345 1.285h2.804v-3.997h-1.022zM6.897 13.07c0 1.147.93 2.075 2.074 2.075s2.075-.93 2.075-2.074-.93-2.073-2.074-2.073-2.073.93-2.073 2.074zM26.554 0H5.87v.726h20.685V0zm0 9.39H5.87v.726h20.685V9.39zM16.157 3.295c.866 0 1.502 1.868 1.502 2.662 0 .63-.372 1.196-.932 1.434v.316l-.04.024.005.123-1.008.112V7.81c-.037-.028-.064-.078-.064-.164v-.24c-.58-.23-.965-.8-.965-1.45 0-.793.633-2.66 1.502-2.66zm-1.29 2.662c0 .584.358 1.096.894 1.275l.073.024v.374c.017-.002.034-.002.054-.002l.52-.05c.058 0 .09 0 .11-.003v-.33l.068-.025c.514-.188.86-.697.86-1.263 0-.785-.61-2.45-1.29-2.45s-1.29 1.665-1.288 2.45zm1.826 1.98l-1.007.112v.074c-.01.04.003.092.012.12l.013.043.933-.104.045-.015.002-.046c.004-.014.007-.04.007-.126l-.004-.058zm-.914.51c.09.1.23.15.417.152h.006c.318 0 .43-.142.465-.263l.02-.077-.98.108.07.078zm3.876-2.763V5.35H18.3v.334h1.356zm-6.886 0h1.356V5.35H12.77v.334zm3.596-4.14h-.332V2.9h.332V1.544zm.87 1.67l.267.197.807-1.09-.268-.198-.807 1.09zm.684.914l.104.315 1.29-.427-.105-.315-1.29.428zm-4.843-.112l1.288.43.104-.317-1.287-.43-.106.316zm1.04-1.695l.806 1.092.268-.197-.806-1.09-.268.196zM2.77 4.427c.976 0 1.766-.79 1.766-1.765 0-.974-.79-1.764-1.766-1.764-.975 0-1.765.79-1.765 1.765 0 .976.79 1.766 1.765 1.766zm-.994 8.895l.007.116h.778V9.488h.444V13.435h.78l.006-.115.704.116H5.1v-.652l-.707-.155H4.27V8.79h.113l.163-3.183L7.7 4.563l-.273-.824-2.878.952H3.414l-.672.78-.652-.78H.668L.57 8.13h.605l.032.66H1.3v3.839h-.12l-.71.154v.652h.605l.703-.115z"/></svg>