<svg xmlns="http://www.w3.org/2000/svg" width="485.69" height="485.69" viewBox="0 0 485.69 485.69"><path d="M410.428 34.738h-76.405l5.155 23.852c.634 2.96.603 5.934.27 8.86h54.622v385.53H91.588V67.45h54.637c-.332-2.942-.348-5.915.285-8.892l5.156-23.82H75.248c-9.03 0-16.34 7.324-16.34 16.354v418.243c0 9.016 7.31 16.354 16.34 16.354h335.18c9.03 0 16.354-7.342 16.354-16.355V51.093c0-9.03-7.323-16.355-16.354-16.355z"/><path d="M355.568 152.95h-111.71c-9.047 0-16.355 7.323-16.355 16.34 0 9.034 7.31 16.354 16.355 16.354h111.71c9.047 0 16.354-7.32 16.354-16.355.002-9.017-7.307-16.34-16.354-16.34zM355.568 253.254h-111.71c-9.047 0-16.355 7.323-16.355 16.354 0 9.02 7.31 16.357 16.355 16.357h111.71c9.047 0 16.354-7.34 16.354-16.357.002-9.03-7.307-16.354-16.354-16.354zM119.556 156.792c-6.898 5.82-7.786 16.137-1.965 23.047l23.856 28.27c3.117 3.698 7.688 5.804 12.496 5.804.398 0 .792-.016 1.203-.047 5.22-.38 9.95-3.258 12.703-7.72l42.914-69.476c4.746-7.687 2.375-17.75-5.312-22.49-7.688-4.778-17.75-2.376-22.497 5.312l-31.066 50.273-9.3-11.012c-5.824-6.91-16.12-7.797-23.03-1.96zM158.72 245.094c-13.554 0-24.535 10.978-24.535 24.517 0 13.544 10.98 24.52 24.535 24.52 13.543 0 24.52-10.976 24.52-24.52 0-13.54-10.977-24.516-24.52-24.516zM355.568 351.36h-111.71c-9.047 0-16.355 7.308-16.355 16.357 0 9.017 7.31 16.34 16.355 16.34h111.71c9.047 0 16.354-7.323 16.354-16.34.002-9.05-7.307-16.358-16.354-16.358zM158.72 343.2c-13.554 0-24.535 10.976-24.535 24.52 0 13.538 10.98 24.52 24.535 24.52 13.543 0 24.52-10.98 24.52-24.52 0-13.544-10.977-24.52-24.52-24.52zM173.463 75.613h138.73c3.4 0 6.613-1.52 8.746-4.176 2.136-2.63 2.96-6.105 2.228-9.43L311.686 8.86C310.564 3.686 305.994 0 300.708 0H184.963c-5.28 0-9.852 3.688-10.977 8.86l-11.5 53.147c-.695 3.324.125 6.8 2.247 9.43 2.135 2.656 5.347 4.176 8.73 4.176z"/></svg>