<svg xmlns="http://www.w3.org/2000/svg" width="400" height="400" viewBox="0 0 400 400"><path d="M341.424 58.58C303.65 20.803 253.42 0 200 0S96.35 20.804 58.576 58.58C20.8 96.353 0 146.576 0 200s20.8 103.646 58.576 141.42C96.35 379.197 146.58 400 200 400s103.65-20.804 141.424-58.58C379.2 303.647 400 253.424 400 200S379.2 96.354 341.424 58.58zM200 366.38c-91.74 0-166.384-74.637-166.384-166.38S108.26 33.62 200 33.62 366.384 108.257 366.384 200 291.74 366.38 200 366.38z"/><path d="M138.802 306.204c-6.447-3.72-14.698-1.517-18.43 4.93-3.72 6.456-1.507 14.708 4.94 18.43 2.122 1.228 4.446 1.813 6.736 1.813 4.658 0 9.188-2.42 11.69-6.744 3.723-6.457 1.517-14.707-4.936-18.43zM131.806 95.758c2.298 0 4.632-.586 6.764-1.822 6.437-3.74 8.633-12 4.89-18.438-3.748-6.446-11.997-8.633-18.437-4.894-6.446 3.74-8.632 11.99-4.89 18.437 2.502 4.31 7.02 6.718 11.673 6.718zM75.34 143.814c2.12 1.217 4.438 1.804 6.726 1.804 4.66 0 9.2-2.418 11.694-6.753 3.72-6.446 1.506-14.697-4.94-18.418-6.456-3.73-14.706-1.516-18.428 4.938-3.722 6.457-1.506 14.7 4.948 18.43zM199.77 77.45h.016c7.452-.018 13.48-6.064 13.473-13.515-.022-7.452-6.065-13.48-13.518-13.46-7.453.008-13.48 6.055-13.462 13.505.01 7.443 6.045 13.47 13.49 13.47zM75.46 256.475c-6.446 3.73-8.642 11.98-4.9 18.43 2.503 4.313 7.033 6.725 11.685 6.725 2.297 0 4.62-.586 6.753-1.823 6.446-3.73 8.64-11.99 4.9-18.43-3.74-6.445-11.99-8.643-18.437-4.902zM77.45 200.14c-.01-7.452-6.055-13.478-13.505-13.47-7.45.01-13.48 6.055-13.47 13.497.01 7.452 6.046 13.48 13.49 13.48h.006c7.455-.01 13.49-6.057 13.48-13.506zM200.064 322.55c-7.44.01-13.48 6.046-13.48 13.496.01 7.452 6.05 13.49 13.5 13.48 7.45 0 13.49-6.048 13.48-13.5 0-7.44-6.044-13.477-13.5-13.477zM324.595 256.335c-6.444-3.73-14.693-1.526-18.427 4.92-3.73 6.447-1.525 14.698 4.92 18.43 2.133 1.228 4.457 1.812 6.744 1.812 4.66 0 9.19-2.408 11.684-6.735 3.732-6.446 1.526-14.698-4.92-18.427zM336.01 186.195c-7.45.02-13.48 6.075-13.46 13.525v.28c0 7.45 6.036 13.488 13.487 13.488 7.453 0 13.49-6.037 13.49-13.488v-.158-.186c-.018-7.45-6.067-13.47-13.517-13.46zM261.07 93.72c2.12 1.23 4.438 1.805 6.725 1.805 4.66 0 9.2-2.418 11.694-6.753 3.72-6.457 1.506-14.707-4.95-18.428-6.456-3.712-14.708-1.498-18.42 4.96-3.718 6.454-1.505 14.706 4.95 18.417zM261.312 306.14c-6.446 3.73-8.65 11.98-4.91 18.428 2.502 4.315 7.03 6.734 11.684 6.734 2.298 0 4.614-.586 6.743-1.82 6.446-3.73 8.642-11.982 4.913-18.43-3.733-6.448-11.985-8.652-18.43-4.91zM317.703 145.22c2.308 0 4.632-.597 6.77-1.834 6.44-3.75 8.627-12 4.878-18.437-3.74-6.448-12-8.625-18.437-4.885-6.44 3.74-8.625 12-4.884 18.437 2.502 4.307 7.022 6.717 11.673 6.717zM284.76 209.456l-70.833-4.83-7.07-103.745c-.244-3.568-3.212-6.34-6.79-6.34-3.58 0-6.543 2.772-6.79 6.34l-6.944 101.863-11.337-.773c-1.512-.104-3 .425-4.106 1.46-1.105 1.034-1.734 2.482-1.734 3.998V222.4c0 1.517.63 2.963 1.734 3.997 1.016.95 2.353 1.474 3.735 1.474.122 0 .246-.003.37-.01l9.67-.66-.697 10.208c-.126 1.88.53 3.73 1.817 5.105 1.286 1.378 3.087 2.16 4.973 2.16H209.396c3.757 0 6.803-3.046 6.803-6.804 0-.332-.872-12.766-.872-12.766l69.434-4.734c2.87-.196 5.1-2.58 5.1-5.458-.005-2.875-2.232-5.26-5.103-5.456z"/></svg>