<svg xmlns="http://www.w3.org/2000/svg" viewBox="0 0 487 487"><g fill="#010002"><path d="M171.984 255.096c26.698 11.924 68.62 14.04 68.62 14.04.936.02 1.853.025 2.773.03v.003l.123-.002h.125v-.002c.92-.005 1.842-.012 2.774-.03 0 0 41.92-2.116 68.616-14.04 0 0 3.815-.897 3.938-9.647 0 0-1.373-38.34-12.982-55.577 0 0-2.91-4.467-11.15-7.54 0 0-26.882-8.19-28.693-15.15 0 0-8.906 23.057-22.628 22.798-13.72.26-22.628-22.796-22.628-22.796-1.812 6.96-28.692 15.15-28.692 15.15-8.18 2.947-11.152 7.54-11.152 7.54-11.61 17.236-12.982 55.575-12.982 55.575.122 8.75 3.936 9.646 3.936 9.646zM213.896 139.823c1.975 16.585 16.23 33.76 29.152 33.76 14.865 0 28.97-18.09 31.187-33.76.813-.58 2.22-2.024 2.688-5.29 0 0 3.154-11.335-1.06-10.124 1.507-4.356 6.35-21.41-3.032-31.99 0 0-4.374-6.045-15.118-9.25-.428-.295-.77-.61-1.22-.926 0 0 .242.295.526.753-.568-.143-1.2-.285-1.832-.438-.59-.642-1.28-1.273-1.993-1.934 0 0 .673.66 1.425 1.81-.324-.08-.55-.192-.834-.213-.47-.763-1.078-1.496-1.854-2.25 0 0 .326.57.773 1.486-2.035-1.446-5.976-4.793-5.976-8.527 0 0-2.515 1.15-3.918 3.256-.604-.94-.083-2.046-.083-2.046-1.14.64-4.104 3.032-5.04 6.278l-.85-1.15c-1.73-1.984-4.773-.458-4.773-.458s-15.688 6.787-20.236 20.86c0 0-2.625 6.328.875 24.958-4.996-2.35-1.588 9.9-1.588 9.9.53 3.287 1.886 4.732 2.78 5.29z"/><path d="M351.355 19.76V0h-31.58v19.76H167.23V0h-31.563v19.76H69.732V487h347.535V19.76h-65.912zM87.867 468.93V37.84h47.802v25.275h31.562V37.84h152.584v25.275h31.54V37.84h47.82l.003 431.09H87.866z"/><path d="M129.797 407.922h184.038v18.314H129.797zM129.768 300.658h238.194v18.23H129.768zM129.77 337.31h220.164v18.333H129.77zM129.77 372.92h202.095v18.213H129.77z"/></g></svg>