<svg xmlns="http://www.w3.org/2000/svg" width="437" height="437" viewBox="0 0 437 437"><path d="M128.49 303.5h180.02c16.783 0-14.16-73.666-14.16-73.666-1.832-4.383-6.24-7.193-10.455-8.92l-28.467-13.107-13.677-11.532-21.975 21.856h-.017l9.482 63.397c.03.22-.02.44-.152.62l-9.914 13.57c-.16.216-.41.343-.68.343-.268 0-.52-.127-.676-.344l-9.917-13.57c-.13-.18-.184-.4-.15-.62l9.482-63.395h-.015l-21.974-21.855-13.677 11.532-28.466 13.107c-4.21 1.727-8.35 4.352-10.457 8.92.004 0-30.937 73.667-14.154 73.667zM218.5 202.135c21.713 0 50.84-27.127 51.335-72.615.315-31.566-14.718-50.456-51.335-50.456-36.618 0-51.656 18.89-51.335 50.456.493 45.488 25.923 72.615 51.335 72.615zm-10.32-59.938c26.547 2.827 49.694-34.302 49.318-1.058-.225 19.898-18.684 49.95-38.994 49.95-21.317 0-36.028-24.976-38.996-49.94-3.217-27.075 46.478-20.905 28.672 1.047z"/><path d="M417 29.59H20c-11.046 0-20 8.954-20 20v283.385c0 11.047 8.954 20 20 20h397c11.046 0 20-8.953 20-20V49.59c0-11.046-8.954-20-20-20zm-10 293.385H30V59.59h377v263.385zM0 384.782c0 6.102 4.946 11.05 11.047 11.05h106.366v-22.098H11.047C4.947 373.734 0 378.68 0 384.782zM425.952 373.734h-265.8v22.098h265.8c6.102 0 11.048-4.947 11.048-11.05 0-6.102-4.946-11.048-11.048-11.048zM138.786 362.154c-7.326 0-13.286 5.96-13.286 13.286v18.683c0 7.326 5.96 13.287 13.286 13.287 7.325 0 13.284-5.96 13.284-13.287V375.44c0-7.325-5.96-13.286-13.284-13.286z"/></svg>