<svg xmlns="http://www.w3.org/2000/svg" width="31.701" height="31.701" viewBox="0 0 31.701 31.701"><path d="M6.492 21.25l-2.724 7.717 4.937-1.647 2.808 4.38 2.758-7.81-2.62-2.283M25.21 21.25l-5.158.357-2.62 2.282 2.756 7.81 2.808-4.38 4.938 1.647M23.957 19.572l.32-4.617 3.04-3.49-3.04-3.49-.32-4.616-4.615-.32L15.852 0l-3.49 3.04-4.617.32-.32 4.617-3.038 3.49 3.038 3.49.32 4.615 4.617.32 3.49 3.036 3.49-3.037 4.615-.318zm-8.166-1.746c-3.545 0-6.42-2.875-6.42-6.42s2.874-6.422 6.42-6.422c3.548 0 6.423 2.876 6.423 6.422s-2.876 6.42-6.422 6.42z"/><path d="M13.667 8.69l.276 1.264 1.367-.643h.016v5.652h1.63V7.797h-1.394"/></svg>