<svg xmlns="http://www.w3.org/2000/svg" viewBox="0 0 24 24"><path fill-rule="evenodd" clip-rule="evenodd" d="M12 2C6.477 2 2 6.477 2 12c0 4.42 2.865 8.167 6.84 9.49.5.09.682-.218.682-.483 0-.237-.01-.866-.014-1.7-2.782.603-3.37-1.34-3.37-1.34-.454-1.156-1.11-1.464-1.11-1.464-.907-.62.07-.608.07-.608 1.004.07 1.532 1.03 1.532 1.03.892 1.53 2.34 1.088 2.91.832.09-.646.35-1.087.635-1.337-2.22-.252-4.555-1.11-4.555-4.942 0-1.092.39-1.984 1.03-2.683-.104-.253-.447-1.27.097-2.646 0 0 .84-.27 2.75 1.024.798-.222 1.653-.333 2.504-.337.85.004 1.706.115 2.505.337 1.91-1.294 2.747-1.025 2.747-1.025.546 1.376.202 2.392.1 2.645.64.7 1.028 1.592 1.028 2.683 0 3.842-2.338 4.687-4.566 4.935.36.31.68.92.68 1.852 0 1.337-.013 2.415-.013 2.743 0 .267.18.58.69.48 3.967-1.325 6.83-5.07 6.83-9.487 0-5.523-4.478-10-10-10z"/></svg>