<svg xmlns="http://www.w3.org/2000/svg" width="512" height="512" viewBox="0 0 512 512"><path d="M503.59 235c-.352-10.05-7.84-18.254-17.772-19.536l-7.84-1.02-101.188-74.57c-19.68-14.524-44.54-19.277-68.2-12.926-8.478 2.254-13.535 10.99-11.265 19.47 2.272 8.496 11.088 13.534 19.47 11.262 14.24-3.79 29.246-.992 41.135 7.792l60.74 44.76c-12.494.226-25.002 1.06-37.497 2.788-19.038 2.623-38.12 6.653-56.073 11.853l-9.617 1.89c-37.238 7.326-75.637 7.42-113.245.27l-10.852-2.013c-18.59-5.347-37.69-9.377-56.74-12-12.496-1.73-25.01-2.563-37.504-2.787l60.746-44.76c11.885-8.768 26.89-11.565 41.133-7.793 8.43 2.29 17.194-2.752 19.468-11.26 2.27-8.48-2.78-17.218-11.263-19.472-23.644-6.365-48.505-1.6-68.198 12.927L37.82 214.457l-7.79 1.007c-9.966 1.282-17.44 9.506-17.775 19.537l-.64 17.743c-.272 8.526 4.734 16.3 11.697 18.954 2.975 1.555 4.896 4.16 5.086 6.977l2.272 33.47c4 40.394 37.546 71.624 78.038 72.662l37.293.976c27.836 0 53.32-14.188 68.328-38.202l30.09-52.843c2-2.99 7.52-4.063 12.495-4.063l2.224-.03c4.77 0 10.4 1.28 12 3.63l30.54 53.593c14.846 23.73 40.33 37.916 68.166 37.916l37.276-.976c40.49-1.038 74.04-32.27 78.072-72.902l2.254-33.23c.19-2.814 2.1-5.42 4.27-6.623 7.76-3.007 12.786-10.78 12.496-19.324l-.62-17.727zm-95.397 10.878c5.66 0 10.624.286 14.783.848 13.437 1.808 27.26 10.673 27.868 26.397l1.358 34.25c.463 11.698-3.692 22.88-11.66 31.52-7.97 8.605-18.78 13.614-30.46 14.064 0 0-29.263 1.12-30.892 1.15-53.327 0-68.428-53.18-69.033-55.34-2.5-9.95-.72-20.588 4.896-29.194 5.63-8.642 14.65-14.576 24.763-16.303 29.213-4.977 51.58-7.392 68.377-7.392zM136.736 354.105c-1.728-.03-30.972-1.15-30.972-1.15-11.693-.448-22.51-5.457-30.478-14.062-7.965-8.642-12.126-19.822-11.663-31.52l1.36-34.25c.61-15.726 14.432-24.59 27.87-26.398 16.558-2.206 44.14-.112 83.157 6.544 10.112 1.726 19.132 7.66 24.767 16.284 5.612 8.624 7.39 19.26 4.91 29.118-.624 2.256-15.724 55.433-68.95 55.433z"/></svg>