<svg xmlns="http://www.w3.org/2000/svg" width="552.956" height="552.956" viewBox="0 0 552.956 552.956"><path d="M532.662 253.583c-.09-7.49-.457-14.934-1.173-22.263-2.376-24.42-8.21-47.823-16.96-69.77-.648-1.637-1.256-3.287-1.936-4.904-11.673-27.54-28.04-52.61-48.064-74.252-1.308-1.412-2.656-2.802-3.983-4.172-3.806-3.934-7.667-7.767-11.71-11.447C403.3 25.307 342.782 0 276.48 0c-66.876 0-127.81 25.762-173.49 67.872-10.633 9.812-20.424 20.525-29.293 31.983-33.47 43.298-53.456 97.53-53.456 156.38 0 138.69 110.795 251.928 248.52 256.042v14.905h-21.82v8.603h-83.254v17.17h225.596v-17.17h-67.545v-8.603H299.91V511.37c89.4-8.147 165.642-62.398 204.728-138.723 9.067-17.722 16.164-36.63 20.922-56.438 1.2-5.007 2.252-10.063 3.15-15.19 2.584-14.543 4.004-29.505 4.004-44.786.01-.892-.052-1.764-.052-2.65zM484.43 151.178l1.5-1.667c1.95 3.785 3.775 7.635 5.493 11.528l-2.428-.096-4.565.635v-10.4zm-37.034-44.715l.046-11.442c4.043 4.27 7.9 8.658 11.62 13.213l-4.622 6.87-16.137-.147-1.01-3.36 10.103-5.133zM138.29 78.02l.007-.432h5.132l.45-1.753h8.397V79.5l-2.412 3.226H138.29V78.02zm13.793 15.683l-11.578.722-2.204-2.632 8.21-2.342s5.135-.874 5.578-.874c.44 0-.005 5.127-.005 5.127zm348.665 97.464H482l-11.42-8.506-12.02 1.166v7.34h-3.815l-4.097-2.93-20.828-5.277v-13.49l-26.386 2.053-8.175 4.39h-10.483l-5.146-.514-12.722 7.06v13.29l-25.998 18.76 2.156 8.01h5.275l-1.38 7.63-3.708 1.362-.187 19.942 22.463 25.584h9.778l.593-1.55h17.573l5.066-4.7h9.986l5.468 5.465 14.85 1.556-1.96 19.756 16.506 29.127-8.69 16.597.585 7.825 6.846 6.818v18.792l8.975 12.075v15.628h7.76c-43.156 53.013-108.87 86.944-182.385 86.944-129.672 0-235.154-105.49-235.154-235.153 0-32.645 6.707-63.755 18.778-92.03l.01 13.388 9.765 4.695v18.603l9.37 15.986 7.614 1.167.98-5.482-8.99-13.866-1.758-13.478h5.268l2.218 13.87 12.996 18.955-3.363 6.124 8.266 12.635L123 241.867v-3.32l8.21 1.172-.78 5.86 6.45 1.176 9.965 2.72 14.068 16.02 17.972 1.352 1.758 14.643-12.298 8.603-.583 13.1-1.76 8.018 17.79 22.283 1.357 7.616s6.448 1.755 7.245 1.755c.78 0 14.464 10.365 14.464 10.365v40.252l4.88 1.357-3.318 18.56 8.208 10.955-1.52 18.404 10.85 19.067 13.92 12.146 13.994.274 1.375-4.515-10.288-8.662.593-4.295 1.844-5.27.387-5.385-6.95-.187-3.51-4.41 5.772-5.564.78-4.193-6.45-1.83.38-3.898 9.19-1.402 13.974-6.697 4.69-8.612 14.67-18.757-3.333-14.665 4.503-7.824 13.475.41 9.082-7.185 2.934-28.3 10.07-12.783 1.75-8.223-9.183-2.94-6.042-9.94-20.716-.207-16.43-6.25-.78-11.72-5.48-9.57-14.853-.22-8.577-13.474-7.622-3.72-.385 4.105-13.874.817-5.074-7.064-14.475-2.946-11.912 13.8-18.76-3.173-1.37-21.134-13.682-2.343 5.493-10.372-1.57-5.955-17.992 12.025-11.325-1.38-4.035-8.84 2.465-9.118 6.243-11.494 14.362-7.272 27.734-.01-.072 8.46 9.973 4.633-.796-14.464 7.19-7.228 14.5-9.53.988-6.695 14.46-15.06 15.376-8.513-1.353-1.122 10.412-9.8 3.812 1.01 1.75 2.19 3.956-4.38.966-.434-4.334-.616-4.392-1.458v-4.214l2.332-1.91h5.138l2.347 1.037 2.028 4.102 2.494-.375v-.358l.71.246 7.21-1.11 1.02-3.52 4.114 1.032v3.817l-3.813 2.626h.012l.555 4.18 13.073 4.028s.01.053.033.154l2.99-.246.207-5.66-10.352-4.712-.582-2.716 8.583-2.928.37-8.22-8.976-5.468-.595-13.858-12.308 6.046h-4.497l1.185-10.55-16.754-3.956-6.935 5.245v15.977l-12.47 3.957-4.998 10.41-5.417.873v-13.32l-11.718-1.63-5.855-3.808-2.364-8.64 20.962-12.26 10.26-3.128 1.037 6.892 5.71-.3.442-3.465 5.974-.855.112-1.215-2.573-1.064-.593-3.667 7.352-.616 4.438-4.622.24-.336.05.017 1.35-1.39 15.443-1.95 6.833 5.794-17.91 9.543 22.787 5.374 2.95-7.617h9.945l3.53-6.638-7.043-1.763v-8.405l-22.077-9.775-15.237 1.76-8.6 4.492.59 10.942-8.99-1.373-1.395-6.053 8.61-7.818-15.625-.783-4.49 1.36-1.956 5.267 5.855.998-1.166 5.85-9.958.594-1.557 3.902-14.45.402s-.402-8.203-.98-8.203 11.33-.197 11.33-.197l8.61-8.416-4.695-2.353-6.25 6.075-10.373-.588-6.25-8.602h-13.29l-13.868 10.362h12.708l1.157 3.72-3.3 3.064 14.07.39 2.153 5.08-15.842-.587-.77-3.907-9.967-2.15-5.273-2.925-11.86.09c38.817-28.273 86.547-45.012 138.148-45.012 59.466 0 113.792 22.222 155.248 58.75l-2.802 4.993-10.85 4.252-4.557 4.96 1.05 5.79 5.6.777 3.385 8.434 9.646-3.89 1.605 11.274h-2.92l-7.917-1.166-8.777 1.48-8.52 12.01-12.152 1.908-1.764 10.416 5.135 1.21-1.48 6.697-12.092-2.433-11.075 2.433-2.348 6.167 1.917 12.94 6.515 3.04 10.897-.06 7.356-.667 2.25-5.86 11.52-14.955 7.56 1.546 7.465-6.742 1.39 5.27 18.36 12.378-2.238 3.017-8.283-.446 3.184 4.51 5.076 1.122 5.97-2.49-.125-7.187 2.66-1.327-2.14-2.26-12.23-6.824-3.227-9.072h10.165l3.255 3.223 8.772 7.557.368 9.135 9.082 9.677 3.376-13.26 6.304-3.44 1.17 10.848 6.17 6.742 12.252-.213c2.36 6.105 4.506 12.318 6.355 18.644l-1.29 1.193zm-340.75-74.753l6.153-2.925 5.566 1.326-1.917 7.474-6.007 1.914-3.794-7.79zm32.673 17.59v4.84H178.61l-5.267-1.464 1.317-3.376 6.76-2.79h9.232v2.79h2.02zm6.464 6.744v4.692l-3.516 2.27-4.385.81v-7.772h7.9zm-3.962-1.904v-5.576l4.84 4.405-4.84 1.17zm2.203 11.275v4.565l-3.37 3.374h-7.468l1.17-5.128 3.535-.303.723-1.76 5.41-.75zm-18.615-9.372h7.762l-9.96 13.927-4.112-2.203.892-5.86 5.418-5.864zm31.81 7.773v4.55h-7.468l-2.047-2.945v-4.233h.588l8.927 2.63zm-6.9-6.265l2.138-2.23 3.59 2.23-2.873 2.37-2.855-2.37z"/></svg>