<svg xmlns="http://www.w3.org/2000/svg" viewBox="0 0 24 24"><path fill-rule="evenodd" clip-rule="evenodd" d="M11.66 13.854l-.848-.698c-.122-.122-.248-.265-.378-.428-.153-.17-.23-.387-.23-.65 0-.268.076-.505.224-.71.126-.195.264-.37.413-.525.262-.228.507-.453.738-.673.208-.22.406-.46.592-.722.38-.538.577-1.256.592-2.154 0-.49-.055-.918-.165-1.285-.133-.368-.286-.686-.46-.955-.18-.286-.364-.526-.552-.722-.196-.188-.373-.33-.53-.428h1.54L14.14 3H9.143c-.663 0-1.374.078-2.132.232-.765.18-1.503.563-2.213 1.15-1.034 1.004-1.552 2.122-1.552 3.354 0 1.02.365 1.913 1.095 2.68.697.824 1.71 1.244 3.04 1.26.252 0 .52-.016.804-.05l-.153.43c-.062.15-.093.333-.093.555 0 .37.082.686.247.95.14.27.3.524.482.762-.583.016-1.316.09-2.198.22-.89.155-1.74.464-2.55.928-.72.43-1.218.932-1.493 1.502-.283.57-.425 1.087-.425 1.552 0 .953.436 1.77 1.307 2.455.863.732 2.17 1.106 3.92 1.123 2.09-.033 3.69-.534 4.8-1.505 1.068-.938 1.603-2.015 1.603-3.23-.015-.858-.21-1.55-.584-2.082-.397-.522-.86-1-1.386-1.432zm-3.123-2.86c-.52 0-.984-.16-1.388-.48-.406-.318-.736-.706-.992-1.164-.53-.98-.794-1.926-.794-2.833-.016-.687.165-1.308.543-1.864.45-.53 1.012-.805 1.69-.822.51.017.964.17 1.358.455.386.302.697.695.933 1.177.504 1.006.756 2.003.756 2.992 0 .23-.018.51-.054.846-.06.335-.196.662-.408.98-.44.45-.987.688-1.645.713zm2.577 9.275c-.62.505-1.52.766-2.697.782-1.313-.016-2.347-.31-3.103-.88-.796-.572-1.193-1.3-1.193-2.18 0-.45.092-.832.275-1.15.16-.303.354-.556.585-.76.24-.196.473-.347.704-.453.23-.1.41-.172.537-.22.542-.164 1.07-.282 1.588-.356.525-.05.85-.065.98-.05.214 0 .4.01.56.025.93.652 1.615 1.203 2.053 1.652.415.473.622 1.028.622 1.665 0 .783-.303 1.424-.908 1.922zM22 12.247h-2.752V15h-1.495v-2.752H15v-1.495h2.752V8h1.495v2.752H22v1.496z"/></svg>