<svg xmlns="http://www.w3.org/2000/svg" viewBox="0 0 395 395"><path d="M313 0H82C36.784 0 0 36.784 0 81.998V312.99C0 358.21 36.785 395 82 395h231c45.216 0 82-36.79 82-82.01V82C395 36.784 358.216 0 313 0zm67 312.99c0 36.95-30.055 67.01-67 67.01H82c-36.944 0-67-30.06-67-67.01V82C15 45.056 45.056 15 82 15h231c36.945 0 67 30.056 67 66.998V312.99z"/><path d="M71.52 315.394c0 7.723 6.26 13.982 13.983 13.982h89.86c7.722 0 13.982-6.26 13.982-13.982v-83.257H71.52v83.257zm86.87-46.46c0-4.183 3.39-7.573 7.573-7.573s7.573 3.392 7.573 7.574v10.643c0 4.182-3.39 7.572-7.573 7.572-4.182 0-7.573-3.392-7.573-7.573v-10.643zM171.847 75.89c-1.672-6.064-7.188-10.266-13.48-10.266h-44.983c-5.258 0-10.098 2.91-12.485 7.596-2.388 4.685-1.973 10.274 1.117 14.528.083.118 8.316 11.96 9.286 28.262 1.262 21.224-10.176 40.725-33.996 57.962-3.634 2.63-5.786 6.843-5.786 11.328v23.528h117.826v-67.574c0-1.256-.17-2.506-.503-3.716L171.847 75.89zM317.694 173.972c-23.82-17.237-35.26-36.738-33.997-57.962.97-16.303 9.203-28.144 9.23-28.186 3.09-4.255 3.533-9.882 1.146-14.566s-7.2-7.634-12.458-7.634h-44.982c-6.292 0-11.808 4.2-13.48 10.267l-16.995 61.648c-.333 1.21-.503 2.46-.503 3.716v67.574H323.48V185.3c0-4.486-2.152-8.698-5.786-11.328zM205.655 315.394c0 7.723 6.26 13.982 13.983 13.982h89.86c7.722 0 13.982-6.26 13.982-13.982v-83.257H205.655v83.257zm15.81-46.46c0-4.183 3.39-7.573 7.572-7.573s7.572 3.392 7.572 7.574v10.643c0 4.182-3.392 7.572-7.573 7.572-4.183 0-7.573-3.392-7.573-7.573v-10.643z"/></svg>