<svg xmlns="http://www.w3.org/2000/svg" viewBox="0 0 70.013 70.013"><path d="M69.92 15.36c-2.632-3.692-6.538-5.81-10.718-5.81-2.562 0-5.07.82-7.258 2.37-2.588 1.835-4.473 4.537-5.53 7.598-.854-2.68-2.534-5.016-4.863-6.444-1.517-.93-3.224-1.422-4.937-1.422-3.38 0-6.568 1.87-8.527 5.005-.108.173-.1.395.02.56s.328.24.527.19c2.04-.518 4.258-.473 6.4.13.143.04.292.018.414-.064.122-.08.202-.212.22-.357l.078-.665.85 1.527c.053.096.136.17.235.215.7.307 1.27.6 1.79.92.42.256.856.56 1.334.926.145.11.34.135.504.062.167-.072.28-.23.3-.41l.048-.513.715 2.172c.024.07.064.138.117.19 1.143 1.173 2.09 2.532 2.843 3.987-1.983-2.2-4.676-3.535-7.54-3.535-.61 0-1.228.06-1.836.178-1.32.258-2.55.786-3.65 1.528-1.775-1.432-3.9-2.234-6.137-2.234-1.975 0-3.91.632-5.595 1.827-1.9 1.35-3.306 3.306-4.137 5.53-.687-1.935-1.938-3.61-3.642-4.655-1.175-.72-2.496-1.1-3.82-1.1-2.617 0-5.082 1.445-6.596 3.866-.108.174-.1.396.02.56.12.166.328.242.527.19 1.534-.39 3.202-.354 4.812.1.14.04.29.016.413-.065s.2-.212.218-.357l.018-.14.468.84c.053.096.136.17.235.215.527.23.955.45 1.347.69.324.2.653.43 1.006.7.145.11.34.134.504.063.124-.055.22-.156.268-.28l.38 1.158c.024.072.064.14.117.192.67.688 1.257 1.46 1.753 2.284-1.458-1.345-3.3-2.143-5.244-2.143-.472 0-.95.047-1.42.138-4.107.8-7.093 4.983-6.944 9.73.007.213.148.398.354.46.048.017.098.023.146.023.157 0 .31-.074.404-.206 1.053-1.452 2.45-2.647 4.037-3.458.244-.125.343-.424.22-.67l-.162-.322.973.4c.114.045.237.05.354.01.56-.194 1.03-.326 1.485-.415.367-.07.762-.123 1.207-.16.168-.012.317-.11.398-.257.08-.148.082-.327.003-.476l-.054-.1 1.063.748c.073.052.158.083.247.09 1.356.11 2.665.49 3.85 1.103l-3.634 22.308c-.023.145.018.292.112.404.095.11.234.176.38.176h7.755c.14 0 .273-.06.368-.16.095-.104.143-.24.13-.38l-.614-7.496c3 1.503 7.272 2.417 12.178 2.417 3.955 0 7.495-.598 10.294-1.614l-1.084 6.653c-.023.145.018.292.112.404.095.11.234.176.38.176H51.114c.276 0 .5-.224.5-.5 0-.063-.01-.123-.032-.18l-1.147-13.986c-.012-.143-.084-.273-.198-.36-.115-.085-.264-.116-.4-.088l-2.098.436c.553-.857 1.4-2.164 2.3-3.526.062-.094.09-.205.08-.316l-.94-11.458c1.247-.97 2.646-1.743 4.152-2.24.08-.027.153-.075.21-.138l1.494-1.632-.19.614c-.05.165-.012.346.102.476s.287.196.457.165c.557-.09 1.063-.145 1.547-.17.61-.028 1.214-.006 1.954.065.127.007.24-.02.337-.09l1.376-.976-.212.748c-.037.13-.02.27.05.388s.182.202.313.234c2.165.525 4.183 1.59 5.835 3.082.156.142.385.17.572.07.186-.102.29-.308.257-.517-.9-5.892-5.457-10.152-10.74-9.873-1.466.07-2.854.498-4.11 1.196l.766-2.862.22 1.457c.028.18.15.332.323.395.17.063.363.026.5-.094.616-.54 1.18-.99 1.726-1.377.683-.483 1.425-.932 2.337-1.408.096-.05.172-.13.22-.228l1.246-2.59.24 1.376c.025.146.113.272.24.347s.282.087.42.038c2.848-1.024 5.817-1.3 8.608-.802.198.035.4-.052.51-.224.106-.17.1-.39-.018-.556zM20.462 30.736l.363-1.354.082.542c.027.18.15.333.322.396.06.022.124.018.187.016-.327.112-.646.244-.955.4zm1.213-.483c.018-.012.04-.013.056-.027.462-.404.888-.745 1.305-1.04.514-.364 1.074-.703 1.767-1.064.095-.05.172-.13.218-.227l.788-1.637.12.683c.025.146.113.272.24.347.128.074.283.088.42.038.588-.21 1.183-.372 1.78-.498-.752 1.113-1.34 2.368-1.728 3.72-1.004-.438-2.098-.66-3.24-.6-.595.028-1.17.138-1.725.306zm9.53 21.59c-6.094 0-10.484-1.49-12.48-3.096l-.917-11.17c.926-.713 1.96-1.282 3.074-1.65.08-.025.154-.073.212-.136l.78-.853c-.034.154.006.318.11.438.114.13.28.195.46.165.42-.068.802-.11 1.163-.128.5-.023.987 0 1.47.05.118.006.24-.022.337-.09l.72-.512c.004.023.015.042.022.063l-.04.146c-.038.13-.02.27.05.387s.18.202.312.234c1.63.396 3.148 1.197 4.39 2.32.157.14.386.17.573.068.187-.1.29-.307.258-.516-.303-1.985-1.144-3.73-2.336-5.047.92-.798 1.93-1.487 3.01-2.038.244-.125.343-.424.22-.67l-.4-.8 1.664.686c.113.047.237.05.354.01.746-.258 1.373-.433 1.974-.55.495-.096 1.02-.165 1.603-.21.168-.014.318-.11.4-.26s.08-.326.002-.475l-.38-.708 1.93 1.36c.074.053.16.084.25.09 1.84.15 3.613.68 5.214 1.526l-3.14 19.288c-2.356 1.167-6.09 2.08-10.86 2.08z" fill="#231F20"/></svg>