<svg xmlns="http://www.w3.org/2000/svg" width="433.325" height="433.325" viewBox="0 0 433.325 433.325"><path d="M353.978 64.246C334.905 40.386 285.368 0 220.67 0 177.414 0 136.25 18.085 98.33 53.753c-.065.062-.13.124-.19.188-36.982 38.044-32.15 73.186-26.03 117.7.376 2.738.758 5.515 1.136 8.332 1.014 7.565-5.607 19.235-12.01 30.522-9.624 16.958-19.573 34.493-7.418 42.777 20.77 14.157 24.38 42.02 27.873 68.98.83 6.4 1.687 13.02 2.76 19.458 1.85 11.104 11.218 16.5 28.64 16.5 7.748 0 16.02-.955 24.028-1.88 6.86-.794 13.342-1.543 18.53-1.543 2.9 0 5.166.232 6.925.708 20.933 5.673 39.22 48 45.83 73.345.537 2.06 2.122 3.677 4.167 4.258.54.153 1.092.23 1.64.23 1.52 0 3.01-.58 4.142-1.66l107.29-102.395c1.66-1.583 2.27-3.978 1.573-6.165-9.473-29.64 10.213-58.567 27.586-84.1 7.583-11.142 14.743-21.664 19.64-32.028 22.59-47.81 6.317-109.222-20.462-142.73zm-151.18 87.496h-47.203c-10.597 0-19.22-8.622-19.22-19.222V84.453c0-10.6 8.623-19.222 19.22-19.222h52.688l-8.34 13.554h-44.35c-3.123 0-5.666 2.542-5.666 5.67v48.066c0 3.128 2.544 5.67 5.667 5.67h49.762L202.8 151.74zm8.77 22.64c-.385.617-.948.952-1.52.952-.297 0-.596-.088-.876-.272-.82-.54-1.246-1.76-1.023-2.938l8.99-47.655-25.873-8.517c-.65-.212-1.172-.852-1.385-1.69-.212-.84-.083-1.763.34-2.45l42.608-69.222c.58-.94 1.574-1.223 2.393-.678.822.542 1.248 1.765 1.023 2.938l-9.035 47.637 25.872 8.515c.65.215 1.17.852 1.384 1.69.213.84.083 1.763-.34 2.45l-42.56 69.24zm104.808-55.478c0 2.182-1.77 3.948-3.95 3.948h-4.454v9.668c0 10.6-8.62 19.222-19.22 19.222H236.09l8.33-13.553h44.333c3.123 0 5.666-2.542 5.666-5.67V84.453c0-3.126-2.544-5.67-5.667-5.67h-49.746l2.57-13.552h47.176c10.596 0 19.22 8.623 19.22 19.223v9.668h4.452c2.182 0 3.95 1.77 3.95 3.952v20.832z"/></svg>