<svg xmlns="http://www.w3.org/2000/svg" width="29.535" height="29.535" viewBox="0 0 29.535 29.535"><path d="M12.646 10.335l-2.42 12.694L0 24.543l13.643 4.896 12.146-1.632 3.745-15.817-16.89-1.655zm-2.4 17.195L6.9 26.253l1.612-.217 3.757 1.256-2.023.238zm14.434-1.05l-13.512-3.82 2.17-11.21 14.496 1.705L24.68 26.48zM8.535 9.507h1.61v1.532h-1.61V9.506zm.42-2.152H7.336c.015-.24.064-.482.147-.717.082-.233.208-.443.378-.63.17-.185.39-.336.655-.45.266-.117.59-.176.97-.176.377 0 .695.05.953.152.258.1.467.23.627.386.16.158.278.33.352.52.074.187.116.367.127.537 0 .237-.032.43-.093.576s-.143.27-.244.368c-.1.1-.212.18-.336.245l-.38.197c-.087.047-.16.093-.216.14-.057.046-.102.094-.132.145-.03.052-.052.11-.066.18-.013.065-.02.142-.02.23H8.63c-.006-.077-.01-.173-.01-.293 0-.123.017-.25.048-.378.03-.13.084-.257.162-.38.078-.122.19-.226.34-.31.062-.032.135-.065.218-.1.083-.035.16-.075.236-.12.073-.044.137-.097.19-.157.05-.063.076-.138.076-.226 0-.265-.148-.396-.448-.396-.186 0-.318.067-.395.2-.078.136-.11.288-.093.457zM17.94 18.83l1.802 1.217-1.158 1.715-1.803-1.218 1.16-1.715zm5.55-2.103c.06.297.06.58.002.85-.06.266-.148.5-.266.696-.18.268-.357.458-.54.575-.182.118-.362.193-.553.228-.186.037-.372.04-.56.02-.19-.02-.38-.043-.575-.063-.133-.017-.248-.02-.35-.01-.098.01-.183.03-.257.064-.073.036-.144.084-.208.15-.063.063-.13.145-.197.242l-1.604-1.083c.054-.09.124-.2.216-.336.094-.137.207-.267.338-.387.133-.122.29-.222.47-.302.182-.08.387-.11.616-.09.09.013.197.03.316.052s.238.037.354.045c.117.008.23-.004.332-.035.104-.03.19-.094.258-.19.197-.297.133-.557-.203-.783-.207-.14-.406-.165-.596-.072-.187.09-.337.24-.446.44l-1.812-1.226c.2-.257.437-.49.707-.69.27-.2.567-.34.9-.42.33-.078.687-.082 1.073-.01.385.07.793.25 1.22.537.423.285.74.582.952.89.214.306.35.61.415.907zm-22.4 2.888l-.91-.073.077-.955.91.073-.077.955zm1.704-.283c.01-.11-.024-.192-.1-.246-.076-.053-.165-.078-.268-.077l.08-.962c.143.02.28.062.418.123.134.06.253.147.356.257.1.108.18.246.236.41.056.163.076.358.057.586-.018.224-.065.41-.135.56-.073.146-.16.267-.26.353-.103.09-.212.15-.327.186-.114.035-.222.054-.325.052-.14-.014-.253-.04-.337-.084-.085-.043-.153-.1-.208-.162-.052-.064-.096-.136-.13-.213-.03-.078-.063-.154-.097-.232-.023-.057-.047-.102-.072-.137-.024-.04-.05-.066-.08-.086-.03-.023-.064-.04-.102-.05-.04-.01-.086-.02-.138-.022l.07-.85c.046 0 .104 0 .175.007.074.006.148.02.223.047.075.025.147.062.217.115.07.054.126.123.167.217.016.04.033.082.05.135.017.05.038.1.06.145.023.05.052.088.086.12.033.035.076.056.13.06.156.01.24-.073.256-.253zM25.117 6.675l.254.878-.922.266-.253-.88.922-.265zm-1.963-.77c-.03-.14-.043-.287-.033-.435.01-.148.048-.29.112-.424.068-.134.168-.256.303-.367.13-.11.31-.198.525-.26.215-.063.405-.086.57-.072.163.015.307.056.424.12.116.062.213.142.286.24.072.095.127.19.162.285.04.137.054.252.04.347-.01.094-.036.177-.077.25-.04.074-.092.137-.153.196-.062.057-.12.114-.185.175-.043.04-.078.08-.103.117-.024.034-.043.07-.05.104-.01.036-.015.074-.01.115.003.04.01.085.026.135l-.82.236c-.016-.043-.033-.1-.053-.166-.02-.072-.033-.147-.037-.227-.002-.078.008-.16.03-.243.024-.085.073-.16.146-.233.03-.03.066-.06.107-.095.04-.034.078-.068.115-.106.035-.038.062-.078.082-.123.02-.043.02-.09.008-.14-.043-.152-.15-.202-.322-.154-.105.03-.17.092-.193.18-.02.09-.016.183.023.277l-.922.268zm-5.136 2.83l.557.056-.053.532-.556-.056.052-.53zm.22-.728l-.56-.054c.01-.084.037-.165.072-.243.037-.08.088-.147.153-.206.062-.058.146-.105.242-.135.097-.032.21-.04.342-.027.13.013.238.04.322.084.085.042.153.095.204.155.05.06.084.124.104.19.02.07.025.13.025.19-.008.084-.025.148-.054.197-.027.05-.06.088-.097.12-.04.028-.08.052-.125.07-.045.02-.093.037-.14.057-.03.014-.06.026-.08.04-.02.016-.037.03-.05.047-.013.017-.02.037-.027.06-.008.024-.012.05-.014.08l-.494-.048c0-.028.002-.062.008-.103.004-.044.014-.086.027-.13s.04-.086.07-.126c.03-.04.073-.072.128-.097l.078-.028c.03-.01.06-.02.086-.032.025-.013.05-.03.07-.05.02-.02.03-.044.033-.074.01-.09-.04-.14-.143-.152-.064-.006-.113.014-.145.057-.028.044-.04.097-.037.157zm-3.158 12.01c.02.068.027.13.025.188-.008.084-.024.147-.05.197-.028.05-.06.09-.1.118-.038.03-.08.056-.124.073-.045.02-.09.036-.137.057-.032.012-.06.025-.08.04-.02.017-.038.028-.05.046-.013.02-.023.04-.03.06-.006.024-.01.052-.015.08l-.495-.048c0-.027.004-.062.008-.104.005-.043.014-.086.03-.13.014-.042.037-.084.068-.125.032-.042.074-.073.13-.096.022-.01.048-.02.077-.028.03-.01.058-.02.086-.032.028-.014.052-.028.072-.05.02-.02.03-.045.034-.073.008-.09-.04-.14-.142-.152-.066-.006-.113.015-.145.058-.032.044-.048.098-.048.155l-.56-.054c.012-.084.038-.166.074-.242.036-.08.09-.147.153-.207s.144-.104.24-.135c.096-.03.21-.04.342-.026.132.012.24.04.324.084.087.044.154.094.204.155.05.06.087.125.11.19zm-1.107.963l.558.056-.05.528-.557-.054.05-.53zM3.407 4.02l-.562-.054c.013-.083.04-.163.075-.242.038-.078.088-.147.153-.207.064-.058.145-.104.24-.134.097-.03.21-.04.343-.027.13.013.24.04.327.085.085.043.153.095.203.156.05.06.084.123.104.19.02.07.027.13.026.194-.008.08-.026.146-.052.196-.027.048-.06.087-.097.12-.038.027-.08.05-.125.07l-.138.056c-.032.014-.06.026-.08.04-.02.016-.04.03-.05.047-.012.016-.022.036-.03.06-.006.02-.01.05-.014.076L3.234 4.6c.002-.027.004-.06.01-.103.003-.043.012-.085.027-.13.017-.042.04-.084.07-.125.03-.04.073-.07.13-.096l.076-.027c.03-.01.058-.022.087-.035.027-.012.05-.03.07-.05.02-.017.03-.043.034-.073.01-.092-.037-.142-.14-.153-.066-.007-.114.012-.145.056-.03.044-.046.096-.045.155zm-.22.73l.558.056-.053.53-.557-.055.053-.53zm1.378 10.56l-1.392.4-.38-1.324 1.39-.4.382 1.324zM1.22 12.824c-.05-.215-.063-.432-.053-.655.015-.225.07-.437.173-.64.098-.203.252-.39.452-.556.202-.167.468-.296.798-.393.325-.093.612-.126.86-.104.246.022.46.082.635.18.178.095.322.217.433.36.11.146.194.29.246.433.06.205.08.38.063.52-.017.144-.057.27-.12.38-.062.11-.138.208-.23.294-.09.088-.183.176-.278.265-.065.063-.117.12-.154.175-.037.053-.063.105-.077.16-.015.052-.02.108-.014.17.005.06.02.13.04.205l-1.237.355c-.024-.065-.05-.15-.08-.252-.032-.107-.05-.22-.055-.34-.005-.12.01-.24.048-.368.035-.127.108-.243.217-.35.047-.045.1-.092.16-.145.065-.05.123-.104.175-.16.055-.06.096-.12.124-.187.03-.066.033-.135.012-.212-.065-.225-.227-.303-.486-.228-.16.044-.258.136-.292.27-.032.137-.023.275.034.42l-1.4.402zm15.066-9.21l.38 1.323-1.39.4-.38-1.323 1.39-.4zm-2.964-1.162c-.047-.215-.063-.432-.05-.656.014-.224.07-.437.17-.64.1-.202.252-.388.454-.555.2-.165.467-.296.797-.39.325-.095.612-.13.86-.108.247.024.46.085.637.18s.322.216.434.362c.11.144.19.288.246.433.06.206.076.38.062.52-.02.144-.058.27-.12.38-.063.11-.14.208-.23.294-.09.088-.185.177-.276.267-.068.063-.118.12-.156.175-.037.054-.062.107-.077.16-.015.05-.02.108-.015.17.008.06.02.13.043.205l-1.237.355c-.023-.065-.05-.15-.08-.253-.032-.107-.05-.22-.055-.34-.004-.12.01-.24.047-.367.036-.127.11-.244.218-.353.047-.043.1-.09.162-.142.062-.052.12-.106.174-.16.052-.06.095-.12.122-.187.03-.066.033-.136.014-.212-.066-.227-.228-.303-.486-.232-.16.047-.258.138-.29.273-.034.135-.024.275.032.418l-1.4.404zM7.677 18l-1.065-.2c.04-.16.103-.31.187-.455.082-.142.19-.265.325-.367.134-.1.298-.174.487-.217.19-.043.41-.042.66.005.25.046.453.12.61.217.157.1.278.21.364.332.086.124.142.256.168.39s.032.255.018.368c-.028.154-.073.277-.132.367-.06.09-.127.158-.206.214-.08.05-.162.09-.252.115-.09.027-.18.056-.273.083-.065.02-.12.04-.162.066-.042.02-.078.046-.105.078-.025.03-.047.065-.065.106-.016.043-.03.095-.04.15l-.944-.178c.007-.05.017-.115.032-.193.014-.08.04-.162.077-.246.036-.08.087-.157.154-.23.067-.07.154-.124.262-.16.045-.015.096-.024.155-.04.06-.014.114-.03.17-.05.054-.02.103-.046.145-.08.04-.035.067-.08.08-.142.03-.17-.05-.275-.248-.312-.122-.023-.22.005-.285.082-.068.082-.108.18-.12.295zm-.54 1.367l1.06.197-.187 1.01-1.06-.2.188-1.007z"/></svg>