<svg xmlns="http://www.w3.org/2000/svg" viewBox="0 0 366.79 366.79"><path d="M331.82 63.705c1.444 3.582-.534 6.512-4.395 6.512H39.365c-3.862 0-5.92-2.96-4.576-6.58L55.98 6.58C57.327 2.963 61.586 0 65.446 0H299.12c3.862 0 8.202 2.93 9.647 6.51l23.053 57.195zM32.344 106.04c0 14.052 11.392 25.443 25.445 25.443 10.578 0 19.646-6.455 23.483-15.642.76-1.82 2.52-1.794 3.288.04 3.847 9.166 12.907 15.603 23.47 15.603 10.61 0 19.7-6.494 23.52-15.724.742-1.797 2.42-1.94 3.12-.204 3.768 9.337 12.915 15.927 23.603 15.927 10.687 0 19.832-6.588 23.6-15.926.7-1.737 2.34-1.737 3.042 0 3.77 9.338 12.915 15.926 23.6 15.926 10.688 0 19.834-6.588 23.6-15.926.704-1.737 2.34-1.737 3.04 0 3.77 9.337 12.916 15.927 23.604 15.927 10.687 0 19.833-6.588 23.6-15.926.7-1.737 2.34-1.737 3.04 0 3.768 9.337 12.913 15.927 23.602 15.927 14.053 0 25.445-11.392 25.445-25.444V95.286s0-5.02-5.302-5.02H39.385c-7.04 0-7.04 5.218-7.04 5.218v10.556zM327.065 342.7V241.79c0-6.12-5.008-11.128-11.126-11.128H50.85c-6.12 0-11.127 5.008-11.127 11.128V347.13c0 10.86 8.802 19.66 19.66 19.66 7.442 0 13.903-4.144 17.236-10.247.475-.873.817-2.73 5.547-2.73H284.93c4.452 0 5.273 1.834 5.74 2.694 3.328 6.122 9.8 10.283 17.257 10.283 10.857 0 19.14-8.8 19.14-19.66 0-1.525-.002-1.913-.002-4.43zM91.226 148.782c-.133-1.813-1.642-3.258-3.485-3.258H77.603c-1.93 0-3.51 1.58-3.51 3.51v58.198c0 1.932 1.58 3.51 3.51 3.51h10.14c1.843 0 3.352-1.445 3.484-3.258.01-.03.025-.06.025-.09V148.87c0-.03-.015-.06-.024-.09zM293.63 148.782c-.133-1.813-1.642-3.258-3.485-3.258h-10.14c-1.93 0-3.51 1.58-3.51 3.51v58.198c0 1.932 1.58 3.51 3.51 3.51h10.14c1.844 0 3.353-1.445 3.485-3.258.01-.03.025-.06.025-.09V148.87c0-.03-.017-.06-.025-.09z"/></svg>