<svg xmlns="http://www.w3.org/2000/svg" viewBox="0 0 24 24"><path d="M21.22 11.324c-.076.055-.15.1-.227.153V4c0-1.105-.895-2-2-2h-14c-1.105 0-2 .895-2 2v7.467c-.07-.05-.142-.092-.214-.143-.61-.425-1.01.153-.635.706.727.89 2.108 1.995 4.226 2.865-2.24 7.633 5.47 8.845 5.352 4.932l.007-3.848c.2.047.377.093.542.134l.007 3.714c-.12 3.913 7.596 2.7 5.35-4.932 2.118-.87 3.5-1.975 4.226-2.865.373-.553-.026-1.13-.635-.706zm-7.606 1.944c-.938-.047-1.286.356-1.335.976-.23-.162-.462-.344-.702-.567-.04-.036-.07-.056-.105-.086-.085-.092-.195-.165-.33-.22-.014-.004-.03-.01-.04-.015-.19-.067-.42-.1-.717-.086-1.283.04-3.647.298-6.393-1.186V4c0-.55.45-1 1-1h14c.55 0 1 .45 1 1v8.09c-2.74 1.475-5.1 1.218-6.38 1.178zm-1.878-3.233c0 1.27-1.1 2.297-2.455 2.297s-2.455-1.028-2.455-2.297c0-1.27 1.1-2.297 2.456-2.297 1.357 0 2.456 1.028 2.456 2.297zm5.715 0c0 1.27-1.1 2.297-2.455 2.297-1.356 0-2.456-1.028-2.456-2.297 0-1.27 1.1-2.297 2.455-2.297 1.356 0 2.456 1.028 2.456 2.297z"/></svg>