<svg xmlns="http://www.w3.org/2000/svg" width="45.331" height="45.331" viewBox="0 0 45.331 45.331"><path d="M19.974 23.22c.606-.44.9-1.196.748-1.93l-1.27-6.175 4.656-4.248c.554-.505.76-1.287.53-2-.233-.713-.86-1.224-1.605-1.307l-6.265-.698-2.6-5.74C13.858.437 13.178 0 12.43 0S11 .438 10.69 1.12l-2.6 5.742-6.263.698c-.745.083-1.372.594-1.603 1.307-.232.713-.025 1.495.53 2l4.657 4.248-1.27 6.174c-.152.733.14 1.487.747 1.93.607.44 1.414.483 2.065.113l5.48-3.117 5.478 3.117c.65.37 1.458.326 2.064-.114zM45.142 16.926c-.148-.455-.55-.782-1.025-.835l-4.004-.445-1.663-3.67c-.197-.438-.632-.718-1.11-.718-.48 0-.913.28-1.11.717l-1.663 3.67-4.004.447c-.477.054-.877.38-1.025.836-.147.455-.016.955.338 1.277l2.978 2.716-.813 3.946c-.096.47.09.95.48 1.233.387.28.903.31 1.32.07l3.5-1.99 3.503 1.99c.418.238.934.21 1.32-.07.387-.282.574-.766.48-1.234l-.814-3.947 2.977-2.717c.35-.322.482-.822.335-1.277zM30.24 33.47l-4.638-.517-1.925-4.25c-.23-.506-.732-.83-1.287-.83s-1.058.324-1.287.83l-1.924 4.25-4.638.518c-.55.062-1.015.44-1.187.968-.172.527-.02 1.105.392 1.48l3.447 3.145-.94 4.57c-.113.543.103 1.103.552 1.428.45.327 1.047.36 1.53.087l4.054-2.308 4.056 2.307c.482.273 1.08.24 1.53-.086.448-.324.665-.884.552-1.427l-.94-4.57 3.446-3.146c.41-.374.563-.953.393-1.48-.172-.527-.637-.907-1.188-.966z"/></svg>