<svg xmlns="http://www.w3.org/2000/svg" width="894.438" height="894.437" viewBox="0 0 894.438 894.437"><path d="M387.426 632.607H55c-7.866 0-15.477-1.098-22.71-3.104v159.463c0 30.375 24.624 55 55 55h719.858c30.375 0 55-24.625 55-55V629.5c-7.234 2.01-14.846 3.105-22.71 3.105H507.01c.02.437.033.873.033 1.313v35.926c0 16.568-13.433 30-30 30h-59.65c-16.567 0-30-13.432-30-30v-35.926c0-.44.015-.876.033-1.31zM0 220.765v326.842c0 22.273 13.25 41.44 32.29 50.09 6.924 3.146 14.61 4.91 22.71 4.91h784.438c8.103 0 15.785-1.766 22.71-4.91 19.04-8.647 32.29-27.815 32.29-50.09V220.765c0-30.376-24.625-55-55-55h-195.22v-55.293c0-33.084-26.916-60-60-60h-274c-33.084 0-60 26.916-60 60v55.293H55c-30.376 0-55 24.624-55 55zm310.218-70v-40.293h274l.006 25.293.005 15 .003 15H310.218v-15z"/></svg>