<svg xmlns="http://www.w3.org/2000/svg" width="415.881" height="415.881" viewBox="0 0 415.881 415.881"><path d="M179.64 189.565c2.456 0 4.87.193 7.224.56l37-36.997c-13.194-7.048-28.25-11.05-44.222-11.05-51.92 0-94.162 42.24-94.162 94.16 0 51.922 42.242 94.163 94.162 94.163s94.16-42.24 94.16-94.16c0-15.974-4-31.028-11.05-44.22l-36.997 36.998c.367 2.354.56 4.766.56 7.222 0 25.736-20.937 46.674-46.672 46.674-25.736 0-46.674-20.938-46.674-46.674s20.935-46.675 46.67-46.675z"/><path d="M290.454 164.316c13.488 20.712 21.338 45.417 21.338 71.922 0 72.87-59.28 132.153-132.15 132.153S47.49 309.11 47.49 236.24s59.282-132.154 132.15-132.154c26.51 0 51.212 7.85 71.925 21.34l34.104-34.104c-29.74-21.817-66.403-34.724-106.028-34.724-99.055 0-179.64 80.587-179.64 179.64 0 99.055 80.585 179.643 179.64 179.643 99.054 0 179.638-80.587 179.638-179.64 0-39.627-12.904-76.29-34.72-106.027l-34.106 34.103z"/><path d="M415.415 56.64c-1.12-3.54-4.12-6.157-7.775-6.793l-35.45-6.157-6.155-35.45c-.637-3.656-3.256-6.655-6.793-7.774-3.537-1.122-7.402-.178-10.027 2.447l-27.412 27.41c-1.863 1.865-2.91 4.394-2.912 7.03l.003 40.896-148.1 148.095c-5.176 5.177-5.176 13.566 0 18.743 5.178 5.175 13.568 5.177 18.744 0L337.632 96.99h40.896c2.635 0 5.164-1.046 7.027-2.91l27.412-27.413c2.626-2.623 3.57-6.49 2.448-10.027z"/></svg>