<svg xmlns="http://www.w3.org/2000/svg" width="390.412" height="390.412" viewBox="0 0 390.412 390.412"><path d="M323.433 211.572c-9.89-12.094-26.1-18.7-46.96-19.22-.576-4.975-4.798-8.84-9.93-8.84H66.454c-5.524 0-10 4.478-10 10v116c0 23.045 12.86 43.685 33.56 53.865-1.004 2.395-1.513 4.93-1.513 7.536 0 10.752 8.747 19.5 19.5 19.5h116.998c10.752 0 19.5-8.748 19.5-19.5 0-2.607-.51-5.144-1.515-7.536 17.71-8.71 29.673-25.076 32.763-44.052 17.11-3.79 31.613-13.604 42.518-28.944 10.125-14.243 13.49-28.243 13.84-29.794l.07-.333c4.09-20.212 1.148-36.59-8.74-48.68zm-20.614 42.49c-.257 1-2.718 10.09-9.01 18.94-4.865 6.846-10.582 11.713-17.266 14.665v-65.313c7.533.276 18.46 1.847 23.667 8.21 3.89 4.752 4.765 12.66 2.61 23.497zM122.303 71.25c16.242 1.885 32.8 2.14 46.854 2.14 4.57 0 9.14-.03 13.71-.058 7.1-.044 14.194-.088 21.274-.025l1.064.004c1.804 0 3.91-.032 6.106-.067 2.28-.037 4.658-.075 6.89-.078-4.372.86-9.687 1.808-14.43 2.654-9.557 1.705-19.438 3.47-26.544 5.15l-1.336.316c-13.8 3.253-34.65 8.17-41.382 23.084-2.65 5.745-2.456 12.306.53 18 3.148 6.006 8.967 10.28 15.566 11.435 2.307.403 4.787.788 7.483.788 4.39 0 8.79-.397 12.996-1.225 21.754-4.275 21.94 1.37 21.95 1.958.06 3.698-7.134 10.097-10.206 12.83-.66.586-1.214 1.08-1.614 1.46-.8.76-1.744 1.6-2.763 2.51-6.228 5.555-14.757 13.163-13.723 21.484.125 1.004.98 1.753 1.984 1.753h.056c1.03-.028 1.87-.834 1.94-1.86.24-3.424 3.58-6.423 6.69-8.963 2.955-2.4 6.16-4.64 9.26-6.802 1.292-.9 2.584-1.804 3.865-2.72l.1-.07c5.674-4.063 15.17-10.857 16.458-19 .518-3.267-.316-6.408-2.477-9.337-6.007-8.142-16.83-8.823-26.5-8.823h-.776c-1.714.005-3.438.047-5.166.088-1.788.044-3.58.088-5.368.088-3.083 0-5.57-.133-7.826-.43-4.518-.592-6.05-2.998-4.992-4.798 3.143-5.35 18.98-10.08 47.547-13.787 1.553-.202 2.77-.36 3.557-.48 1.752-.268 3.51-.528 5.27-.79 10.12-1.502 20.583-3.057 30.58-6.02 17.828-5.285 21.24-14.262 20.85-21.073 0-.045-.003-.09-.007-.138h.008l-.022-.213c-.01-.123-.022-.252-.037-.39l-.005-.032v-.006-.008c-.81-7.1-5.738-12.896-13.522-15.906-11.276-4.363-24.504-4.412-36.176-4.455l-3.05-.014c-9.985-.067-20.146.153-29.962.363-8.592.184-17.477.373-26.202.373-8.717 0-16.392-.192-23.462-.587-5.45-.304-11.897-.775-18.387-1.97-4.888-.9-10.97-2.02-14.837-5.29-3.493-2.956.14-9.475 2.55-12.508 7.3-9.19 20.063-12.998 31.585-15.51 10.573-2.307 22.15-3.533 36.434-3.862 9.177-.21 18.124.017 26.625.673.05.004.103.006.155.006.006 0 .013.003.02 0 1.103 0 2-.896 2-2 0-.967-.687-1.773-1.6-1.96C175.546 2.472 158.176 0 141.64 0c-5.104 0-10.193.233-15.124.694-18.993 1.774-43.347 8.564-51.51 30.84-2.765 7.548-2.37 14.292 1.174 20.047 7.85 12.745 29.415 17.73 46.125 19.67z"/></svg>