<svg xmlns="http://www.w3.org/2000/svg" viewBox="0 0 24 24"><path d="M22 5.797c-.736.326-1.527.547-2.357.646.847-.508 1.498-1.312 1.804-2.27-.793.47-1.67.812-2.606.996-.747-.798-1.814-1.297-2.994-1.297-2.266 0-4.103 1.837-4.103 4.103 0 .322.036.635.106.935-3.41-.17-6.434-1.803-8.458-4.286-.353.606-.555 1.31-.555 2.063 0 1.424.724 2.68 1.825 3.415-.672-.02-1.305-.205-1.858-.513v.05c0 1.99 1.414 3.648 3.292 4.024-.344.094-.707.144-1.08.144-.265 0-.522-.026-.773-.074.522 1.63 2.038 2.816 3.833 2.85-1.404 1.1-3.174 1.756-5.096 1.756-.33 0-.658-.02-.98-.057 1.817 1.164 3.974 1.843 6.29 1.843 7.548 0 11.676-6.252 11.676-11.675 0-.177-.004-.354-.012-.53.8-.577 1.496-1.3 2.046-2.123z"/></svg>