<svg xmlns="http://www.w3.org/2000/svg" viewBox="0 0 33.277 33.277"><path d="M11.246 18.75c1.122 3.728 1.396 7.667 1.222 11.54-.023.473.62.174.636-.17.178-3.924-.09-7.926-1.226-11.703-.125-.414-.728.01-.632.333zm10.21 3.364c.277.99.08 2.01.14 3.023.078 1.353.907 2.392 1.92 3.22.06-.198.127-.394.192-.59-.926.402-2.413 1.068-2.334 2.307.07 1.067.883 1.83.692 2.968-.08.46.58.16.636-.17.146-.85-.134-1.577-.472-2.34-.137-.31-.284-.652-.18-.99.185-.608 1.257-.96 1.762-1.182.18-.08.393-.427.192-.59-1.04-.85-1.75-1.832-1.79-3.206-.026-.94.133-1.858-.128-2.782-.115-.416-.72.01-.63.332zm.233-18.677c-4.066 0-7.365 4.19-7.365 9.362 0 5.168 5.493 9.735 7.364 9.735 1.873 0 7.364-4.566 7.364-9.736 0-5.172-3.297-9.363-7.365-9.363zm1.94 2.84l1.358-.61c4.16 4.382 1.037 7.746 1.037 7.746 1.428-4.078-2.395-7.135-2.395-7.135zM12.336 18.584h-.995s-.168.938-.61 1.223c-.44.286 1.26-.665 1.956-.026-.12-.106-.548-.537-.35-1.197zm.35 1.197c.02.018.032.026.032.026-.01-.01-.023-.016-.032-.026zm9.92 2.116h-.994s-.17.937-.61 1.223c-.443.285 1.26-.666 1.954-.026-.12-.11-.547-.54-.35-1.198zm.35 1.197l.032.025c-.01-.01-.02-.016-.033-.025zm-5.33-19.087C16.294 1.586 14.088 0 11.586 0 7.52 0 4.224 4.19 4.224 9.36s5.492 9.737 7.364 9.737c.73 0 2.012-.697 3.304-1.853-.868-1.433-1.47-3.073-1.47-4.78 0-3.733 1.72-6.955 4.206-8.458zm-9.01.814c-.067.07-.134.143-.2.217-.133.148-.262.302-.386.46-.25.314-.48.645-.69.99-.418.687-.748 1.432-.928 2.218-.18.784-.195 1.612-.002 2.416.19.805.588 1.57 1.114 2.246-.62-.588-1.15-1.302-1.482-2.126-.337-.822-.464-1.742-.396-2.646.065-.906.31-1.794.657-2.63.174-.418.375-.825.6-1.22.113-.198.23-.392.356-.584.063-.097.126-.19.193-.287.07-.097.133-.186.22-.293l1.14 1.046c-.057.05-.132.125-.196.194z" fill="#010002"/></svg>