<svg xmlns="http://www.w3.org/2000/svg" viewBox="0 0 309.133 309.133"><path d="M30.078 172.934c23.695-34.108 37.633-56.082 47.795-72.32C38.82 104.066 1.387 152.66 1.387 152.66l25.777 25.777c.748-1.906 1.703-3.757 2.914-5.503zM130.723 281.997l25.76 25.76s48.592-37.43 52.047-76.483c-16.234 10.158-38.2 24.09-72.32 47.792-1.726 1.198-3.566 2.176-5.487 2.93zM91.55 268.678c-4.423 1.787-8.77 3.686-13.3 5.2-12.102 4.045-24.566 6.778-37.203 8.522-5.297.73-10.643 1.35-15.998 1.757.05-.66.1-1.323.155-1.983 1.105-12.876 3.064-25.685 6.23-38.223 1.524-6.05 3.47-11.932 5.56-17.806 1.298-3.652 2.92-7.147 4.554-10.642l-2.835-2.832c-6.303 4.234-11.785 9.584-16.437 15.637-6.887 8.963-12.05 19.117-15.658 29.817C2.743 269.614.43 281.78.07 293.91c-.05 1.705-.167 3.446.097 5.137.34 2.184 1.3 4.25 2.74 5.926 1.426 1.657 3.303 2.908 5.383 3.58 1.746.562 3.502.572 5.313.558 11.012-.09 22.195-2.004 32.736-5.136 19.278-5.728 38.74-16.504 50.15-33.532l-2.76-2.756c-.722.34-1.447.673-2.18.992zM306.004 3.15L306 3.145c-2.006-2.005-4.725-3.128-7.555-3.128-.07 0-.14 0-.21.002-34.41.675-119.308 7.11-164.394 52.2-20.466 20.466-27.118 31.12-41.698 54.468-10.5 16.81-24.875 39.835-51.147 77.65-2.95 4.25-2.438 10.002 1.22 13.66l68.93 68.928c2.067 2.07 4.806 3.133 7.563 3.133 2.12 0 4.248-.63 6.096-1.912 37.828-26.278 60.844-40.65 77.648-51.146 23.346-14.58 34.002-21.233 54.473-41.702 45.166-45.168 51.557-130.01 52.205-164.39.057-2.903-1.073-5.705-3.126-7.76zm-79.817 130.056c-13.877 13.876-36.373 13.876-50.25 0-13.88-13.877-13.877-36.372.002-50.248 13.874-13.877 36.37-13.88 50.247-.003 13.873 13.876 13.875 36.376 0 50.25z"/></svg>