<svg xmlns="http://www.w3.org/2000/svg" viewBox="0 0 24 24"><path d="M14 9.5V8c2.21 0 4 1.79 4 4 0 .814-.246 1.57-.664 2.202L16.234 13.1c.165-.333.266-.703.266-1.1 0-1.38-1.122-2.5-2.5-2.5zm6.5 2.5c0 1.503-.518 2.885-1.378 3.988l1.073 1.073C21.322 15.683 22 13.92 22 12c0-4.418-3.582-8-8-8v1.5c3.584 0 6.5 2.916 6.5 6.5zM12 3L9.067 5.933 12 8.866V3zM2 3.06l4.97 4.97L6 9H2v6h4l6 6v-7.94l4.785 4.786c-.847.406-1.784.654-2.785.654V20c1.422 0 2.755-.376 3.912-1.028L20.94 22 22 20.94 3.06 2 2 3.06z"/></svg>