<svg xmlns="http://www.w3.org/2000/svg" width="32" height="32" viewBox="0 0 32 32"><path d="M3 29V4h25v25H3zM26 6H5v6h2.017c.15-1.12.746-1.96 1.462-1.96s1.313.84 1.46 1.96h1.072c.144-1.13.745-1.98 1.466-1.98s1.322.85 1.466 1.98h7.067c.145-1.13.746-1.98 1.467-1.98.722 0 1.322.85 1.467 1.98H26V6zm0 7h-2.05c-.134 1.15-.74 2.02-1.472 2.02-.73 0-1.336-.868-1.47-2.02H13.95c-.134 1.15-.74 2.02-1.47 2.02s-1.338-.87-1.472-2.02H9.95c-.128 1.16-.737 2.04-1.47 2.04S7.135 14.16 7.006 13H5v7h7.992c.144-1.13.746-1.98 1.466-1.98s1.323.85 1.467 1.98h1c.128-1.16.737-2.042 1.472-2.042.733 0 1.342.88 1.472 2.042h1.12c.138-1.142.743-2 1.47-2s1.33.858 1.47 2H26v-7zm0 8h-2.072c-.14 1.14-.744 2-1.47 2s-1.33-.86-1.47-2h-1.13c-.15 1.12-.746 1.958-1.462 1.958s-1.314-.84-1.463-1.958H15.93c-.135 1.15-.742 2.02-1.472 2.02s-1.336-.868-1.47-2.02H5v6h21v-6z"/></svg>