<svg xmlns="http://www.w3.org/2000/svg" viewBox="0 0 24 24"><path d="M9.663 14.585c.142.18.313.322.51.427.2.105.43.157.692.157.292 0 .54-.06.742-.18.202-.12.37-.276.5-.467.13-.19.225-.408.28-.652.057-.242.085-.492.085-.746 0-.262-.034-.517-.1-.764-.07-.247-.17-.466-.304-.657-.135-.19-.303-.344-.506-.46-.202-.117-.435-.175-.697-.175-.54 0-.946.187-1.22.562-.272.375-.41.873-.41 1.495 0 .292.037.564.108.815.07.25.178.465.32.645z"/><path d="M21 4H3c-.552 0-1 .448-1 1v3h7.28v2.967h.023c.09-.142.198-.27.326-.382s.267-.208.42-.287.315-.14.483-.18c.17-.04.335-.062.5-.062.457 0 .856.08 1.197.242.34.16.624.382.848.663.225.282.393.61.506.984.112.375.168.775.168 1.202 0 .39-.05.768-.152 1.135-.1.368-.255.692-.46.973-.207.28-.467.506-.782.674-.315.17-.685.253-1.112.253-.195 0-.392-.013-.59-.04-.2-.025-.388-.076-.568-.15-.18-.076-.343-.173-.49-.293-.145-.12-.267-.277-.364-.472h-.02v.798H8V8l-5 8.018H2V19c0 .552.448 1 1 1h18c.552 0 1-.448 1-1V5c0-.552-.448-1-1-1zm-5.308 9.9c.056.24.146.453.27.64.124.188.283.34.478.456.195.116.43.174.708.174.375 0 .684-.116.927-.348.243-.232.395-.558.455-.978h1.28c-.12.757-.405 1.336-.86 1.736-.452.4-1.053.6-1.803.6-.457 0-.86-.076-1.208-.23-.35-.152-.643-.362-.883-.628s-.42-.582-.545-.95c-.124-.367-.185-.764-.185-1.19 0-.435.06-.844.18-1.226s.3-.714.54-.995c.24-.28.536-.5.892-.662.355-.16.773-.242 1.252-.242.337 0 .657.043.96.13.304.085.574.214.81.387.236.172.43.39.58.652.15.262.24.573.27.933H18.53c-.052-.36-.197-.63-.433-.815-.236-.183-.534-.275-.893-.275-.165 0-.34.028-.528.084-.187.056-.36.16-.517.315-.158.154-.29.367-.394.64-.105.275-.157.632-.157 1.074-.002.24.026.48.082.72z"/></svg>