<svg xmlns="http://www.w3.org/2000/svg" width="450" height="450" viewBox="0 0 450 450"><path d="M87.945 75.913c-1.877-7.41-9.408-11.893-16.818-10.018-7.413 1.88-11.897 9.41-10.02 16.82l90.44 356.84c1.59 6.27 7.224 10.445 13.41 10.445 1.126 0 2.27-.14 3.412-.428 7.408-1.877 11.894-9.41 10.016-16.82l-90.44-356.84zM388.98 176.42c-14.74-54.424-29.492-108.843-44.234-163.266-1.598-5.89-4.4-12.21-14.93-12.842C246.93-5.69 192.504 76.854 109.615 70.85c-6.54-.806-10.745 2.6-9.148 8.49 14.743 54.423 29.372 108.878 44.233 163.267 2.384 8.73 8.387 12.035 14.93 12.842 82.887 6.003 137.315-76.542 220.205-70.538 6.54.804 10.742-2.6 9.145-8.493zM323.934 20.856c4.066 15.015 8.138 30.03 12.204 45.044-17.436.575-32.825 4.093-49.132 10.204-4.065-15.015-8.137-30.03-12.202-45.044 16.305-6.11 31.694-9.63 49.13-10.203zM153.13 189.197c-4.627-17.06-9.246-34.122-13.868-51.182 18.328-.53 34.59-4.503 51.602-11.227-4.07-15.015-8.138-30.03-12.204-45.045 16.63-7.433 32.314-16.332 48.022-25.523 4.066 15.014 8.138 30.03 12.205 45.044-15.71 9.19-31.395 18.092-48.023 25.524 4.623 17.06 9.244 34.122 13.866 51.182-17.012 6.723-33.273 10.695-51.6 11.227zm63.984 34.477c-4.13-15.234-8.256-30.47-12.384-45.706 16.513-7.377 32.087-16.2 47.683-25.327l12.383 45.708c-15.594 9.127-31.17 17.95-47.682 25.326zm35.636-71.23l-13.863-51.182c15.706-9.17 31.403-17.945 48.12-25.157l13.866 51.18c-16.713 7.215-32.415 15.99-48.123 25.16zm60.795 20.432c-4.13-15.234-8.256-30.47-12.385-45.706 16.21-6.045 31.52-9.52 48.843-10.086 4.13 15.236 8.257 30.47 12.386 45.705-17.324.565-32.636 4.04-48.845 10.086z"/></svg>