<svg xmlns="http://www.w3.org/2000/svg" viewBox="0 0 24 24"><path d="M6.88 11.11v1.78L8.21 12M11.47 9.82V7.34l-4.165 2.777 1.86 1.244M16.695 10.117L12.53 7.34v2.48l2.305 1.54M7.305 13.883l4.164 2.776v-2.48l-2.305-1.54M12.53 14.18v2.48l4.165-2.777-1.86-1.243M12 10.743L10.12 12 12 13.257 13.88 12"/><path d="M12 2C6.477 2 2 6.477 2 12s4.477 10 10 10 10-4.477 10-10S17.523 2 12 2zm6.183 11.884c0 .023-.002.046-.005.07 0 .007-.003.015-.004.023-.003.015-.005.03-.01.045 0 .01-.005.017-.007.026-.004.013-.008.026-.014.04l-.012.025c-.005.012-.01.024-.017.035l-.015.024-.022.032-.018.023-.026.03-.02.02c-.01.01-.02.017-.03.025l-.025.018-.01.007-5.65 3.768c-.09.06-.193.09-.296.09-.102 0-.204-.03-.294-.09l-5.652-3.768-.01-.007-.023-.018-.03-.025-.02-.02-.027-.03-.018-.023c-.008-.01-.015-.02-.022-.032l-.015-.024-.018-.035-.012-.026-.014-.04-.008-.025-.01-.045-.003-.023c-.003-.023-.005-.046-.005-.07v-3.768c0-.023.002-.047.005-.07 0-.007.003-.014.004-.022.003-.015.005-.03.01-.045 0-.01.004-.018.006-.026.004-.013.008-.026.014-.04l.012-.025c.005-.013.01-.025.017-.036l.015-.025c.007-.012.014-.023.022-.033l.02-.023c.008-.01.016-.02.026-.03l.02-.02c.01-.01.02-.017.03-.025l.025-.02c.003 0 .006-.004.01-.006l5.65-3.768c.18-.12.412-.12.59 0l5.653 3.768.01.007.023.02c.01.007.022.016.03.024l.022.02c.01.01.018.02.026.03l.018.023c.008.01.015.02.022.032l.015.024.018.035c.005.007.01.016.013.025l.014.04.008.025.01.045c0 .008.002.015.003.023.003.023.005.046.005.07v3.766z"/><path d="M17.12 12.89v-1.78l-1.33.89"/></svg>