<svg xmlns="http://www.w3.org/2000/svg" viewBox="0 0 490 490"><path d="M444.494 189.13h-8.28c-.996 0-1.802.806-1.802 1.8v7.52h-16.91c.223-3.612.335-7.245.335-10.895 0-3.572-2.896-6.47-6.47-6.47H78.633c-3.573 0-6.47 2.897-6.47 6.47 0 3.65.112 7.283.336 10.896H55.587v-7.52c0-.994-.806-1.8-1.8-1.8h-8.282c-.994 0-1.8.806-1.8 1.8v28.445c0 .994.806 1.8 1.8 1.8h8.28c.996 0 1.802-.806 1.802-1.8v-7.52h18.265c2.073 14.768 6.048 29.15 11.896 42.977 8.704 20.582 21.165 39.066 37.036 54.936 11.975 11.975 25.438 22.008 40.166 29.952l-57.487 106.485c-.433-.026-.868-.043-1.308-.043-12.105 0-21.92 9.814-21.92 21.92 0 12.104 9.814 21.918 21.92 21.918s21.918-9.814 21.918-21.92c0-4.91-1.615-9.444-4.344-13.1l16.614-30.77h213.312l16.612 30.77c-2.73 3.655-4.344 8.19-4.344 13.1 0 12.106 9.814 21.92 21.918 21.92 12.107 0 21.92-9.814 21.92-21.92 0-12.104-9.814-21.918-21.92-21.918-.438 0-.875.017-1.308.043L327.048 339.72c14.728-7.944 28.19-17.977 40.166-29.952 15.87-15.87 28.333-34.354 37.038-54.936 5.848-13.826 9.823-28.21 11.896-42.976h18.264v7.52c0 .993.806 1.8 1.8 1.8h8.282c.994 0 1.8-.807 1.8-1.8V190.93c0-.994-.806-1.8-1.8-1.8zM341.677 405.725H148.323l31.367-58.103c20.735 8.474 42.696 12.768 65.31 12.768 22.614 0 44.574-4.293 65.31-12.767l31.367 58.103zm31.98-183.884c-3.955 18.49-12.278 36.13-24.07 51.01-11.642 14.693-26.69 26.752-43.52 34.87-.907.44-1.866.646-2.808.646-2.407 0-4.718-1.348-5.833-3.66-1.552-3.217-.202-7.084 3.016-8.637 30.797-14.856 53.436-43.616 60.56-76.933.75-3.494 4.186-5.72 7.68-4.974 3.494.747 5.72 4.186 4.973 7.68zM317.117 102.055c0-9.555-4.36-14.65-7.542-18.372-2.437-2.85-3.548-4.148-3.548-7.56 0-3.41 1.11-4.71 3.548-7.56 3.183-3.72 7.542-8.815 7.542-18.37 0-9.555-4.36-14.65-7.542-18.37-2.437-2.85-3.548-4.15-3.548-7.56 0-3.756 1.227-5.135 3.914-8.156.647-.726 1.315-1.476 2-2.31 2.917-3.55 2.404-8.79-1.144-11.707-3.105-2.552-7.168-2.996-10.513-.044-1.622 1.433-4.71 5.05-5.953 6.833-2.496 3.586-4.94 8.248-4.94 15.384 0 9.555 4.36 14.65 7.543 18.37 2.436 2.85 3.548 4.15 3.548 7.56 0 3.41-1.11 4.71-3.547 7.558-3.183 3.72-7.542 8.816-7.542 18.37 0 9.556 4.36 14.652 7.543 18.373 2.436 2.85 3.548 4.148 3.548 7.56 0 3.41-1.11 4.71-3.547 7.56-3.184 3.72-7.542 8.816-7.542 18.372 0 9.555 7.916 19.315 10.167 21.47 1.605 1.538 3.646 2.296 5.738 2.295 1.744 0 3.505-.547 5.004-1.68 3.666-2.766 4.395-7.98 1.628-11.648-.803-1.064-1.627-2.027-2.354-2.877-2.437-2.85-3.548-4.148-3.548-7.56 0-3.41 1.11-4.712 3.548-7.56 3.184-3.722 7.543-8.817 7.543-18.372zM258.862 102.055c0-9.555-4.358-14.65-7.542-18.372-2.436-2.85-3.548-4.148-3.548-7.56 0-3.41 1.112-4.71 3.548-7.56 3.183-3.72 7.542-8.815 7.542-18.37 0-9.555-4.36-14.65-7.542-18.37-2.436-2.85-3.548-4.15-3.548-7.56 0-3.756 1.227-5.135 3.914-8.156.645-.726 1.314-1.476 2-2.31 2.916-3.55 2.404-8.79-1.144-11.707-3.105-2.552-7.168-2.996-10.512-.044-1.623 1.433-4.712 5.05-5.953 6.833-2.497 3.586-4.94 8.248-4.94 15.384 0 9.555 4.36 14.65 7.543 18.37 2.436 2.85 3.548 4.15 3.548 7.56 0 3.41-1.112 4.71-3.548 7.558-3.184 3.72-7.542 8.816-7.542 18.37 0 9.556 4.358 14.652 7.542 18.373 2.436 2.85 3.548 4.148 3.548 7.56 0 3.41-1.112 4.71-3.548 7.56-3.184 3.72-7.542 8.816-7.542 18.372 0 9.555 7.915 19.315 10.167 21.47 1.605 1.538 3.646 2.296 5.737 2.295 1.745 0 3.505-.547 5.004-1.68 3.667-2.766 4.396-7.98 1.63-11.648-.804-1.064-1.628-2.027-2.355-2.877-2.435-2.85-3.547-4.148-3.547-7.56 0-3.41 1.112-4.712 3.548-7.56 3.184-3.722 7.542-8.817 7.542-18.372zM200.61 102.055c0-9.555-4.36-14.65-7.543-18.372-2.436-2.85-3.548-4.148-3.548-7.56 0-3.41 1.11-4.71 3.547-7.56 3.183-3.72 7.542-8.815 7.542-18.37 0-9.555-4.36-14.65-7.543-18.37-2.436-2.85-3.548-4.15-3.548-7.56 0-3.756 1.226-5.135 3.913-8.156.645-.726 1.313-1.476 2-2.31 2.916-3.55 2.403-8.79-1.144-11.707-3.106-2.552-7.17-2.996-10.514-.044-1.623 1.433-4.712 5.05-5.953 6.833-2.496 3.586-4.94 8.248-4.94 15.384 0 9.555 4.36 14.65 7.543 18.37 2.437 2.85 3.548 4.15 3.548 7.56 0 3.41-1.11 4.71-3.548 7.558-3.183 3.72-7.542 8.816-7.542 18.37 0 9.556 4.36 14.652 7.542 18.373 2.437 2.85 3.548 4.148 3.548 7.56 0 3.41-1.11 4.71-3.548 7.56-3.183 3.72-7.542 8.816-7.542 18.372 0 9.555 7.915 19.315 10.167 21.47 1.606 1.538 3.647 2.296 5.74 2.295 1.743 0 3.503-.547 5.003-1.68 3.667-2.766 4.396-7.98 1.63-11.648-.805-1.064-1.63-2.027-2.356-2.877-2.436-2.85-3.548-4.148-3.548-7.56 0-3.41 1.11-4.712 3.547-7.56 3.182-3.722 7.542-8.817 7.542-18.372z"/></svg>