<svg xmlns="http://www.w3.org/2000/svg" width="401.168" height="401.168" viewBox="0 0 401.168 401.168"><path d="M401.004 250.538c-.834-5.295-4.76-9.572-9.96-10.86-.873-.214-71.38-17.924-123.182-49.803L211.3 133.3C179.454 81.52 161.702 10.993 161.487 10.124c-1.286-5.203-5.565-9.128-10.86-9.962-5.292-.834-10.57 1.585-13.395 6.14l-17.078 27.542c-9.682-8.73-24.245-12.872-36.144-9.73l-.972.26C40.87 37.292 14.092 64.07 1.175 106.237l-.258.974c-2.96 13.144 1.392 27.9 11.09 37.6.73.73 1.494 1.433 2.272 2.092l.293.24c32.075 25.632 63.31 52.74 93.26 80.914-26.84 14.876-50.17 22.272-67.997 21.48-2.97-.134-5.68 1.682-6.688 4.478s-.084 5.923 2.286 7.72l20.133 15.26-22.844 21.915c-1.96 1.88-2.61 4.75-1.653 7.292.348.924.882 1.737 1.552 2.407 1.177 1.177 2.772 1.905 4.5 1.98 20.177.898 42.374-3.432 66.34-12.888-9.456 23.967-13.785 46.163-12.888 66.34.077 1.728.806 3.324 1.983 4.5.67.67 1.485 1.205 2.408 1.553 2.542.958 5.412.31 7.293-1.65l21.917-22.847 15.258 20.136c1.796 2.367 4.922 3.295 7.718 2.283 2.796-1.01 4.61-3.72 4.48-6.688-.793-17.83 6.603-41.16 21.48-68 28.188 29.964 55.298 61.198 80.914 93.263l.243.3c.657.774 1.36 1.536 2.086 2.266 9.698 9.697 24.457 14.052 37.6 11.093l.98-.26c42.17-12.922 68.946-39.7 81.86-81.864 0 0 7.035-21.218-9.47-37.116l27.542-17.076c4.554-2.83 6.973-8.106 6.14-13.4zM144.092 45.804c2.646 8.297 5.908 17.908 9.772 28.236-5.276-6.2-10.505-12.44-15.675-18.717l5.902-9.52zM131.16 213.438c-31.956-30.33-65.39-59.483-99.773-86.967-.182-.158-.363-.327-.54-.503-3.134-3.135-5.27-8.37-4.02-12.497 10.4-33.443 30-53.046 63.447-63.445 3.783-1.262 9.22-.22 13 4.56 2.096 2.62 4.204 5.237 6.32 7.85l4.046 4.963c24.407 29.88 50.045 58.988 76.598 86.963L131.16 213.44zm219.98 97.456c-10.394 33.44-29.995 53.046-63.44 63.446-4.096.89-9.366-.887-12.5-4.02-.176-.178-.346-.355-.502-.536-27.465-34.37-56.617-67.807-86.965-99.775l59.076-59.076c27.978 26.56 57.087 52.198 86.967 76.603l4.958 4.04c2.61 2.116 5.23 4.226 7.854 6.32.18.158.36.326.534.502 3.13 3.13 5.167 8.484 4.017 12.494zm-5.297-47.915c-6.276-5.17-12.517-10.398-18.72-15.678 10.33 3.864 19.943 7.126 28.24 9.773l-9.52 5.904z"/></svg>