<svg xmlns="http://www.w3.org/2000/svg" width="513.856" height="513.855" viewBox="0 0 513.856 513.855"><path d="M302.37.18C179.87-4.067 51.11 67.13 62.235 204.884c.292 9.6 11.34 52.496-31.806 87.397-15.352 12.467-11.29 36.597 10.315 48.49 7.165 3.955 14.658 6.59 22.437 8.424-1.602 8.627-.81 17.356 3.344 25.562-10.16 19.804 3.41 37.85 15.282 42.116 5.58 2.758 1.275 12.75 1.892 21.13 1.73 24.04 30.4 35.698 48.947 32.788 33.248-5.388 70.64-3.676 83.13 32.845 2.497 7.292 8.798 9.287 15.6 10.095 15.09 1.85 188.123-17.64 193.322-20.79 7.25-2.26 13.105-10.38 8.424-19.128C393.15 399.29 473.158 320.17 488.53 248.58 514.45 130.783 413.993.18 302.37.18zm161.75 239.778c-16.697 76.596-89.958 150.648-60.957 230.85-54.477 7.394-164.512 18.966-164.887 19.022-19.61-43.646-65.242-51.48-110.393-44.646-5.964 1.18-18.725-.203-18.385-11.836 3.712-25.65-12.756-40.345-19.26-41.924-2.446-.798-1.425-2-1.463-1.966 12.263-13.78-6.198-26.34 3.168-44.097 5.708-10.825-1.627-18.026-13.688-19.69-15.02-1.626-22.952-7.258-28.157-9.563-2.52-1.2-3.5-3.393-1.18-5.967 47.73-43.33 39.607-104.688 39.56-105.25C77.695 71.417 214.072 18.634 303.686 26.423 409.712 35.974 482.04 139.996 464.12 239.958z"/><path d="M234.434 138.562c-34.777 20.962-42.05 63.048-27.68 98.87 3.433 8.56 8.95 16.022 13.182 24.164 12.34 23.755 4.062 21.643 4.172 30.682.12 10.593 2.775 29.89 3.895 35.09.9 5.666 5.053 10.733 12.47 10.733 85.45 0 86.87 5.287 91.517-4.853 2.742-4.626 1.762-7.83 1.762-36.054 0-13.508-13.868-1.71 11.648-36.424 6.5-8.84 12.94-17.368 17.164-27.575 8.993-21.75 7.51-46.492-4.215-66.976-24.786-43.387-84.052-51.675-123.916-27.658zm73.13 174.398c-18.514-.762-37.043-.93-55.58-.98-.392-2.86-.72-5.718-1.004-8.582 18.92-.355 37.754.55 56.583 2.442v7.12zm23.48-75.502c-7.57 7.914-18.945 20.035-25.526 41.962-4.515-.432-9.028-.803-13.543-1.117.035-5.2-2.895-15.67 2.147-35.224.158-.605.22-1.172.27-1.732l13.563-13.566c9.155-9.143-4.718-23.056-13.878-13.883l-6.668 6.66c-2.026-3.41-4.226-6.73-6.724-9.94-6.236-8.017-23.54 1.443-13.884 13.89 3.326 4.27 5.8 9.312 8.21 14.202-3.208 12.868-3.903 25.62-2.39 38.687-6.87-.193-13.75-.3-20.635-.174-1.226-14.05-6.792-23.663-12.172-31.765-3.255-5.293-37.534-56.938 11.64-86.58 27.488-16.563 60.176-7.067 81.71 13.732 25.85 34.644 2.11 60.156-2.12 64.846zM175.64 185.518c-11.348-.08-22.63-1.03-33.924-2.054-11.893-1.082-11.79 17.44 0 18.51 11.293 1.025 22.576 1.977 33.923 2.056 11.932.075 11.927-18.436 0-18.512zM228.863 109.912c-6.566-9.85-13.238-19.624-20.98-28.604-7.804-9.06-20.83 4.09-13.087 13.088 6.708 7.782 12.395 16.316 18.085 24.854 6.594 9.874 22.63.612 15.983-9.338zM346.076 114.106c4.89-7.825 9.79-15.645 14.39-23.643 5.963-10.367-10.027-19.68-15.974-9.344-4.606 8.002-9.5 15.827-14.396 23.643-6.343 10.16 9.673 19.438 15.98 9.343zM391.95 192.386c11.797-3.306 23.11-7.863 34.084-13.27 10.704-5.283 1.32-21.235-9.333-15.98-9.57 4.718-19.393 8.524-29.665 11.403-11.477 3.213-6.59 21.07 4.916 17.846z"/></svg>