<svg xmlns="http://www.w3.org/2000/svg" viewBox="0 0 490 490"><path d="M360.84 346.842c-1.787 11.313-5.152 25.433-9.972 40.066l-8.697-11.72c-.773-1.052-2.044-1.606-3.34-1.457-1.295.153-2.42.983-2.93 2.17l-12.646 29.15c-.518 1.2-.35 2.58.414 3.623.776 1.05 2.053 1.605 3.35 1.453l15.82-1.815c-10.438 24.51-24.846 47.332-42.652 57.547-11.355 6.503-22.92 7.3-35.372 2.42-5.198-2.035-10.02-4.698-14.49-7.938l15.173-4.034c.53-.14 1.02-.397 1.436-.753.01-.008.03-.023.04-.037 1.522-1.31 1.708-3.608.4-5.138-.208-.247-22.65-22.69-22.65-22.69-.93-.914-2.263-1.28-3.524-.94-1.254.327-2.24 1.315-2.582 2.57l-4.07 15.06c-14.823-20.457-23.045-51.632-24.542-93.25l15.82 7.21c1.176.543 2.565.406 3.632-.354.08-.056.173-.13.247-.195.896-.77 1.376-1.93 1.265-3.122l-3.058-31.626c-.118-1.295-.92-2.43-2.113-2.973-1.182-.54-2.566-.406-3.626.353l-20.644 14.723-23.076-10.515c-1.19-.536-2.57-.403-3.63.352-1.057.753-1.64 2.023-1.515 3.317l3.046 31.63c.127 1.294.934 2.428 2.125 2.966 1.174.545 2.565.412 3.63-.348l13.16-9.397c1.837 45.642 11.645 79.958 29.298 102.626l-17.078 4.534c-1.252.332-2.238 1.317-2.582 2.57-.34 1.263.016 2.605.932 3.528 0 0 16.81 16.893 22.427 22.515.925.925 2.258 1.29 3.515.955.54-.146 1.032-.41 1.444-.76.547-.468.92-1.104 1.143-1.815 1.673-5.203 4.58-16.962 4.58-16.962 6.186 4.88 12.998 8.8 20.464 11.72 16.66 6.53 32.854 5.4 48.13-3.36 3.973-2.273 7.755-4.986 11.353-8.066 16.236-13.896 28.768-35.24 37.967-57.12l10.45 14.098c.772 1.047 2.052 1.593 3.345 1.448.735-.09 1.41-.39 1.953-.855.412-.354.756-.807.975-1.323l12.642-29.148c.52-1.196.36-2.577-.414-3.623-.776-1.044-2.055-1.6-3.35-1.448l-18.528 2.132c5.852-17.303 9.644-33.695 11.527-45.642.64-4.04-2.12-7.83-6.16-8.47-4.04-.633-7.828 2.127-8.465 6.16zM213.36 1.387c-.103-.105-.22-.213-.31-.29-1.186-1.112-2.92-1.403-4.417-.76-1.494.652-2.453 2.128-2.446 3.754l.006 83.516c.01 2.258 1.84 4.09 4.092 4.084h83.305c1.59 0 3.022-.91 3.69-2.335.684-1.424.534-3.165-.522-4.337-19.768-21.934-83.4-83.63-83.4-83.63zM187.807 1.387c.103-.105.22-.213.31-.29 1.184-1.112 2.92-1.403 4.416-.76 1.494.652 2.453 2.128 2.446 3.754l-.007 83.516c-.01 2.258-1.84 4.09-4.092 4.084h-83.304c-1.592 0-3.022-.91-3.69-2.335-.684-1.424-.534-3.165.52-4.337 19.77-21.934 83.4-83.63 83.4-83.63zM210.263 103.358c-2.258-.002-4.083 1.823-4.076 4.08l.003 197.853c-.053 1.998.247 4.87 3.566 4.87 3.8-.002 5.323-4.19 5.92-5.61l81.693-195.5c.525-1.263.383-2.703-.38-3.84-.757-1.144-2.036-1.823-3.4-1.82l-83.327-.032zM190.894 103.358c2.25-.002 4.08 1.823 4.076 4.08v197.853c.047 1.998-.25 4.87-3.575 4.87-3.793-.002-5.32-4.19-5.914-5.61l-81.692-195.5c-.526-1.263-.384-2.703.38-3.84.756-1.144 2.035-1.823 3.4-1.82l83.326-.032z"/></svg>