<svg xmlns="http://www.w3.org/2000/svg" width="373.294" height="373.294" viewBox="0 0 373.294 373.294"><path d="M334.59 231.84c-21.18 1.307-49.043 22.476-75.924 34.65-32.926 14.895-84.205 2.913-84.21 2.913 7.9-3.703 40.04-11.36 46.517-14.22 34.41-15.124 31.508-46.69 15.12-46.423-21.67.364-34.364 5.68-77.57 11.57-32.745 4.45-71.473 2.823-90.052 9.915C42.248 240.265 0 307.655 0 307.655l65.31 63.272s40.425-39.805 60.093-39.805c44.818 0 46.637-.615 88.266-2.863 17.682-.947 21.39-1.674 31.512-5.105 53.945-18.224 111.875-66.802 112.94-72.647 2.478-13.53-12.323-19.363-23.532-18.667zM244.463 133.917c1.123.23 2.266-.267 2.873-1.238 15.004-24.18 37.66-53.427 67.203-73.304-27.536 26.443-46.98 54.278-58.767 80.48-.354.788-.314 1.692.102 2.447.42.754 1.168 1.268 2.023 1.386 1.924.26 3.922.395 5.934.395 18.87 0 37.664-11.498 50.105-21.142 14.21-11.013 27.854-25.565 36.504-38.935 12.976-20.053 21.09-44.767 22.847-69.595.057-.79-.232-1.565-.793-2.128-.562-.56-1.34-.854-2.13-.793-18.798 1.33-65.444 7.364-92.722 34.59-.953.86-10.996 10.1-20.336 24.87-12.8 20.255-17.99 41.24-14.998 60.698.17 1.134 1.03 2.038 2.155 2.267zM169.86 162.913c11.86 9.192 29.77 20.148 47.755 20.148 1.918 0 3.822-.124 5.652-.378.816-.112 1.53-.6 1.928-1.318.398-.718.434-1.58.1-2.33-11.232-24.973-29.764-51.5-56.01-76.703 28.158 18.946 49.752 46.822 64.05 69.863.577.926 1.67 1.396 2.74 1.178 1.067-.22 1.89-1.08 2.056-2.158 2.847-18.54-2.094-38.544-14.296-57.844-8.9-14.08-18.477-22.882-19.383-23.705C178.458 63.72 134 57.967 116.084 56.7c-.75-.06-1.494.22-2.027.755-.534.534-.81 1.276-.757 2.03 1.675 23.66 9.406 47.213 21.77 66.322 8.245 12.743 21.25 26.61 34.79 37.106zM195.488 73.118c7.9 6.12 19.83 13.42 31.808 13.42 1.276 0 2.546-.088 3.767-.255.545-.074 1.02-.4 1.283-.876.266-.482.29-1.054.065-1.556-7.48-16.634-19.82-34.3-37.3-51.085 18.75 12.616 33.133 31.186 42.66 46.53.382.615 1.112.932 1.823.785.71-.146 1.258-.718 1.37-1.438 1.894-12.35-1.396-25.672-9.522-38.528-5.927-9.375-12.306-15.24-12.908-15.787-17.316-17.28-46.925-21.11-58.858-21.956-.503-.038-.996.15-1.353.505-.354.355-.538.85-.502 1.35 1.115 15.762 6.265 31.45 14.5 44.176 5.49 8.49 14.155 17.725 23.17 24.718z"/></svg>