<svg xmlns="http://www.w3.org/2000/svg" viewBox="0 0 338.339 338.339"><path d="M15.105 303.696l34.62 34.643 174.458-174.476-34.62-34.622M202.593 116.21l34.608 34.642 38.147-38.15-34.607-34.63M199.41 27.705c8.967-9.236 18.057-9.362 27.316-.395-9.26-8.967-9.383-18.077-.414-27.31-8.97 9.233-18.063 9.377-27.32.408 9.257 8.97 9.384 18.06.418 27.297zM313.193 67.546c-9.256-8.966-9.38-18.056-.41-27.296-8.97 9.24-18.063 9.364-27.32.396 9.258 8.967 9.385 18.08.418 27.312 8.967-9.23 18.057-9.377 27.313-.412zM322.83 104.892c-8.965 9.242-18.068 9.378-27.324.414 9.256 8.964 9.393 18.067.424 27.306 8.97-9.238 18.057-9.38 27.305-.418-9.25-8.964-9.37-18.06-.405-27.302zM154.642 89.816c8.963-9.23 18.08-9.368 27.316-.4-9.236-8.967-9.387-18.06-.42-27.3-8.967 9.24-18.06 9.365-27.283.396 9.225 8.97 9.35 18.073.387 27.304zM231.214 67.876c8.96-9.235 18.063-9.362 27.273-.396-9.21-8.966-9.348-18.07-.383-27.303-8.965 9.232-18.084 9.37-27.307.4 9.224 8.97 9.378 18.064.417 27.3z"/></svg>