<svg xmlns="http://www.w3.org/2000/svg" viewBox="0 0 310.861 310.861"><g fill-rule="evenodd" clip-rule="evenodd"><path d="M172.774 117.38h-2.896c-.148 0-.294.034-.426.104l-5.485 2.936c-.367.197-.552.617-.45 1.02l.656 2.59c.068.268.26.493.514.604.255.112.548.102.793-.03l3.11-1.682v20.475c0 .5.405.904.902.904h3.282c.502 0 .906-.403.906-.903v-25.114c0-.5-.404-.904-.906-.904zM170.5 70.584c-5.946 0-9.64 5.35-9.64 13.97.08 8.514 3.61 13.8 9.21 13.8 6.124 0 9.638-5.16 9.638-14.155 0-8.526-3.444-13.616-9.21-13.616zm-.236 23.336c-2.588 0-4.195-3.577-4.195-9.334 0-5.815 1.66-9.572 4.235-9.572 3.65 0 4.195 5.852 4.195 9.337 0 3.576-.548 9.57-4.236 9.57zM190.318 116.954c-5.94 0-9.633 5.35-9.633 13.97.078 8.515 3.607 13.8 9.21 13.8 6.12 0 9.633-5.16 9.633-14.155 0-8.525-3.443-13.616-9.21-13.616zm-.23 23.338c-2.592 0-4.2-3.577-4.2-9.336 0-5.815 1.664-9.57 4.237-9.57 3.654 0 4.2 5.85 4.2 9.336 0 3.576-.553 9.57-4.236 9.57zM150.672 116.954c-5.945 0-9.636 5.35-9.636 13.97.08 8.515 3.61 13.8 9.21 13.8 6.126 0 9.635-5.16 9.635-14.155 0-8.525-3.44-13.616-9.208-13.616zm-.232 23.338c-2.59 0-4.197-3.577-4.197-9.336 0-5.815 1.664-9.57 4.237-9.57 3.652 0 4.197 5.85 4.197 9.336 0 3.576-.55 9.57-4.237 9.57zM113.306 71.006h-2.9c-.147 0-.29.036-.422.106l-5.49 2.937c-.363.197-.548.616-.45 1.017l.658 2.593c.07.268.257.493.512.603.256.11.55.1.792-.032l3.113-1.677v20.473c0 .5.403.903.9.903h3.286c.5 0 .905-.405.905-.904V71.912c0-.5-.403-.906-.904-.906zM212.423 117.38h-2.9c-.15 0-.292.034-.423.104l-5.488 2.936c-.364.197-.55.617-.45 1.02l.657 2.59c.07.268.256.493.51.604.257.112.55.102.793-.03l3.112-1.68v20.473c0 .5.404.904.9.904h3.288c.5 0 .903-.403.903-.903v-25.114c0-.5-.404-.904-.903-.904zM133.128 71.006h-2.896c-.148 0-.296.036-.428.106l-5.485 2.937c-.368.197-.554.616-.45 1.017l.656 2.593c.067.268.258.493.513.603.254.11.544.1.79-.032l3.112-1.678v20.474c0 .5.404.903.904.903h3.282c.5 0 .904-.405.904-.904V71.912c0-.5-.405-.906-.904-.906zM144.35 77.66c.07.268.255.493.51.603.254.11.548.1.792-.032l3.113-1.677v20.473c0 .5.404.903.902.903h3.287c.498 0 .902-.405.902-.904V71.912c0-.5-.404-.906-.902-.906h-2.9c-.15 0-.294.036-.425.106l-5.49 2.937c-.363.197-.55.616-.45 1.017l.66 2.593zM190.318 70.584c-5.94 0-9.633 5.35-9.633 13.97.078 8.514 3.607 13.8 9.21 13.8 6.12 0 9.633-5.16 9.633-14.155 0-8.526-3.443-13.616-9.21-13.616zm-.23 23.336c-2.592 0-4.2-3.577-4.2-9.334 0-5.815 1.664-9.572 4.237-9.572 3.654 0 4.2 5.852 4.2 9.337 0 3.576-.553 9.57-4.236 9.57zM232.244 117.38h-2.896c-.148 0-.296.034-.428.104l-5.485 2.936c-.368.198-.554.617-.45 1.02l.657 2.59c.067.268.26.493.514.603.255.112.545.102.79-.03l3.112-1.68v20.473c0 .5.404.904.903.904h3.283c.5 0 .904-.404.904-.904v-25.114c0-.5-.403-.903-.903-.903z"/><path d="M266.778 44.852C243.52 15.93 209.92 0 172.163 0c-27.003 0-54.105 8.454-76.307 23.804-23.734 16.41-40.35 39.265-48.05 66.1-3.04 10.603-4.606 19.408-5.99 27.178-2.863 16.1-4.935 27.73-17.672 46.52-3.378 4.982-4.46 9.75-3.21 14.165 1.975 6.987 8.668 10.01 14.048 12.436 1.795.812 4.802 2.168 5.48 2.92 3.234 4.052 2.95 15.274 2.7 25.176-.355 14.13-.724 28.74 6.29 39.286 9.812 14.745 24.985 14.905 37.176 15.034 14.303.15 20.83.22 22.32 16.157.03.393.09 2.096.144 3.6.383 10.503.55 11.93 1.087 13.462 1.06 3.01 3.903 5.022 7.095 5.022h134.14c2.587 0 4.993-1.33 6.37-3.524 1.377-2.193 1.527-4.94.402-7.27-16.91-35.017-3.066-70.956 11.592-109.006 8.907-23.126 18.12-47.038 20.213-71.242 2.42-28.007-5.173-52.53-23.215-74.968zm-60.613-11.358c2.708 1.052 5.366 2.215 7.966 3.48.014.352.016.688.016 1.007 0 3.575-.55 9.57-4.236 9.57-2.587 0-4.196-3.578-4.196-9.335 0-1.786.158-3.376.45-4.72zm-35.86-4.85c3.65 0 4.195 5.85 4.195 9.336 0 3.574-.55 9.568-4.236 9.568-2.588 0-4.195-3.577-4.195-9.334 0-5.814 1.66-9.57 4.235-9.57zm-43.806 7.45c.208-.112.41-.22.615-.333 2.31-1.24 4.693-2.35 7.127-3.345.492 1.816.612 3.944.612 5.564 0 3.573-.55 9.567-4.236 9.567-2.59 0-4.198-3.577-4.198-9.334 0-.742.026-1.45.08-2.118zm-19.174 89.07c.724-2.388 1.946-3.776 3.508-3.776 1.82 0 2.867 1.45 3.46 3.34-2.21.08-4.568.333-6.968.436zm146.376 7.018c-.24.122-.48.218-.73.3v-14.2c0-.498-.404-.902-.9-.902h-2.9c-.15 0-.296.035-.426.105l-5.488 2.936c-.363.198-.55.618-.45 1.02l.66 2.59c.07.27.255.494.51.605.255.112.548.102.792-.03l3.112-1.68v9.846c-1.645.054-3.016.493-3.614 2.67-1.097 4.84-3.356 9.056-6.777 12.637-7.575 7.053-31.777 5.607-31.777 5.607s-1.588 1.142-.654 12.337l-1.448.774c-.364.197-.55.616-.45 1.02l.657 2.59c.07.267.256.492.51.602.256.112.55.102.793-.03l.416-.227c.037.342.08.684.125 1.038.93 7.52-4.868 9.794-12.164 7.01v-14.143c0-.5-.402-.903-.9-.903h-2.896c-.15 0-.3.036-.43.106l-5.486 2.936c-.365.197-.55.616-.447 1.02l.66 2.59c.065.267.255.492.51.602.255.112.544.102.79-.03l3.11-1.68v6.857c-7.576-4.967-15.47-14.784-18.708-29.29-1.7-7.613-15.45 5.445-24.106 2.927-6.317-1.833-10.64-2.787-13.708-5.487h1.24c.5 0 .905-.404.905-.904v-25.115c0-.5-.404-.903-.904-.903h-2.897c-.148 0-.296.035-.428.105l-5.485 2.936c-.367.197-.553.617-.448 1.02l.655 2.59c.067.268.258.493.513.604.255.112.545.102.79-.03l3.113-1.68v17.48c-.916-1.798-1.67-4.048-2.31-6.946-1.17-5.332-3.693-7.53-6.967-8.34-1.2-5.19-4.24-8.16-8.638-8.16-4.436 0-7.614 2.978-8.944 8.07-2.663-.32-5.28-1.116-7.698-2.825v-3.918c0-.5-.404-.903-.9-.903h-2.9c-.148 0-.296.035-.427.105l-.23.122c-5.124-7.163-8.15-18.814-7.692-27.39 1.275 5.127 4.317 8.137 8.543 8.137 6.123 0 9.634-5.162 9.634-14.157 0-8.525-3.443-13.616-9.21-13.616-1.235 0-2.366.243-3.394.687 4.966-10.767 11.986-18.168 21.31-24.733v4.117c0 .5.405.903.902.903h3.286c.5 0 .905-.404.905-.903v-7.49c2.228-1.4 4.57-2.784 7.032-4.173.29 8.032 3.762 12.993 9.183 12.993 6.12 0 9.636-5.16 9.636-14.156 0-2.777-.372-5.185-1.064-7.175 1.59-.532 3.197-1.015 4.824-1.454l.53 2.09c.068.27.254.494.51.605.253.11.547.1.79-.032l3.114-1.68v20.474c0 .5.404.903.902.903h3.287c.498 0 .902-.404.902-.903v-23.51c3.677-.534 7.408-.843 11.166-.94-2.645 2.295-4.163 6.46-4.163 11.974.08 8.516 3.61 13.803 9.21 13.803 6.124 0 9.638-5.16 9.638-14.156 0-5.133-1.254-9.007-3.505-11.286 2.642.22 5.282.544 7.912.967l-.327.17c-.365.2-.55.617-.447 1.018l.658 2.592c.067.268.257.493.51.604.257.112.546.1.792-.03l3.11-1.68v20.474c0 .5.406.903.907.903h3.282c.497 0 .9-.404.9-.903V29.442c2.648.67 5.27 1.45 7.858 2.313-.55 1.86-.853 4.007-.853 6.426.08 8.516 3.612 13.803 9.21 13.803 5.696 0 9.125-4.465 9.58-12.32 3.032 1.69 5.955 3.536 8.764 5.52v5.47c0 .5.405.904.904.904h3.282c.5 0 .904-.404.904-.903V49.05c7.575 6.18 14.032 13.5 18.854 21.816-.694-.183-1.43-.282-2.213-.282-5.942 0-9.634 5.35-9.634 13.97.08 8.514 3.61 13.8 9.21 13.8 5.212 0 8.522-3.748 9.396-10.404 4.305 16.072 6.38 38.394-5.06 44.232zM86.772 84.586c0-5.815 1.664-9.572 4.237-9.572 3.653 0 4.2 5.852 4.2 9.337 0 3.576-.554 9.57-4.238 9.57-2.59 0-4.2-3.577-4.2-9.334zm167.022-.234c0 3.575-.553 9.57-4.237 9.57-2.59 0-4.2-3.578-4.2-9.335 0-5.815 1.666-9.572 4.237-9.572 3.655 0 4.2 5.85 4.2 9.337z"/><path d="M232.244 71.006h-2.896c-.148 0-.296.036-.428.106l-5.485 2.937c-.368.197-.554.616-.45 1.017l.657 2.593c.067.268.26.493.514.603.255.11.545.1.79-.032l3.112-1.677v20.473c0 .5.404.903.903.903h3.283c.5 0 .904-.405.904-.904V71.912c0-.5-.403-.906-.903-.906zM210.143 70.584c-5.945 0-9.638 5.35-9.638 13.97.08 8.514 3.612 13.8 9.21 13.8 6.127 0 9.637-5.16 9.637-14.155 0-8.526-3.44-13.616-9.21-13.616zm-.234 23.336c-2.588 0-4.197-3.577-4.197-9.334 0-5.815 1.664-9.572 4.236-9.572 3.65 0 4.195 5.852 4.195 9.337 0 3.576-.548 9.57-4.236 9.57z"/></g></svg>