<svg xmlns="http://www.w3.org/2000/svg" viewBox="0 0 494.64 494.64"><g fill="#030104"><path d="M491.986 79.216c-2.775-4.64-7.35-7.895-12.63-8.957L199.17 2.71c-9.233-1.79-18.343 3.31-21.54 12.134L70.834 286.16l35.654 12.994 101.21-257.977L451.144 103.3c-15.204 47.134-51.383 145.512-86.064 237.112-30.236 79.92-47.635 107.29-80.705 112.878-.04-.04-.075-.077-.075-.135-67.586 9.474-66.373-76.688-66.373-76.688l-215.85-87.19c-15.34 97.223 59.366 120.607 59.366 120.607l158.033 71.75c.038.02 24.708 11.77 51.52 10.563 72.324-1.703 97.74-54.218 129.586-138.352C446.59 232.25 493.287 96.007 493.746 94.562c1.646-5.155.996-10.715-1.76-15.346z"/><path d="M364.272 188.63c1.646.45 3.35.69 5.033.69 8.324 0 15.94-5.55 18.274-13.972 2.773-10.115-3.217-20.564-13.318-23.32l-82.233-25.38c-9.99-2.766-20.556 3.176-23.312 13.28-2.757 10.115 3.178 20.565 13.318 23.33l82.236 25.372zM235.784 215.94c-3.296 9.96 2.055 20.69 11.99 24.014l81.8 29.232c1.987.66 3.94.958 5.908.97 7.98.04 15.453-4.992 18.117-12.96 3.304-9.936-2.037-20.68-12.01-24.003l-81.772-29.213c-9.993-3.307-20.7 2.043-24.034 11.96zM228.587 283.185c-9.952-3.33-20.698 2.104-23.952 12.096-3.272 9.915 2.182 20.67 12.134 23.924l81.972 29.11c1.975.67 3.942.957 5.936.957 7.96 0 15.387-5.07 18.01-13.032 3.27-9.97-2.163-20.707-12.115-23.96l-81.986-29.093zM225.552 104.517c11.617 0 21.043 9.167 21.043 20.46 0 11.3-9.426 20.457-21.043 20.457-11.626 0-21.052-9.158-21.052-20.458 0-11.292 9.426-20.46 21.052-20.46zM195.783 180.572c11.627 0 21.043 9.158 21.043 20.45 0 11.28-9.416 20.438-21.043 20.438-11.626 0-21.052-9.157-21.052-20.44 0-11.29 9.427-20.448 21.053-20.448zM164.033 259.04c11.627 0 21.052 9.167 21.052 20.478 0 11.29-9.425 20.438-21.052 20.438-11.626 0-21.052-9.146-21.052-20.438 0-11.31 9.427-20.48 21.053-20.48z"/></g></svg>