<svg xmlns="http://www.w3.org/2000/svg" width="455.416" height="455.416" viewBox="0 0 455.416 455.416"><path d="M235.968 52.552c.39 9.688.778 19.376 1.17 29.064H218.28c.39-9.688.78-19.376 1.167-29.064h-45.885c-30.747 116.77-61.5 233.54-92.245 350.312h124.055l1.168-29.064h42.332c.392 9.688.78 19.375 1.168 29.064h124.055c-30.747-116.77-61.498-233.54-92.245-350.312h-45.885zm-19.437 72.58c7.452 0 14.903-.003 22.355 0 1.082 26.938 2.163 53.88 3.247 80.817h-28.848c1.086-26.938 2.166-53.878 3.247-80.817zm-8.24 205.15c1.08-26.938 2.165-53.877 3.247-80.815l32.342-.002 3.246 80.817H208.29zM311.93 52.552h-15.622c38.96 116.77 77.913 233.54 116.876 350.312h42.232C407.59 286.09 359.76 169.324 311.93 52.552zM143.487 52.552C95.657 169.324 47.827 286.092 0 402.864h42.233c38.958-116.77 77.915-233.54 116.875-350.312h-15.62z"/></svg>