<svg xmlns="http://www.w3.org/2000/svg" width="314.014" height="314.014" viewBox="0 0 314.014 314.014"><path d="M248.713 127.252c-2.425 10.277-6.624 20.005-12.25 29.04 26.92 6.646 46.148 23.874 46.148 44.136 0 26.02-31.63 47.104-70.65 47.104-31.978 0-58.954-14.17-67.67-33.594-8.58 1.422-17.45 2.19-26.534 2.19-1.91 0-3.76-.167-5.654-.24 5.542 21.2 22.02 39.338 44.905 50.623v28.12c0 8.665 3.903 9.858 8.724 2.653l14.82-22.17c9.915 2.453 20.446 3.816 31.41 3.816 56.36 0 102.054-35.143 102.054-78.503 0-33.373-27.122-61.814-65.3-73.175zm-13.2-21.02c0-52.033-52.722-94.214-117.757-94.214C52.713 12.018 0 54.198 0 106.23c0 36.144 25.467 67.488 62.802 83.28v42.32c0 8.66 4.224 10.078 9.43 3.14l26.955-35.833c6.063.77 12.24 1.29 18.568 1.29 65.036 0 117.758-42.173 117.758-94.196zm-204.11 0c0-34.69 38.66-62.806 86.353-62.806 47.69 0 86.354 28.114 86.354 62.805 0 34.683-38.664 62.795-86.354 62.795-47.694 0-86.354-28.11-86.354-62.794z"/></svg>