<svg xmlns="http://www.w3.org/2000/svg" viewBox="0 0 42.672 42.672"><path d="M38.73 25.815v-4.09l3.942-2.18L21.337 8.152 0 19.548l8.506 4.94V27.625c.023-.012.052-.023.077-.035-.09.125-.15.247-.15.375 0 1.428 5.774 2.592 12.904 2.592 7.126 0 12.906-1.164 12.906-2.592 0-.128-.062-.25-.15-.375.025.015.054.023.076.035V24.48l3.71-2.284v3.62c-.405.165-.69.567-.69 1.033 0 .615.5 1.115 1.114 1.115.62 0 1.12-.5 1.12-1.116 0-.467-.285-.87-.695-1.035zm-17.393 3.76c-6.327 0-11.453-.723-11.453-1.61s5.126-1.605 11.453-1.605c6.324 0 11.452.72 11.452 1.606s-5.13 1.608-11.453 1.608zm12.553-7.472c-.85-.91-3.908-3.295-12.553-3.295-8.65 0-11.703 2.388-12.552 3.298v-.864s2.476-3.717 12.552-3.717c10.075 0 12.553 3.717 12.553 3.717v.86z"/><path d="M37.4 28.194l-.468 6.328c1.36-2.11 2.48-1.314 2.48-1.314v-5.014c-1.45.563-2.012 0-2.012 0z"/></svg>