<svg xmlns="http://www.w3.org/2000/svg" viewBox="0 0 24 24"><path d="M10.978 12c.008 1.187.047 2.374-.016 3.265-.056.89-.162 1.484-.162 1.484-.03.165-.188.275-.354.245-.13-.023-.224-.125-.246-.246 0 0-.106-.595-.162-1.485-.064-.89-.024-2.078-.016-3.266.002-1.19.06-2.376.092-3.267.05-.89.086-1.484.086-1.484.01-.167.152-.293.318-.283.154.01.274.132.282.282l.087 1.483c.03.89.09 2.078.09 3.266zM8.89 9.576C8.846 8.78 8.8 8.25 8.8 8.25c-.012-.144-.126-.263-.275-.275-.165-.015-.31.108-.325.274 0 0-.045.53-.09 1.327-.034.797-.09 1.86-.09 2.922-.023 1.06-.027 2.124.03 2.92.048.798.15 1.33.15 1.33.023.118.116.218.243.242.166.032.326-.077.357-.243 0 0 .1-.532.15-1.33.057-.796.053-1.858.03-2.92-.002-1.064-.057-2.126-.09-2.923zm-2 0C6.846 8.78 6.8 8.25 6.8 8.25c-.012-.144-.126-.263-.275-.275-.165-.015-.31.108-.325.274 0 0-.045.53-.09 1.327-.034.797-.09 1.86-.09 2.922-.023 1.06-.027 2.124.03 2.92.048.798.15 1.33.15 1.33.023.118.116.218.243.242.166.032.326-.077.357-.243 0 0 .1-.532.15-1.33.057-.796.053-1.858.03-2.92-.002-1.064-.057-2.126-.09-2.923zm-1.987 1.688c-.05-.61-.103-1.016-.103-1.016-.017-.134-.122-.244-.26-.262-.167-.022-.32.095-.34.26 0 0-.053.407-.103 1.017-.043.61-.083 1.422-.087 2.234-.015.81.008 1.624.066 2.233.044.61.124 1.016.124 1.016.023.117.116.216.24.24.167.032.327-.076.36-.24 0 0 .08-.407.125-1.017.058-.61.08-1.422.066-2.234-.004-.814-.044-1.626-.087-2.235zM2.8 11.25c-.022-.122-.117-.224-.246-.247-.166-.03-.324.08-.354.246 0 0-.056.31-.106.78-.048.47-.08 1.094-.087 1.72-.005.624.017 1.25.073 1.718.046.47.12.78.12.78.026.11.112.203.23.23.165.04.33-.064.37-.23 0 0 .073-.31.12-.78.056-.47.08-1.094.073-1.72-.006-.624-.04-1.25-.087-1.718-.05-.47-.106-.78-.106-.78zm-2.1 1c-.022-.052-.063-.095-.118-.118-.11-.046-.237.006-.283.117 0 0-.08.187-.155.468-.055.28-.134.656-.138 1.03-.024.376.012.75.096 1.032.082.28.196.47.196.47.018.03.044.057.077.077.11.068.255.033.322-.078 0 0 .114-.19.195-.47.084-.28.12-.656.096-1.03-.003-.376-.082-.75-.137-1.032-.076-.282-.154-.47-.154-.47zm23.157.67c-.272-.906-.986-1.656-1.88-1.968-.82-.285-1.62-.23-2.3.053-.248-2.81-2.604-5.092-5.478-5.092-.605 0-1.403.224-1.952.51-.158.084-.248.256-.248.433V16.5c0 .276.223.5.5.5h8.383c2.033 0 3.61-1.948 2.974-4.08z"/></svg>