<svg xmlns="http://www.w3.org/2000/svg" viewBox="0 0 24 24"><path d="M12 2C6.477 2 2 6.477 2 12c0 5.522 4.477 10 10 10 5.522 0 10-4.478 10-10 0-5.523-4.478-10-10-10zm4.586 14.423c-.18.294-.563.387-.857.207-2.35-1.435-5.305-1.76-8.785-.965-.336.077-.67-.133-.746-.468-.078-.335.132-.67.467-.746 3.81-.87 7.077-.495 9.713 1.116.293.18.386.563.206.857zM17.81 13.7c-.226.367-.706.482-1.072.257-2.688-1.652-6.785-2.13-9.965-1.166-.413.126-.848-.107-.974-.518-.125-.412.108-.847.52-.972 3.63-1.102 8.146-.568 11.233 1.33.367.224.482.704.257 1.07zm.105-2.835c-3.223-1.915-8.54-2.09-11.617-1.157-.494.15-1.017-.13-1.166-.623-.15-.494.128-1.016.622-1.167 3.533-1.072 9.405-.865 13.116 1.338.444.264.59.838.327 1.28-.264.446-.84.593-1.282.33z"/></svg>