<svg xmlns="http://www.w3.org/2000/svg" width="970.6" height="970.6" viewBox="0 0 970.6 970.6"><path d="M804.6 285.8l25.4-33.4c13.4-17.6 10-42.7-7.6-56.1L757 146.5c-17.6-13.4-42.7-10-56.1 7.6l-25.4 33.3c41.6 20.6 79.3 47.7 112.4 80.8 5.9 5.8 11.4 11.6 16.7 17.6zM485.3 142.8c17.7 0 35.2 1.1 52.5 3.2v-46h31.6c22.102 0 40-17.9 40-40V40c0-22.1-17.898-40-40-40H401.2c-22.1 0-40 17.9-40 40v20c0 22.1 17.9 40 40 40h31.6v46c17.3-2.1 34.8-3.2 52.5-3.2zM485.3 970.6c220.7 0 399.6-178.9 399.6-399.6 0-100.3-36.9-191.9-97.9-262-35.6-41-79.5-74.6-129-98.4-37.2-17.9-77.7-30.1-120.2-35.7-17.2-2.3-34.7-3.4-52.5-3.4-17.8 0-35.3 1.2-52.5 3.4C236.9 200.6 85.7 368.2 85.7 571c0 220.7 178.9 399.6 399.6 399.6zm110.1-677.8c51.6 20.4 96.1 54.7 129 98.4 29.4 39 49.5 85.5 56.9 136.1 2.1 14.3 3.2 29 3.2 43.9H483.4V271.8h1.9c14.3 0 28.4 1 42.1 3 23.7 3.3 46.4 9.4 68 18z"/></svg>