<svg xmlns="http://www.w3.org/2000/svg" viewBox="0 0 24 24"><path d="M21.99 7.324c-.09 1.96-1.45 4.64-4.08 8.045-2.718 3.555-5.02 5.333-6.9 5.333-1.166 0-2.153-1.082-2.96-3.25L6.438 11.5C5.84 9.334 5.197 8.25 4.51 8.25c-.15 0-.672.317-1.57.948L2 7.978c.987-.872 1.96-1.745 2.92-2.618C6.234 4.216 7.223 3.614 7.88 3.553c1.557-.15 2.515.92 2.874 3.212.388 2.472.657 4.01.81 4.612.448 2.05.94 3.076 1.48 3.076.42 0 1.048-.665 1.887-1.996.838-1.33 1.286-2.343 1.347-3.04.12-1.147-.33-1.723-1.347-1.723-.48 0-.972.11-1.48.33.983-3.24 2.86-4.813 5.633-4.723 2.054.06 3.023 1.402 2.904 4.024z"/></svg>