<svg xmlns="http://www.w3.org/2000/svg" viewBox="0 0 24 24"><path d="M8.867 12.378H6.853v2.316H8.83c.18 0 .355-.017.518-.053.166-.034.313-.093.437-.177.123-.082.227-.194.3-.336.076-.14.112-.324.112-.545 0-.434-.122-.74-.365-.928-.243-.184-.566-.276-.965-.276zM15.984 11.128c-.267 0-.488.045-.665.136-.174.09-.316.203-.425.336-.108.135-.18.277-.225.43-.042.148-.07.282-.075.4h2.722c-.04-.426-.186-.74-.386-.963-.2-.22-.535-.34-.946-.34zM9.542 10.878c.213-.156.317-.413.317-.765 0-.196-.036-.357-.105-.483-.072-.126-.166-.223-.284-.293-.118-.072-.252-.12-.408-.147-.153-.03-.312-.042-.476-.042H6.853v1.966h1.874c.328 0 .6-.078.815-.236z"/><path d="M3 3v18h18V3H3zm11.252 5.192h3.41v.83h-3.41v-.83zM11.8 14.788c-.165.313-.39.567-.666.762-.28.197-.6.342-.957.436-.355.094-.722.142-1.1.142H5V7.715h3.966c.403 0 .766.035 1.098.107.33.07.612.187.85.347.234.16.417.372.55.64.127.265.19.596.19.987 0 .423-.095.777-.287 1.06-.193.282-.478.513-.86.693.52.15.902.41 1.157.783.255.375.38.824.38 1.35 0 .43-.08.796-.245 1.105zm3.207-.12c.25.243.613.367 1.083.367.336 0 .628-.086.873-.256.243-.17.39-.353.448-.54h1.475c-.238.732-.597 1.255-1.087 1.57-.483.317-1.075.474-1.763.474-.48 0-.912-.077-1.3-.23-.386-.155-.71-.372-.982-.655-.265-.285-.47-.62-.62-1.016-.144-.392-.218-.827-.218-1.298 0-.456.076-.88.225-1.275.152-.393.362-.734.637-1.02.278-.287.605-.514.988-.68.382-.164.803-.247 1.27-.247.515 0 .967.1 1.354.302.385.2.7.47.95.807.247.338.424.724.534 1.157.11.43.15.882.117 1.355h-4.394c-.002.482.16.937.41 1.182z"/></svg>