<svg xmlns="http://www.w3.org/2000/svg" viewBox="0 0 24 24"><path d="M21.992 8.84l-.007-.036-.015-.072c-.004-.014-.01-.028-.013-.042l-.022-.063-.02-.042c-.008-.02-.017-.038-.028-.057l-.024-.04c-.012-.018-.023-.035-.036-.052l-.03-.037c-.013-.017-.027-.033-.042-.047-.01-.012-.022-.023-.034-.034-.015-.015-.03-.03-.048-.042l-.04-.03-.013-.01-9.142-6.094c-.29-.193-.665-.193-.953 0L2.383 8.238l-.015.01-.038.03-.05.04-.033.035c-.015.015-.03.03-.043.046-.01.01-.02.024-.03.036l-.036.053-.024.04-.03.056-.02.04-.02.064-.014.042c-.007.023-.01.047-.015.072-.002.012-.006.024-.007.037-.005.038-.008.075-.008.113v6.094c0 .038.003.075.008.113l.007.037.015.072c.004.013.01.027.013.04l.022.064.02.042c.008.02.018.038.028.057l.025.04c.01.017.023.034.036.05l.03.038c.013.017.028.033.043.047.01.012.022.023.034.034.016.015.033.03.05.042.013.01.025.02.04.03l.013.01 9.14 6.094c.145.096.31.144.477.144.166 0 .332-.048.477-.145l9.14-6.094c.006-.002.01-.006.015-.01l.04-.03c.016-.012.032-.026.048-.04.012-.01.023-.022.034-.034.015-.015.03-.03.043-.046l.03-.037.035-.052c.008-.012.017-.025.024-.038l.03-.057.018-.042.022-.063c.004-.014.01-.027.013-.042l.014-.072.007-.037c.007-.038.01-.075.01-.113V8.953c0-.038-.003-.075-.008-.112zM12.86 4.466l6.733 4.49-3.008 2.01-3.726-2.49v-4.01zm-1.72 0v4.008l-3.725 2.492-3.008-2.01 6.734-4.49zm-7.42 6.097L5.87 12l-2.15 1.438v-2.876zm7.42 8.972l-6.733-4.49 3.008-2.01 3.726 2.49v4.01zm.86-5.5L8.96 12 12 9.967 15.04 12 12 14.033zm.86 5.5v-4.008l3.725-2.492 3.008 2.012-6.734 4.488zm7.42-6.096L18.13 12l2.15-1.438v2.876z"/></svg>