<svg xmlns="http://www.w3.org/2000/svg" viewBox="0 0 24 24"><path d="M10.82 16.34l-.733-1.992s-1.19 1.33-2.978 1.33c-1.582 0-2.704-1.376-2.704-3.575 0-2.818 1.42-3.826 2.818-3.826 2.016 0 2.657 1.306 3.207 2.978l.734 2.29c.733 2.223 2.108 4.01 6.07 4.01 2.842 0 4.766-.87 4.766-3.16 0-1.857-1.054-2.82-3.024-3.277l-1.466-.32c-1.008-.23-1.306-.642-1.306-1.33 0-.78.618-1.237 1.627-1.237 1.1 0 1.696.413 1.788 1.4l2.29-.276c-.182-2.062-1.603-2.91-3.94-2.91-2.06 0-4.077.78-4.077 3.277 0 1.56.757 2.544 2.658 3.002l1.558.366c1.168.275 1.558.756 1.558 1.42 0 .847-.825 1.19-2.383 1.19-2.313 0-3.275-1.213-3.825-2.886l-.756-2.29c-.963-2.98-2.498-4.08-5.545-4.08C3.787 6.446 2 8.576 2 12.196c0 3.482 1.787 5.36 4.994 5.36 2.59 0 3.826-1.214 3.826-1.214z"/></svg>