<svg xmlns="http://www.w3.org/2000/svg" viewBox="0 0 24 24"><path d="M22.493 7.467c-2.313.067-5.105-1.747-6.187-2.43-.1-.064-.203-.123-.306-.176-.113-.062-.23-.12-.348-.18v6.677h-.003c.003.598-.174 1.228-.548 1.832l-.033.052c-1.082 1.748-3.357 2.767-5.49 2.046-2.073-.7-2.627-2.707-1.53-4.482l.034-.054c1.08-1.747 3.355-2.767 5.49-2.046.163.055.315.12.46.194V4.075c-.764-.207-1.574-.325-2.428-.325C6.666 3.75 3 7.446 3 12v.06c0 4.553 3.637 8.19 8.546 8.19 4.938 0 8.605-3.696 8.605-8.25v-.06c0-.354-.024-.702-.066-1.045 2.57-.67 3.632-3.332 2.41-3.428z"/></svg>