<svg xmlns="http://www.w3.org/2000/svg" viewBox="0 0 24 24"><path d="M20 11.948c-.464.107-.912.154-1.316.154-2.27 0-4.02-1.586-4.02-4.344 0-1.352.523-2.055 1.262-2.055.703 0 1.172.63 1.172 1.91 0 .73-.195 1.526-.34 1.998 0 0 .7 1.222 2.615.847.406-.902.627-2.07.627-3.095C20 4.604 18.594 3 16.016 3c-2.65 0-4.2 2.037-4.2 4.723 0 2.66 1.244 4.944 3.295 5.985-.86 1.725-1.96 3.245-3.103 4.39-2.076-2.51-3.954-5.86-4.724-12.394H4.22c1.415 10.884 5.633 14.35 6.748 15.015.63.378 1.174.36 1.75.035.907-.515 3.625-3.233 5.132-6.418.633-.002 1.393-.074 2.15-.245v-2.144z"/></svg>